<svg xmlns="http://www.w3.org/2000/svg" fill="#ffffff" viewBox="0 0 181.07 80.84">
  <path d="M28.86 65.74h3.47v14.95h-3.47zm35.12 0v14.95h10.49v-3.06h-7.02v-2.95h6v-3.06h-6V68.8h7.02v-3.06H63.98zm59.76 2.73 1.11 3.53 1.21 3.56h-4.7l1.2-3.56 1.09-3.48h.09Zm0-2.73h-1l-5.24 15h2.1l1.16-3.36h6l1.18 3.36H130l-5.26-15Zm21.52 0v14.95h10.05v-1.8h-8.04v-4.78h6.88v-1.79h-6.88v-4.76h8.04v-1.82h-10.05zm25.09 0v1.84h4.34v13.11h2.05V67.58h4.33v-1.84h-10.72zM40.51 0v10.68a9.86 9.86 0 0 0-6.93 2.86 9.72 9.72 0 0 0-2.88 6.89V38.5h9.81v10.68H20V20.43A20.29 20.29 0 0 1 26 6a20.51 20.51 0 0 1 14.5-6m0 0A20.51 20.51 0 0 1 55 6l.67.68.65-.68a20.48 20.48 0 0 1 14.5-6v10.68a9.86 9.86 0 0 0-6.94 2.86 9.71 9.71 0 0 0-2.87 6.89V38.5h9.81v10.68H40.51V38.5h9.81V20.43a9.71 9.71 0 0 0-2.87-6.89 9.86 9.86 0 0 0-6.93-2.86Zm30.38 0a20.51 20.51 0 0 1 14.5 6l.66.68c.21-.23.43-.46.66-.68a20.5 20.5 0 0 1 14.5-6v10.68a9.84 9.84 0 0 0-6.93 2.86 9.72 9.72 0 0 0-2.88 6.89V38.5h9.81v10.68H70.88V38.5h9.8V20.43a9.71 9.71 0 0 0-2.87-6.89 9.84 9.84 0 0 0-6.93-2.86Zm30.36 0a20.48 20.48 0 0 1 14.5 6l.67.68c.21-.23.43-.46.66-.68a20.5 20.5 0 0 1 14.5-6v10.68a9.84 9.84 0 0 0-6.93 2.86 9.67 9.67 0 0 0-2.87 6.89V38.5h9.8v10.68h-30.33V38.5h9.81V20.43a9.71 9.71 0 0 0-2.87-6.89 9.88 9.88 0 0 0-6.94-2.86Zm30.36 0a20.52 20.52 0 0 1 14.51 6 20.33 20.33 0 0 1 6 14.41v28.77H131.6V38.5h9.81V20.43a9.71 9.71 0 0 0-2.87-6.89 9.85 9.85 0 0 0-6.94-2.86ZM5.64 65.74H0v15h5.64v-3.11H3.47v-3.19h2.17v-2.93H3.47V68.8h2.17Zm5.93 9.57a4 4 0 0 0-.39-1 5.12 5.12 0 0 0-.65-.86 3.66 3.66 0 0 0-1-.65 3.11 3.11 0 0 0 .81-.57 3.24 3.24 0 0 0 .59-.76 5 5 0 0 0 .35-.84 4.12 4.12 0 0 0 .11-.83 5.41 5.41 0 0 0-.24-1.56 3.13 3.13 0 0 0-.77-1.3A4.51 4.51 0 0 0 9 66.06a5.69 5.69 0 0 0-2-.32H5.64v3.06h.45a1.8 1.8 0 0 1 1.35.39 1.51 1.51 0 0 1 .37 1 1.15 1.15 0 0 1-.39.91 2 2 0 0 1-1.33.37h-.45v2.93h.6a1.68 1.68 0 0 1 1.34.48A1.81 1.81 0 0 1 8 76.09a1.51 1.51 0 0 1-.44 1.11 1.76 1.76 0 0 1-1.29.43h-.6v3.06h1.65a4.62 4.62 0 0 0 1.89-.35 3.51 3.51 0 0 0 1.38-.93 4.33 4.33 0 0 0 .83-1.41 5 5 0 0 0 .28-1.76 3.39 3.39 0 0 0-.13-.91m2.97-9.59v15H18v-5.56h2.14l.05.13v-3.15H18V68.8h2.2v-3.06Zm5.66 9.57 2.22 5.38h3.71l-2.69-6.1a4 4 0 0 0 1-.8 4.77 4.77 0 0 0 .79-1 4.62 4.62 0 0 0 .65-2.3 6.45 6.45 0 0 0-.24-1.73 4.27 4.27 0 0 0-.8-1.52 4.11 4.11 0 0 0-1.45-1.09 4.89 4.89 0 0 0-2.12-.41H20.2v3.06h.39a1.71 1.71 0 0 1 1.37.5 1.75 1.75 0 0 1 .44 1.17 1.59 1.59 0 0 1-1.81 1.69h-.39Zm21.2-9.57h-5.58v15h5.58v-3.12h-2.11V68.8h2.11Zm5.6 4.75a4.89 4.89 0 0 0-.42-2.12 3.93 3.93 0 0 0-1.16-1.48 4.9 4.9 0 0 0-1.74-.89 7.45 7.45 0 0 0-2.17-.28h-.11v3.07a2.71 2.71 0 0 1 .55.12 2.91 2.91 0 0 1 .79.39 2.69 2.69 0 0 1 .55.72 2.47 2.47 0 0 1 .21 1.11v4.12a2.46 2.46 0 0 1-.21 1.1 2.08 2.08 0 0 1-.55.72 2.48 2.48 0 0 1-.79.41 2.71 2.71 0 0 1-.55.12v3.07h.11a6.65 6.65 0 0 0 2-.28 5.42 5.42 0 0 0 1.77-.87A4.5 4.5 0 0 0 46.52 78a4.61 4.61 0 0 0 .48-2.08Zm13.89 8.14v-6.4h-5.54v2.91h2.07v2a2 2 0 0 1-.78.42 4.17 4.17 0 0 1-.83.1 2.85 2.85 0 0 1-.86-.13 2.1 2.1 0 0 1-.78-.41 1.81 1.81 0 0 1-.57-.72 2.24 2.24 0 0 1-.22-1.07V71.1a2.52 2.52 0 0 1 .24-1.1 2.41 2.41 0 0 1 .59-.71 2.78 2.78 0 0 1 .81-.4 3.31 3.31 0 0 1 .87-.12 7.14 7.14 0 0 1 1.58.19 4.41 4.41 0 0 1 1.53.84l1.68-2.67A5.58 5.58 0 0 0 58.49 66a10.31 10.31 0 0 0-2.68-.37 8.26 8.26 0 0 0-2.15.3 5.71 5.71 0 0 0-1.87.91 4.67 4.67 0 0 0-1.36 1.54 4.25 4.25 0 0 0-.52 2.15v5.58a3.86 3.86 0 0 0 .55 2.13 4.68 4.68 0 0 0 1.37 1.5 6.7 6.7 0 0 0 1.9.86 7.54 7.54 0 0 0 2.08.28 8.37 8.37 0 0 0 1.26-.11 5.74 5.74 0 0 0 1.36-.37 6 6 0 0 0 1.33-.69 5.27 5.27 0 0 0 1.13-1m21.79-12.97h-5.3v15h5.3v-1.8h-3.24v-5.17h3.24V72h-3.24v-4.44h3.24Zm5 8.64a3.56 3.56 0 0 0-1.59-1.52 3.26 3.26 0 0 0 1.44-1.43 3.78 3.78 0 0 0 .42-1.74 3.85 3.85 0 0 0-.29-1.5 3.64 3.64 0 0 0-.83-1.26 4 4 0 0 0-1.33-.87 5.05 5.05 0 0 0-1.83-.32h-.95v1.82h.56a3.49 3.49 0 0 1 1.94.5 1.85 1.85 0 0 1 .74 1.67 2.26 2.26 0 0 1-.2 1 2.61 2.61 0 0 1-.54.72 2.3 2.3 0 0 1-.81.41 3 3 0 0 1-1 .15h-.73v1.8h.78a3.26 3.26 0 0 1 1 .17 2.78 2.78 0 0 1 .87.5 2.74 2.74 0 0 1 .61.78 2.39 2.39 0 0 1 .22 1.09 2.6 2.6 0 0 1-.67 1.91 2.74 2.74 0 0 1-2 .67h-.82v1.8h1.19a4.19 4.19 0 0 0 1.85-.39 4.12 4.12 0 0 0 1.36-1 4.7 4.7 0 0 0 .81-1.39 5 5 0 0 0 .26-1.58 4 4 0 0 0-.51-1.93M101.94 76V65.74h-2.06v9.85a3.85 3.85 0 0 1-.28 1.56 3 3 0 0 1-.79 1.07 3 3 0 0 1-1.14.6 4.21 4.21 0 0 1-1.31.2 4.33 4.33 0 0 1-1.35-.2 2.72 2.72 0 0 1-1.11-.6 3 3 0 0 1-.77-1.07 3.85 3.85 0 0 1-.28-1.56v-9.85h-2V76a4.72 4.72 0 0 0 .39 2 4.32 4.32 0 0 0 1.19 1.54 5.6 5.6 0 0 0 1.77 1 7 7 0 0 0 2.16.32 6.84 6.84 0 0 0 2.14-.32 5.82 5.82 0 0 0 1.77-1 4.34 4.34 0 0 0 1.2-1.54 4.46 4.46 0 0 0 .47-2.06m8.35-10.2h-5.36v15h5.36v-1.81h-3.35V67.56h3.35Zm5.42 4.88a5.15 5.15 0 0 0-.39-2 4.4 4.4 0 0 0-1.09-1.62 5.15 5.15 0 0 0-1.64-1 6 6 0 0 0-2-.32h-.29v1.83a6 6 0 0 1 1.12.16 2.89 2.89 0 0 1 1.14.59 3 3 0 0 1 .81 1.07 3.94 3.94 0 0 1 .3 1.58v4.56a3.39 3.39 0 0 1-.33 1.58 3.58 3.58 0 0 1-.82 1.07 2.94 2.94 0 0 1-1.14.58 5.91 5.91 0 0 1-1.08.17v1.76h.27a5.81 5.81 0 0 0 2-.34 5.12 5.12 0 0 0 1.64-1 4.83 4.83 0 0 0 1.11-1.54 4.89 4.89 0 0 0 .39-2Zm21.83-4.88h-5.26v15h2v-6h3.25v-1.9h-3.25v-5.28h3.25Zm5 2.86a4.75 4.75 0 0 0-.78-1.43 4.53 4.53 0 0 0-1.31-1 4.4 4.4 0 0 0-1.91-.39h-1v1.82h.57a2.73 2.73 0 0 1 1.95.72 2.55 2.55 0 0 1 .74 1.93 2.5 2.5 0 0 1-.74 1.93 2.81 2.81 0 0 1-1.95.7h-.57v1.84h1a3.69 3.69 0 0 0 1.79-.41 4.17 4.17 0 0 0 1.34-1 4.6 4.6 0 0 0 1.13-3 5 5 0 0 0-.26-1.61m25.52 5.9a3.67 3.67 0 0 0-1.14-1.24 5.45 5.45 0 0 0-1.59-.76c-.59-.18-1.2-.33-1.83-.48a13.5 13.5 0 0 1-1.11-.26 5.7 5.7 0 0 1-1.1-.41 2.47 2.47 0 0 1-.83-.63 1.59 1.59 0 0 1-.32-1 2.51 2.51 0 0 1 .24-1.11 2 2 0 0 1 .61-.8 2.84 2.84 0 0 1 .92-.46 3.59 3.59 0 0 1 1.11-.15 9.75 9.75 0 0 1 2 .24 7 7 0 0 1 2 .8l.94-1.69a7.19 7.19 0 0 0-2.38-.93 13.44 13.44 0 0 0-2.55-.24 5.81 5.81 0 0 0-2 .32 4.78 4.78 0 0 0-1.53.89 3.71 3.71 0 0 0-1 1.35 4.16 4.16 0 0 0-.35 1.74 3.46 3.46 0 0 0 .39 1.73 3.83 3.83 0 0 0 1 1.19 4.42 4.42 0 0 0 1.47.74 10.76 10.76 0 0 0 1.71.46c.42.09.84.17 1.27.28a5.21 5.21 0 0 1 1.18.44 2.69 2.69 0 0 1 .87.73 2.37 2.37 0 0 1-.54 3 3.91 3.91 0 0 1-2.4.65 7 7 0 0 1-2.3-.39 8.94 8.94 0 0 1-2.13-1.09L157.58 79a8.58 8.58 0 0 0 2.64 1.41 9.8 9.8 0 0 0 2.91.43 7.71 7.71 0 0 0 2.18-.3 5.12 5.12 0 0 0 1.7-.85 3.87 3.87 0 0 0 1.1-1.34 4.35 4.35 0 0 0 .37-1.78 3.94 3.94 0 0 0-.42-2" class="cls-1"/>
</svg>
