<svg xmlns="http://www.w3.org/2000/svg" viewBox="0 0 46 46" fill="#fff">
  <path d="M17.45 36.9a6.47 6.47 0 0 1 2-4c1.24-1.2 2.86-1.85 4.09-3.06h-1c1.23 1.21 2.85 1.85 4.09 3.06a6.47 6.47 0 0 1 2 4c.08.92 1.53.93 1.45 0a7.93 7.93 0 0 0-2-4.7A11.17 11.17 0 0 0 26 30.46a15.71 15.71 0 0 1-2.37-1.69.72.72 0 0 0-1 0 13.6 13.6 0 0 1-2.43 1.63 11.35 11.35 0 0 0-2.2 1.8 7.93 7.93 0 0 0-2 4.7c-.08.92 1.37.92 1.45 0Zm13.33-18.33a23.54 23.54 0 0 1-7.66 1.67 23.66 23.66 0 0 1-7.85-1.74c-.88-.32-1.26 1.08-.39 1.4a24.88 24.88 0 0 0 8.24 1.78A24.83 24.83 0 0 0 31.17 20c.87-.31.49-1.71-.39-1.4ZM34.94 8H11.06l.73.72V5l-.73.73h23.88L34.21 5v3.76a.73.73 0 0 0 1.45 0V5a.73.73 0 0 0-.72-.72H11.06a.73.73 0 0 0-.72.72v3.76a.73.73 0 0 0 .72.72h23.88a.72.72 0 0 0 0-1.48Z" class="cls-1"/>
  <path d="M34.94 40.27H11.06l.73.73v-3.76l-.73.72h23.88l-.73-.72V41a.73.73 0 0 0 1.45 0v-3.76a.73.73 0 0 0-.72-.72H11.06a.73.73 0 0 0-.72.72V41a.73.73 0 0 0 .72.72h23.88a.73.73 0 0 0 0-1.45Zm-24.6-29.39v24.24a.73.73 0 0 0 1.45 0V10.88a.73.73 0 0 0-1.45 0Zm23.87-.09V35a.73.73 0 0 0 1.45 0V10.79a.73.73 0 0 0-1.45 0Z" class="cls-1"/>
  <path d="M32 37V26.78a.71.71 0 0 0-.36-.63l-7.19-3.82v1.25l7.19-3.82a.71.71 0 0 0 .36-.63V9.1a.73.73 0 0 0-1.45 0v10l.36-.63-7.19 3.83a.73.73 0 0 0 0 1.25l7.18 3.85-.36-.62V37A.73.73 0 0 0 32 37ZM14 9.1v10a.71.71 0 0 0 .36.63l7.19 3.82v-1.22l-7.19 3.82a.71.71 0 0 0-.36.63V37a.73.73 0 0 0 1.45 0V26.78l-.36.62 7.19-3.82a.73.73 0 0 0 0-1.25L15.1 18.5l.36.63V9.1a.73.73 0 0 0-1.46 0Zm9.72 20.28v-4.7a.72.72 0 1 0-1.44 0v4.7a.72.72 0 1 0 1.44 0Z" class="cls-1"/>
</svg>
