<svg xmlns="http://www.w3.org/2000/svg" viewBox="0 0 46 46" fill="#fff">
  <path d="M20.89 43H5.83a.73.73 0 0 0 0 1.45h15.06a.73.73 0 0 0 0-1.45Z" class="cls-1"/>
  <path d="m19.77 23.47 2.78-10.59c.39-1.47 1.11-3.29-.49-4.35a2 2 0 0 0-2.82.47 10.16 10.16 0 0 0-.53 1l-5.45 10.8a6.5 6.5 0 0 0-.58 3.2v6.63a13.45 13.45 0 0 1-1.82 7.7c-1 1.65-2.12 3.28-3.18 4.93a.73.73 0 0 0 .63 1.09c2.91 0 5.94.26 8.84 0 1-.09 1.49-1.4 2-2.15l3-4.48c2-3 1.45-6.78 1.45-10.23a24.43 24.43 0 0 0 0-3.92 2.72 2.72 0 0 0-4.89-1.12c-.86 1.25-.48 3.43-.48 4.86v5a.73.73 0 0 0 1.45 0v-5.97a21.49 21.49 0 0 1 0-2.27 1.25 1.25 0 0 1 2.29-.66 1.79 1.79 0 0 1 .22 1.05c.06 2.36 0 4.73 0 7.09v2.13a7.69 7.69 0 0 1-1.55 3.84l-3.94 5.82.63-.36h-9l.62 1.09c2.34-3.62 5.13-7.07 5.19-11.59.05-3.2-.17-6.43 0-9.63a7.48 7.48 0 0 1 1.14-2.72l2.82-5.6c.74-1.46 1.4-3 2.23-4.41.05-.08.09-.27.17-.34.58-.5 1.19.32 1.14.94a8 8 0 0 1-.36 1.36l-2.89 11a.73.73 0 0 0 1.4.39Zm5.06 20.96H39.9a.73.73 0 0 0 0-1.45H24.83a.73.73 0 0 0 0 1.45Z" class="cls-1"/>
  <path d="m27.35 23.08-2.56-9.73c-.19-.72-.42-1.45-.57-2.18a3.39 3.39 0 0 1-.11-.43c-.06-.62.53-1.46 1.13-1a4 4 0 0 1 .52 1L26.9 13l2.91 5.77a31.66 31.66 0 0 1 1.66 3.29c.45 1.22.13 3 .13 4.22v5.75a13.15 13.15 0 0 0 2.13 7.23L36.79 44l.63-1h-9l.62.36-3.41-5.12a16.93 16.93 0 0 1-1.49-2.44 8.21 8.21 0 0 1-.54-3.43v-7.3c0-.9-.08-2.27 1.25-2.26s1.26 1.63 1.26 2.61v7a.73.73 0 0 0 1.45 0c0-2.77.14-5.57 0-8.34a2.73 2.73 0 0 0-4.5-2c-1.15 1-.9 2.65-.9 4v5.73a10 10 0 0 0 1.16 5.51c.74 1.21 1.57 2.37 2.36 3.55l1.57 2.37c.21.31.46.87.8 1.07a3.3 3.3 0 0 0 1.47.1h7.92a.73.73 0 0 0 .56-1.07l-2.9-4.55a12.22 12.22 0 0 1-2.05-6.86v-6.4c0-1.33.23-2.93-.34-4.16-1.59-3.43-3.42-6.77-5.12-10.15-.53-1.05-1.06-2.9-2.43-3.07a2.35 2.35 0 0 0-2.51 2 4.23 4.23 0 0 0 .23 1.65L26 23.47a.73.73 0 0 0 1.4-.39Z" class="cls-1"/>
  <path d="M33.87 8.85A15.57 15.57 0 0 0 7.4 21.65a15.78 15.78 0 0 0 5.45 10.12c.7.6 1.73-.42 1-1a14.27 14.27 0 0 1-1.44-20.39 14.27 14.27 0 0 1 20.41-.47c.67.65 1.7-.38 1-1Zm4.13 7.4a14.64 14.64 0 0 0-.55-1.82.79.79 0 0 0-.33-.43.74.74 0 0 0-.56-.07.68.68 0 0 0-.43.33.73.73 0 0 0-.08.56 14.55 14.55 0 0 1 .56 1.81.73.73 0 0 0 .89.51.74.74 0 0 0 .5-.89Zm-5.19 15.57a15.74 15.74 0 0 0 5.62-12 .73.73 0 0 0-1.45 0 14.36 14.36 0 0 1-5.19 10.98c-.72.6.31 1.62 1 1ZM22.8 3a.73.73 0 0 0 0-1.45.73.73 0 0 0 0 1.45Zm12.74 5.4a.73.73 0 0 0 0-1.45.73.73 0 0 0 0 1.45Zm4.91 12.18a.73.73 0 0 0 0-1.45.73.73 0 0 0 0 1.45Z" class="cls-1"/>
  <path d="M22.86 3a.73.73 0 0 0 0-1.45.73.73 0 0 0 0 1.45ZM11.67 7a.73.73 0 0 0 0-1.45.73.73 0 0 0 0 1.45Zm25.04 24.28a.73.73 0 0 0 0-1.45.73.73 0 0 0 0 1.45ZM6.54 14.15a.73.73 0 0 0 0-1.45.73.73 0 0 0 0 1.45Zm-.99 9.54a.73.73 0 0 0 0-1.45.73.73 0 0 0 0 1.45Z" class="cls-1"/>
</svg>
