<svg xmlns="http://www.w3.org/2000/svg" viewBox="0 0 46 46" fill="#fff">
  <path d="m21.92 8.05-.45-.25.06.08.07.1.18.23a1.59 1.59 0 0 0 .6.63 1.64 1.64 0 0 0 .73.05h.42c.42 0-.36 0-.42-.43v-.48l-.06.08-.05.13-.17.24a1.34 1.34 0 0 0-.35.74 8.78 8.78 0 0 0 .38 1.2v-.46l.26-.25h.48c-.43-.07-.86-.37-1.31-.32a1.64 1.64 0 0 0-.72.44l-.23.18-.1.08-.04-.04c-.12.1 0 .06.32-.12l.36.1.18.18.1.37a5.61 5.61 0 0 1 0-.58 2.14 2.14 0 0 0-.08-.76 1.43 1.43 0 0 0-.62-.57l-.24-.16-.11-.07-.11-.02c-.16-.11-.09 0 .22.43l-.1.37c-.11.23-.45.29-.23.21l.14-.05.27-.09A2.21 2.21 0 0 0 22 9a1.34 1.34 0 0 0 .38-.78l.09-.32v-.22.08l-.24.24h-.12a.73.73 0 0 0-.38-1.4.91.91 0 0 0-.51.39 2 2 0 0 0-.15.43l-.07.37-.08.21s-.08.22 0 0l.26-.26c.17-.1 0 0 0 0l-.18.08-.33.12c-.35.12-.75.26-.85.67a.83.83 0 0 0 .11.67 1.44 1.44 0 0 0 .45.4l.3.2.16.11c.05 0 .22.18.07 0l-.19-.32c-.05-.2 0 0 0 0v.55a2.59 2.59 0 0 0 0 .48.83.83 0 0 0 1.13.54 1.8 1.8 0 0 0 .45-.24l.3-.24.16-.12v-.05c.07 0 .07 0 0 0l-.36.1c-.21 0 0 0 0 0l.19.05.34.11a1.8 1.8 0 0 0 .46.1.82.82 0 0 0 .7-.39 1 1 0 0 0 0-1c0-.12-.08-.23-.13-.35A3 3 0 0 1 23.9 9l-.07.56a4.39 4.39 0 0 1 .42-.61 1.8 1.8 0 0 0 .21-.35.84.84 0 0 0 0-.74 1 1 0 0 0-1-.41h-.61l.32.19c.06.08.07.1 0 0l-.06-.08-.11-.08-.21-.28c-.23-.31-.47-.63-.9-.6a.74.74 0 0 0-.72.73.72.72 0 0 0 .75.72Zm-5.11 3.64-.45-.25.06.08.07.1.18.24c.17.23.32.51.6.62a1.64 1.64 0 0 0 .73 0h.42c.42 0-.36 0-.42-.43v-.47.12l-.09.14-.17.24c-.15.21-.37.45-.35.73a7.27 7.27 0 0 0 .38 1.2v-.47l.26-.26h.48c-.43-.07-.87-.37-1.31-.31a1.71 1.71 0 0 0-.73.43l-.22.18-.11.08-.07.07c-.12.09 0 .05.31-.13l.37.1.18.18.1.37a5.61 5.61 0 0 1 0-.58 2.17 2.17 0 0 0-.08-.76 1.4 1.4 0 0 0-.62-.56l-.24-.17-.09-.11-.09-.07c-.16-.12-.09 0 .21.43l-.09.36c-.11.23-.46.29-.23.21h.13l.28-.1a2.21 2.21 0 0 0 .67-.28 1.34 1.34 0 0 0 .38-.78l.09-.32v-.21.08l-.26.26h-.12a.74.74 0 0 0 .51-.89.74.74 0 0 0-.89-.51.91.91 0 0 0-.51.39 1.69 1.69 0 0 0-.15.43c0 .11-.06.23-.1.34v.19c0 .05-.08.22 0 .05l.26-.26c.17-.1 0 0 0 0l-.17.06-.33.11c-.35.12-.75.26-.85.67a.87.87 0 0 0 .1.67 1.46 1.46 0 0 0 .46.4l.3.2.16.11s.22.18.07 0l-.19-.32c0-.2 0 0 0 0v.55a2 2 0 0 0 0 .48.83.83 0 0 0 1.13.54 1.71 1.71 0 0 0 .43-.29l.3-.24.16-.12h.05c.07-.06.06-.06 0 0l-.36.1c-.22 0 0 0 0 0l.18.06.35.1a1.73 1.73 0 0 0 .45.1.84.84 0 0 0 .71-.39 1 1 0 0 0 0-1c0-.12-.09-.23-.13-.35a1.21 1.21 0 0 1-.11-.32l-.07.56a3.67 3.67 0 0 1 .42-.61 2.5 2.5 0 0 0 .21-.35.82.82 0 0 0 0-.73 1 1 0 0 0-1-.42h-.61l.32.18c.06.08.07.1 0 0l-.07.14-.12-.16-.22-.28c-.22-.31-.46-.63-.89-.59a.72.72 0 1 0 0 1.44Zm14.27 9.77-.45-.25.06.08.08.1.17.24c.18.23.33.51.61.63a1.75 1.75 0 0 0 .72 0h.42c.42 0-.35 0-.42-.43v-.47l-.05.08-.09.14-.17.24a1.26 1.26 0 0 0-.36.74 7.2 7.2 0 0 0 .4 1.22v-.47l.26-.26h.47c-.43-.07-.86-.37-1.3-.31a1.6 1.6 0 0 0-.73.43l-.23.18-.1.09-.08.06c-.12.09 0 .05.32-.13l.36.1.19.18.09.37a5.61 5.61 0 0 1 0-.58 2 2 0 0 0-.08-.76 1.38 1.38 0 0 0-.61-.56l-.25-.17-.1-.07-.08-.05c-.17-.12-.1 0 .21.43l-.1.36c-.11.23-.45.29-.22.21h.13l.27-.1a2.27 2.27 0 0 0 .68-.28 1.4 1.4 0 0 0 .38-.78l.08-.31v-.22.08l-.26.26h-.11a.73.73 0 0 0-.39-1.4.91.91 0 0 0-.51.39 2.16 2.16 0 0 0-.14.43c0 .11-.07.23-.1.34l-.05.19c0 .05-.09.23 0 .05l.26-.26c.17-.1 0 0 0 0l-.17.06-.34.11c-.35.12-.75.26-.84.67a.87.87 0 0 0 .1.67 1.36 1.36 0 0 0 .46.4l.29.2.17.11s.21.18.06 0l-.19-.32c0-.2 0 0 0 0v.55a2.53 2.53 0 0 0 0 .48.81.81 0 0 0 .41.51.85.85 0 0 0 .73 0 1.5 1.5 0 0 0 .42-.29l.31-.24.15-.12L32 24l-.37.1c-.21 0 0 0 0 0l.19.06.34.1a1.46 1.46 0 0 0 .46.1.83.83 0 0 0 .71-.39 1.06 1.06 0 0 0 0-1 4.96 4.96 0 0 1-.13-.35 1.75 1.75 0 0 1-.12-.32L33 23a3.72 3.72 0 0 1 .43-.61 3 3 0 0 0 .2-.34.84.84 0 0 0 0-.74 1 1 0 0 0-.95-.42h-.61l.32.18c.06.08.07.1 0 .05l-.06-.08-.12-.15-.21-.28c-.23-.31-.46-.63-.9-.59a.72.72 0 0 0 0 1.44ZM28.66 8a.84.84 0 0 0-.53.39 2 2 0 0 0-.15.43l-.09.34-.06.19c0 .05-.08.23 0 0l.26-.26c.16-.1 0 0 0 0l-.19.06-.33.12c-.37.12-.74.27-.83.69a.82.82 0 0 0 .16.71 1.8 1.8 0 0 0 .4.33l.33.22.16.11c.05 0 .18.15 0 0l-.19-.32c-.05-.2 0 0 0 0v.56a1 1 0 0 0 .44 1 .82.82 0 0 0 .73 0 2.08 2.08 0 0 0 .43-.3l.3-.24.16-.13c.07-.06.07-.05 0 0l-.37.1c-.22 0 0 0 0 0l.18.06.31.1a1.45 1.45 0 0 0 .49.11.88.88 0 0 0 .6-.25.94.94 0 0 0 .13-1.06c0-.11-.09-.23-.13-.34l-.07-.18c0-.05-.07-.24 0 0l-.1.37a3.9 3.9 0 0 1 .41-.59 1 1 0 0 0 .19-1.09.93.93 0 0 0-.94-.43h-.59s-.25 0 0 0l.32.19c.05.08.06.09 0 0l-.03.11-.06-.1-.21-.29a3.24 3.24 0 0 0-.27-.35.89.89 0 0 0-.67-.26.73.73 0 1 0 0 1.45l-.36-.1-.15-.15.06.07.07.11.18.23c.17.23.33.52.61.63s.9 0 1.34 0l-.37-.1-.23-.3v-.47.08l-.08.11-.17.24a1.68 1.68 0 0 0-.36.67 1.49 1.49 0 0 0 .17.71l.1.27v.21-.06l.1-.37.32-.24h.38c-.42-.07-.85-.38-1.3-.32a1.64 1.64 0 0 0-.72.44l-.23.18-.11.09-.07.06.15-.1h.39l.22.13.19.32v-.4a2.22 2.22 0 0 0-.08-.77c-.11-.27-.38-.41-.61-.57l-.25-.16-.04-.07-.08-.06c-.12-.08-.06 0 .19.27v.39l-.34.36h.21l.28-.09a1.59 1.59 0 0 0 .77-.4 2.06 2.06 0 0 0 .25-.68l.08-.29V9.1v.08l-.26.26H29A.72.72 0 1 0 28.66 8Zm-9.77 14.29a.88.88 0 0 0-.53.39 2.45 2.45 0 0 0-.15.43l-.09.35-.06.19c0 .05-.08.23 0 0l.26-.26c.16-.1 0 0 0 0l-.18.07-.33.11c-.37.13-.74.27-.83.7a.83.83 0 0 0 .16.71 1.52 1.52 0 0 0 .4.32l.33.22.16.11c.05 0 .18.16 0 0l-.19-.32c-.05-.21 0 0 0 0V26a1 1 0 0 0 .43 1 .87.87 0 0 0 .73 0 2.08 2.08 0 0 0 .43-.3l.3-.24.16-.12h.05c.07-.06.07-.05 0 0l-.36.09c-.22 0 0 0 0 0l.18.06.31.09a1.45 1.45 0 0 0 .49.11.86.86 0 0 0 .6-.25.92.92 0 0 0 .12-1.06l-.1-.38-.07-.18c0-.05-.07-.25 0 0l-.1.36a4.6 4.6 0 0 1 .4-.58 1 1 0 0 0 .2-1.1 1 1 0 0 0-.94-.43H20c-.06 0-.26 0 0 0l.32.18c.05.08.06.1 0 .05l-.05-.08-.1-.13-.17-.2c-.09-.12-.17-.25-.27-.36a.84.84 0 0 0-.63-.26.72.72 0 1 0 0 1.44l-.36-.09-.15-.16.06.08.07.1.18.24a1.73 1.73 0 0 0 .6.63c.42.17.91 0 1.35 0l-.37-.1-.25-.32v-.48l-.05.08-.08.11-.17.24a1.75 1.75 0 0 0-.36.67 1.49 1.49 0 0 0 .17.71l.1.28v.21-.07l.1-.36.32-.25h.38c-.43-.07-.86-.37-1.3-.31a1.63 1.63 0 0 0-.73.44l-.23.18-.1.08-.07.06c-.09.07 0 0 .15-.09h.39l.22.13.19.32v-.41a2.22 2.22 0 0 0-.08-.77c-.11-.27-.38-.4-.61-.56l-.25-.16-.11-.08.05-.06c-.12-.09-.06 0 .19.27v.38l-.34.37h.21l.28-.1a1.44 1.44 0 0 0 .76-.4 1.81 1.81 0 0 0 .26-.68l.08-.28v-.22.08l-.26.26h-.1a.73.73 0 0 0-.38-1.4Zm6.37 3.58-.45-.26.05.08.08.1.18.24a1.65 1.65 0 0 0 .6.63 1.63 1.63 0 0 0 .73.05h.42c.42 0-.36 0-.43-.42v-.47l-.06.08-.09.13-.17.24c-.15.22-.37.45-.35.74a6.34 6.34 0 0 0 .38 1.19v-.49l.26-.26H27c-.43-.07-.87-.37-1.31-.31a1.63 1.63 0 0 0-.73.44l-.23.18-.1.08-.07.06c-.13.09 0 .05.31-.12l.37.09.18.19.1.36v-.57a2 2 0 0 0-.07-.77 1.47 1.47 0 0 0-.62-.56l-.24-.16-.11-.08h-.08c-.17-.12-.09 0 .21.43l-.1.36c-.1.23-.45.29-.22.21h.13l.28-.1a2.07 2.07 0 0 0 .67-.28 1.31 1.31 0 0 0 .38-.78l.09-.31v-.22.08l-.26.26h-.12a.73.73 0 1 0-.39-1.4.9.9 0 0 0-.5.4 1.62 1.62 0 0 0-.15.42c0 .12-.07.23-.1.35v.18c0 .05-.09.23 0 .05l.26-.26c.17-.1 0 0 0 0l-.17.06-.33.11c-.36.12-.75.26-.85.68a.88.88 0 0 0 .1.67 1.57 1.57 0 0 0 .46.39l.3.2.16.11s.22.18.06 0l-.18-.32c-.05-.21 0 0 0 0v.55a1.87 1.87 0 0 0 0 .47.8.8 0 0 0 .41.52.86.86 0 0 0 .72 0 2.08 2.08 0 0 0 .43-.3l.3-.24.15-.12h.05c.08-.06.07-.05 0 0l-.36.09c-.22 0 0 0 0 0l.19.06.35.1a1.74 1.74 0 0 0 .45.11.85.85 0 0 0 .71-.4 1 1 0 0 0 0-1l-.13-.34a1.52 1.52 0 0 1-.11-.32l-.07.55a3.91 3.91 0 0 1 .42-.61 2.39 2.39 0 0 0 .21-.34.87.87 0 0 0 0-.74 1 1 0 0 0-1-.41h-.61l.32.18c.06.09.07.1 0 .05l-.06-.08-.11-.15-.24-.2c-.23-.3-.46-.62-.89-.59a.73.73 0 1 0 0 1.45Zm-10.58-7.24-.45-.26.06.08.08.11.17.23a1.73 1.73 0 0 0 .6.63 1.64 1.64 0 0 0 .73 0h.42c.42 0-.35.05-.42-.42v-.47l-.05.08-.1.13-.17.24a1.31 1.31 0 0 0-.35.74 8.78 8.78 0 0 0 .38 1.2v-.48l.26-.26h.48c-.43-.07-.86-.37-1.31-.31a1.55 1.55 0 0 0-.72.44l-.23.18-.1.08-.08.06c-.12.09 0 .05.32-.12l.36.1.18.18.1.36a5.42 5.42 0 0 1 0-.57 2.14 2.14 0 0 0-.08-.76c-.11-.28-.38-.41-.61-.57l-.15-.17-.14-.08h-.08c-.16-.12-.09 0 .22.43l-.1.37a.49.49 0 1 0-.23.21l.14-.05.27-.09a2.23 2.23 0 0 0 .67-.29 1.31 1.31 0 0 0 .38-.78l.09-.31v-.22.08l-.26.26h-.12a.74.74 0 0 0 .51-.89.73.73 0 0 0-.89-.5.87.87 0 0 0-.51.39 2.1 2.1 0 0 0-.15.42l-.09.35-.06.18c0 .05-.08.23 0 .05l.26-.26c.17-.1 0 0 0 0l-.17.06-.33.11c-.35.12-.75.26-.85.68a.84.84 0 0 0 .11.67 1.72 1.72 0 0 0 .45.4l.3.19.16.11c.05 0 .22.18.07 0l-.19-.32c-.05-.2 0 0 0 0v.55a2.42 2.42 0 0 0 0 .47.83.83 0 0 0 .41.52.89.89 0 0 0 .73 0 2 2 0 0 0 .42-.3l.31-.24.15-.12h.05c.07-.06.07-.05 0 0l-.36.1c-.21 0 0 0 0 0l.19.06.34.11a2.36 2.36 0 0 0 .46.1.83.83 0 0 0 .7-.4 1 1 0 0 0 0-1c0-.11-.08-.23-.13-.34s-.09-.22-.11-.32l-.07.55a6 6 0 0 1 .45-.49 1.48 1.48 0 0 0 .21-.34.84.84 0 0 0 0-.74.94.94 0 0 0-.95-.41h-.62l.32.19c.06.08.07.09 0 0l-.06-.07-.12-.16-.21-.29c-.23-.3-.47-.62-.9-.59a.73.73 0 0 0 0 1.45Zm17.46-3.27-.45-.26.06.08.08.1.17.24c.18.23.33.51.61.63a1.58 1.58 0 0 0 .72.05h.42c.42 0-.35.05-.42-.42v-.47.08l-.1.13-.16.24a1.26 1.26 0 0 0-.36.74 7.2 7.2 0 0 0 .39 1.19v-.47l.26-.26h.47c-.43-.07-.86-.37-1.3-.31a1.53 1.53 0 0 0-.73.44l-.23.18-.1.08-.08.06c-.12.09 0 0 .32-.12l.36.1.18.18.1.36a5.42 5.42 0 0 1 0-.57 2 2 0 0 0-.08-.77c-.11-.27-.38-.4-.61-.56l-.25-.16-.1-.08-.09-.05c-.16-.12-.09 0 .22.43l-.1.37a.49.49 0 1 0-.23.21l.14-.05.27-.1a2 2 0 0 0 .68-.28 1.37 1.37 0 0 0 .38-.78l.08-.31v-.22.08l-.26.26h-.11a.73.73 0 0 0-.39-1.4.93.93 0 0 0-.51.4 2.1 2.1 0 0 0-.15.42l-.09.35-.05.18c0 .05-.09.23 0 .05l.26-.26c.17-.1 0 0 0 0l-.16.06-.34.11c-.35.12-.75.26-.84.68a.88.88 0 0 0 .1.67 1.53 1.53 0 0 0 .45.39l.3.2.17.11s.21.18.06 0l-.17-.31c-.05-.21 0 0 0 0v.55a2.42 2.42 0 0 0 0 .47.83.83 0 0 0 .41.52.89.89 0 0 0 .73 0 1.79 1.79 0 0 0 .42-.3l.31-.24h.25c.07-.06.07-.05 0 0l-.37.1c-.21 0 0 0 0 0l.19.06.34.1a1.82 1.82 0 0 0 .46.11.86.86 0 0 0 .71-.4 1 1 0 0 0 0-1l-.12-.34a2.56 2.56 0 0 1-.12-.32l-.07.55a4.83 4.83 0 0 1 .43-.61 2.33 2.33 0 0 0 .2-.34.84.84 0 0 0 0-.74.93.93 0 0 0-1-.41h-.61l.32.18c.06.09.07.1 0 0l-.06-.08-.12-.15-.23-.21c-.23-.3-.47-.62-.9-.59a.73.73 0 0 0 0 1.45ZM5.69 42.88h11.45a.73.73 0 0 0 0-1.45H5.69a.73.73 0 0 0 0 1.45Zm0 2.34h21.73a.72.72 0 0 0 0-1.44H5.69a.72.72 0 0 0 0 1.44Z" class="cls-1"/>
  <path d="m12.13 41.7-6-31.94-.84-4.5c-.17-.92-1.57-.53-1.4.38l6 31.94.85 4.5c.17.92 1.56.53 1.39-.38Z" class="cls-1"/>
  <path d="m40.65 26.85-27.13 5.08-3.88.72c-.91.18-.52 1.57.39 1.4L37.16 29l3.84-.76c.91-.17.52-1.56-.39-1.39Z" class="cls-1"/>
  <path d="m5.33 9 27.13-5.1 3.88-.72-.89-.51L40 27.11a1.68 1.68 0 0 0 .1.55c.19.22-.06-.52.08-.46s-.25.47-.26.5L38.24 31c-.43.83.82 1.56 1.25.73l1.53-3a2.48 2.48 0 0 0 .49-1.57c-.18-1.51-.56-3-.84-4.52l-3-16.11-.8-4.29a.74.74 0 0 0-.89-.5L8.82 6.86 5 7.59c-1 .17-.58 1.56.33 1.41Z" class="cls-1"/>
  <path d="m37 6.51 2.28-.43-.89-.5 4.11 21.94.58 3.12.51-.89-4.89.92.9.5-.63-3.33c-.18-.91-1.57-.53-1.4.38l.63 3.34a.74.74 0 0 0 .89.5l4.88-.91a.74.74 0 0 0 .51-.89L40.34 8.32l-.59-3.13a.72.72 0 0 0-.89-.5l-2.28.42c-.91.17-.53 1.57.39 1.4ZM6.9 2.93A2.72 2.72 0 1 0 5.19 6a2.74 2.74 0 0 0 1.42-1.2 2.91 2.91 0 0 0 .29-1.9.73.73 0 0 0-.9-.47.74.74 0 0 0-.51.89c0 .18 0-.16 0 0a.45.45 0 0 1 0 .11 1.24 1.24 0 0 0 0 .27v-.07a.43.43 0 0 0 0 .11v.1a.88.88 0 0 1 0 .15c0 .14.07-.12 0 0a1.71 1.71 0 0 1-.13.23s0 .07-.06.08c.14-.11 0 0 0 0l-.3.21c-.11.09 0 0 0 0l-.15.1-.12.06c-.15.09.1 0 0 0l-.26.08h-.14c.16 0 .06 0 0 0h-.26c-.18 0 .15 0 0 0h-.1a.57.57 0 0 1-.25-.08c.13.1 0 0 0 0l-.12-.06-.11-.07c-.15-.1.06.07 0 0l-.23-.24-.07-.08c.1.16 0 0 0 0L3.06 4s0 .16 0 0L3 3.8v-.13c0-.15 0 0 0 0a.61.61 0 0 1 0-.27.45.45 0 0 1 0-.16c-.06.14 0 .09 0 0s0-.2.08-.3-.06.08 0 0l.06-.11a.64.64 0 0 1 .14-.22c-.12.11 0 0 0 0l.09-.09.08-.07.08-.07c-.08.06-.09.07 0 0l.23-.13s.1-.07 0 0h.13l.27-.06c.1 0-.18 0 0 0h.33c.17 0-.15 0 0 0l.31.08.18.09.02.1.08.06L5 2.47c.07 0 .17.16.22.22 0 .06 0 0 0 0a.67.67 0 0 1 .09.14l.08.17c.09.17 0-.09 0 0a1.92 1.92 0 0 1 .09.32.73.73 0 0 0 .89.5.74.74 0 0 0 .53-.89Z" class="cls-1"/>
</svg>
