<svg xmlns="http://www.w3.org/2000/svg" viewBox="0 0 46 46" fill="#fff">
  <path d="M21 19.36V23a.73.73 0 0 0 .73.72h2.18a.73.73 0 0 0 .72-.72v-3.6a.73.73 0 1 0-1.45 0V23l.73-.73h-2.2l.72.73v-3.6a.73.73 0 1 0-1.45 0Zm1.43-2.18v-3.6l-.72.72h2.18l-.73-.72v3.6a.73.73 0 0 0 1.45 0v-3.6a.73.73 0 0 0-.72-.73h-2.18a.74.74 0 0 0-.73.73v3.6a.73.73 0 0 0 1.45 0Z" class="cls-1"/>
  <path d="M21.71 16.45h-3.6a.73.73 0 0 0-.73.73v2.18a.73.73 0 0 0 .73.72h3.6a.72.72 0 0 0 .72-.72.74.74 0 0 0-.72-.73h-3.6l.72.73v-2.18l-.72.72h3.6a.72.72 0 0 0 .72-.72.74.74 0 0 0-.72-.73Zm2.18 1.45h3.6l-.73-.72v2.18l.73-.73h-3.6a.75.75 0 0 0-.73.73.74.74 0 0 0 .73.72h3.6a.73.73 0 0 0 .72-.72v-2.18a.73.73 0 0 0-.72-.73h-3.6a.75.75 0 0 0-.73.73.74.74 0 0 0 .73.72ZM9.35 24.81c-.93 0-1.88.05-2.82 0a4.59 4.59 0 0 1-3.72-2.31c-1.2-2.09-.9-4.69-.9-7v-2.97a.73.73 0 0 0-1.45 0v6c0 3.26 1.48 6.75 5 7.52a18.43 18.43 0 0 0 3.93.17.73.73 0 0 0 0-1.45Zm34.74-12.32v5.81c0 2.73-1 5.78-4 6.41a17.57 17.57 0 0 1-3.48.1.73.73 0 0 0 0 1.45 27.25 27.25 0 0 0 3.26-.06 6 6 0 0 0 4.26-2.57c1.61-2.32 1.39-5.2 1.39-7.88v-3.26a.73.73 0 0 0-1.45 0ZM15 21.21V10.63a.73.73 0 0 0-1.45 0v10.58a.73.73 0 0 0 1.45 0Zm-3.77 0V10.63a.73.73 0 0 0-1.45 0v10.58a.73.73 0 0 0 1.45 0ZM15 40.37v-10.1a.73.73 0 0 0-1.45 0v10.1a.73.73 0 0 0 1.45 0Zm-3.77 0v-10.1a.73.73 0 0 0-1.45 0v10.1a.73.73 0 0 0 1.45 0Z" class="cls-1"/>
  <path d="M14.62 29.25h-3.71a4 4 0 0 1-.77 0c-.06 0 0 0 0-.05a2.43 2.43 0 0 1 0-.27v-4.5a20.92 20.92 0 0 1 0-2.24v-.06a.88.88 0 0 1 .23 0h1.33c.93 0 1.89.07 2.82 0h.07c.02 0 0 0 0 0a.43.43 0 0 1 0 .16v6.94a.73.73 0 0 0 1.45 0v-6c0-1 .11-2.28-1.17-2.55a5.57 5.57 0 0 0-1.08 0H12c-1 0-2.51-.28-3.11.7a2.12 2.12 0 0 0-.22 1.16v5.17c0 .81-.19 2 .47 2.59a2.15 2.15 0 0 0 1.59.39h3.69a1.54 1.54 0 0 0 1.64-1.47c.07-.9-1.37-.9-1.44.03Z" class="cls-1"/>
  <path d="M13.09 29.53V27a.73.73 0 0 0-.73-.72.74.74 0 0 0-.72.72v2.51a.73.73 0 1 0 1.45 0Zm23.13-8.32V10.63a.73.73 0 0 0-1.45 0v10.58a.73.73 0 0 0 1.45 0Zm-3.72 0V10.63a.73.73 0 0 0-1.45 0v10.58a.73.73 0 0 0 1.45 0Zm3.72 19.16v-10.1a.73.73 0 0 0-1.45 0v10.1a.73.73 0 0 0 1.45 0Zm-3.72 0v-10.1a.73.73 0 0 0-1.45 0v10.1a.73.73 0 0 0 1.45 0Z" class="cls-1"/>
  <path d="M35.89 29.25h-3.71a4 4 0 0 1-.77 0c-.06 0 0 0 0-.05a2.43 2.43 0 0 1 0-.27v-4.5c0-.73-.07-1.51 0-2.24v-.06a.89.89 0 0 1 .23 0H33c.93 0 1.89.07 2.82 0h.07c.02 0 0 0 0 0a.43.43 0 0 1 0 .16v6.94a.73.73 0 0 0 1.45 0v-6c0-1 .11-2.28-1.17-2.55a5.57 5.57 0 0 0-1.08 0h-1.83c-1 0-2.51-.28-3.11.7a2.12 2.12 0 0 0-.22 1.16v5.17c0 .81-.19 2 .47 2.59a2.16 2.16 0 0 0 1.6.39h3.68a1.54 1.54 0 0 0 1.64-1.47c.09-.9-1.32-.9-1.43.03Z" class="cls-1"/>
  <path d="M34.36 29.53V27a.72.72 0 0 0-.72-.72.74.74 0 0 0-.73.72v2.51a.75.75 0 0 0 .73.73.74.74 0 0 0 .72-.73Zm-19.04-3.27h15.36a.73.73 0 0 0 0-1.45H15.32a.73.73 0 0 0 0 1.45Z" class="cls-1"/>
  <path d="M44.87 40H1.13l.73.72V10.51l-.73.72h43.74l-.73-.72V40.7a.73.73 0 0 0 1.45 0V10.51a.73.73 0 0 0-.72-.73H1.13a.73.73 0 0 0-.72.73V40.7a.73.73 0 0 0 .72.72h43.74a.72.72 0 0 0 0-1.42ZM17.86 8.31v-3l-.72.69h11.72l-.72-.72v3a.73.73 0 0 0 1.45 0v-3a.74.74 0 0 0-.73-.72H17.14a.74.74 0 0 0-.73.72v3a.73.73 0 0 0 1.45 0Z" class="cls-1"/>
</svg>
