<svg xmlns="http://www.w3.org/2000/svg" fill="none" viewBox="0 0 46 44">
  <path fill="#fff" fill-rule="evenodd" d="M.69 43.16h42.45c.57 0 1.15.02 1.72 0h.08c.91 0 .92-1.42 0-1.42H2.49c-.58 0-1.15-.02-1.73 0H.7c-.92 0-.92 1.42 0 1.42m25.38-2.82v-2.12c0-.02 0-.05.02-.07l.06-.1c.02-.03.03-.04.08-.07.1-.06.07-.04.17-.05h14.97c.18 0 .2 0 .3.05.08.05.03 0 .09.08-.05-.06.05.08.06.1-.04-.08.01.11 0 .02v2.17c0 .91 1.43.91 1.43 0 0-.7.03-1.4 0-2.09a1.79 1.79 0 0 0-1.67-1.75H26.84c-.62 0-1.23.04-1.7.54-.41.44-.49.97-.49 1.55v1.74c0 .92 1.43.92 1.43 0" clip-rule="evenodd"/>
  <path fill="#fff" fill-rule="evenodd" d="M42.05 34.62a1.8 1.8 0 0 0-1.83-1.76h-12.4c-.67 0-1.3.22-1.67.8-.42.64-.29 1.55-.29 2.27 0 .44.05.86.3 1.23.34.5.88.75 1.47.77h12.26c.4 0 .77 0 1.15-.17.62-.28.98-.9 1-1.58.02-.26 0-.52 0-.78v-.78c0-.92-1.42-.93-1.42 0v1.55c0 .2-.14.33-.33.34H27.58c-.11-.02.1.05-.08-.03l-.11-.06c.03.02-.03-.03-.05-.08-.05-.08-.04-.06-.05-.16v-1.55c0-.11.03-.2.13-.27l.11-.06c.12-.03-.14 0 .1-.01h.04c2.18-.03 4.35 0 6.52 0 2.03 0 4.07-.03 6.1 0 .19 0 .32.14.33.33.01.38.32.7.71.7.38 0 .73-.32.72-.7m-1.37-19.55c.08.1.07.2-.02.3l-.18.18-.86.87-2.91 2.9c-1.52 1.52-3.08 3-4.56 4.56-.09.1-.2.08-.32-.04-.19-.17-.36-.36-.55-.54l-1.38-1.39a4.7 4.7 0 0 0-.08-.07.22.22 0 0 1-.02-.28l.1-.1.71-.7 5.92-5.93c.6-.6 1.17-1.2 1.77-1.77a.92.92 0 0 0 .04-.04l.05-.04c-.06.06.12-.03.01-.02.04 0 .22.03.13 0 .09.03.06.03.12.09l.2.19 1.49 1.5.34.33c.65.65 1.66-.36 1-1-.4-.42-.82-.83-1.23-1.24-.49-.5-.99-1.16-1.72-1.27-.65-.1-1.15.2-1.59.64l-.92.92-6.27 6.28c-.65.64-1.69 1.39-1.61 2.4.06.8.72 1.3 1.24 1.82.43.42.84.86 1.28 1.27.7.66 1.7.6 2.37-.07l.74-.74 3-2.99 3.26-3.26 1.09-1.1c.21-.2.44-.41.6-.67.41-.64.26-1.45-.23-2-.26-.28-.75-.26-1.01 0a.73.73 0 0 0 0 1.01M29.56 3.95c.08.1.07.2-.02.3l-.17.19-.86.85-2.9 2.9c-1.52 1.52-3.1 3-4.57 4.57-.09.1-.2.08-.31-.02l-.52-.52-1.4-1.4-.1-.1c-.05-.05-.1-.19-.04-.25l.1-.12c.25-.22.47-.46.7-.7l5.94-5.93c.6-.6 1.17-1.2 1.78-1.78a.85.85 0 0 0 .03-.03l.06-.04c-.07.05.12-.04.01-.02.03 0 .21.02.12 0 .1.02.07.02.13.08l.19.2 1.5 1.49.33.33c.65.65 1.66-.35 1.01-1-.4-.42-.82-.83-1.23-1.24-.5-.49-1-1.16-1.72-1.27-.65-.1-1.16.2-1.6.64a27115.56 27115.56 0 0 0-7.2 7.22l-.94.93c-.43.44-.74.94-.64 1.6.11.72.78 1.22 1.27 1.71.41.41.81.84 1.23 1.23.71.67 1.71.6 2.38-.07l.76-.76 2.99-2.99 3.25-3.25 1.09-1.09c.2-.2.44-.41.6-.67.4-.64.26-1.45-.24-2-.26-.28-.74-.26-1 0a.73.73 0 0 0 0 1.01" clip-rule="evenodd"/>
  <path fill="#fff" fill-rule="evenodd" d="m30.81 19.88-2.75-2.75-4.36-4.35-1-1c-.65-.65-1.66.36-1 1a71165.22 71165.22 0 0 0 7.1 7.1l1 1c.65.66 1.66-.35 1.01-1M37.68 13l-2.75-2.75-4.35-4.35-1-1c-.65-.65-1.66.36-1.01 1l2.74 2.76L35.67 13l1 1c.65.66 1.66-.35 1-1" clip-rule="evenodd"/>
  <path fill="#fff" fill-rule="evenodd" d="m10.61 35.56 1.74-1.73 4.17-4.17 5.01-5.02 4.36-4.36c.7-.7 1.44-1.4 2.12-2.12l.03-.03a.73.73 0 0 0 0-1.01l-2.58-2.58a.72.72 0 0 0-1 0l-1.74 1.74-4.17 4.16-5.01 5.02-4.36 4.37c-.7.7-1.44 1.39-2.12 2.12l-.03.03a.73.73 0 0 0 0 1l2.57 2.58c.65.65 1.66-.35 1.01-1l-2.57-2.58v1l1.73-1.73 4.17-4.17 5.02-5.02 4.35-4.36 1.44-1.43c.22-.23.48-.45.68-.69l.03-.03h-1l2.57 2.58v-1.01l-1.73 1.73-4.17 4.17-5.02 5.02-4.36 4.36c-.7.7-1.44 1.4-2.12 2.12l-.03.03c-.65.65.36 1.67 1.01 1.01" clip-rule="evenodd"/>
  <path fill="#fff" fill-rule="evenodd" d="m10.25 35.2-2.69 2.68h1.01L5.2 34.5l-.48-.48v1.01l2.69-2.68H6.4l3.37 3.37.48.48c.65.65 1.66-.36 1.01-1l-3.37-3.38-.48-.48a.72.72 0 0 0-1.01 0l-2.7 2.68a.73.73 0 0 0 0 1.01l3.38 3.38.48.48c.28.27.74.27 1.01 0l2.69-2.69c.65-.65-.36-1.66-1.01-1m14.17-14.58-2.15-2.15-.3-.3c-.27-.27-.75-.3-1.02 0a.73.73 0 0 0 0 1l2.15 2.15.31.3c.26.27.75.29 1.01 0a.73.73 0 0 0 0-1m-2.58 2.58-2.15-2.15-.3-.31c-.27-.26-.75-.28-1.01 0a.73.73 0 0 0 0 1.01l2.15 2.15.3.3c.27.27.75.29 1.01 0a.73.73 0 0 0 0-1m9.91-8.97-2.98-2.98-.42-.42c-.27-.26-.75-.28-1.01 0a.73.73 0 0 0 0 1l2.98 2.99.42.42c.26.27.75.29 1 0a.73.73 0 0 0 0-1m9.42 12.88h3.95c.37 0 .73-.32.71-.7a.73.73 0 0 0-.71-.72h-3.96c-.37 0-.72.33-.7.71.01.39.3.71.7.71m-.23-3.04 2.93-1.86.4-.26c.32-.2.48-.65.26-.98-.2-.31-.64-.47-.97-.25l-2.93 1.86-.41.26c-.32.2-.47.64-.26.97.2.32.64.48.98.26m-.72 5.9 2.93 1.85.41.26c.32.2.8.08.98-.25a.73.73 0 0 0-.26-.98L41.34 29l-.41-.26a.72.72 0 0 0-.98.26.73.73 0 0 0 .26.98M27.36 25.7H23.4c-.36 0-.72.33-.7.71.01.39.3.71.7.71h3.96c.37 0 .73-.32.71-.7a.73.73 0 0 0-.71-.72m.24 3.04-2.93 1.86-.41.26c-.32.2-.48.65-.26.98.2.32.64.47.98.26l2.92-1.86.41-.26c.32-.2.48-.65.26-.98-.2-.32-.64-.47-.98-.26" clip-rule="evenodd"/>
</svg>
