<svg xmlns="http://www.w3.org/2000/svg" viewBox="0 0 46 46" fill="#ffffff">
  <path d="M34.09 13.67V11.2a1.48 1.48 0 0 1 0-.21v-.06a2.25 2.25 0 0 1 0-.22s.07-.18 0-.11a1.38 1.38 0 0 1 .07-.14l.09-.16.06-.08c.06-.08-.07.08 0 0l.26-.26c.09-.09 0 0 0 0l.08-.05.18-.11.17-.09h.06l.18-.05h.09c.11 0-.1 0 0 0a3.12 3.12 0 0 1 .43 0h.06l.22.06h.12l.11.05.16.09s.17.14.07 0l.27.26c.09.1 0-.06 0 .05a1.74 1.74 0 0 0 .11.18 1.74 1.74 0 0 1 .1.19c-.05-.11 0 0 0 .06a1.33 1.33 0 0 1 0 .19.29.29 0 0 1 0 .09c0 .1 0-.11 0 0v2.68l.72-.73h-4.34a.73.73 0 0 0 0 1.45h4.56a.74.74 0 0 0 .73-.72v-1.84a6.89 6.89 0 0 0 0-.79A3 3 0 0 0 34 8.7a3 3 0 0 0-1.21 1.66 3.75 3.75 0 0 0-.12 1.11v2.2a.72.72 0 0 0 .72.72.74.74 0 0 0 .7-.72Z" class="cls-1"/>
  <path d="M28 9.65h7.4l-.19-1.42a3 3 0 0 0-2.37 1.94 4.13 4.13 0 0 0-.18 1.48v5.09a.73.73 0 0 0 1.45 0V11.2a1.61 1.61 0 0 1 1.48-1.58c.82-.11.6-1.42-.19-1.42H28a.73.73 0 0 0 0 1.45ZM12.87 35.61v-2a.73.73 0 0 0-1.45 0v2a.73.73 0 0 0 1.45 0Zm19.77-1.7v2.76l.72-.73a.75.75 0 0 0-.73.73c0 1.9-1.28 1.92-2.65 1.92H10.13a.73.73 0 0 0 0 1.45h20.51a3.16 3.16 0 0 0 3.44-3.37l-.72.72a.74.74 0 0 0 .73-.72v-2.76a.73.73 0 0 0-1.45 0Z" class="cls-1"/>
  <path d="M28.43 35.9c0 1.88.38 3.71 2.55 4.11l.19-1.42H11.26a10.1 10.1 0 0 1-1.23 0c-1.41-.2-1.36-1.59-1.36-2.69l-.67.73h21.16a.73.73 0 0 0 0-1.45H8a.73.73 0 0 0-.73.72 4.61 4.61 0 0 0 .59 2.92A3 3 0 0 0 10.1 40c1.23.07 2.48 0 3.71 0h17.36c.79 0 1-1.27.19-1.43-1.52-.28-1.48-1.48-1.48-2.71a.73.73 0 0 0-1.45.04Zm5.66-24.71v-.45c0-.06.1-.25 0-.12 0-.09.09-.18.14-.27s.16-.21.07-.1l.16-.18.12-.11.26-.16.11-.05c.1-.05-.11 0 0 0l.27-.08h.13c-.14 0 0 0 0 0h.45c-.14 0 0 0 0 0l.28.08h.14l.24.14s.13.11 0 0l.1.09.17.17a.86.86 0 0 1 .07.1l.15.27c.05.09 0-.09 0 0a.49.49 0 0 1 0 .11c0 .1.05.19.07.28v2.68a.72.72 0 0 0 .72.72.75.75 0 0 0 .73-.72v-2.55a3 3 0 0 0-6 .07.72.72 0 0 0 .72.72.74.74 0 0 0 .73-.72Z" class="cls-1"/>
  <path d="M28.43 35.2v1.59a3.94 3.94 0 0 0 .09 1 3.12 3.12 0 0 0 .92 1.51 2.88 2.88 0 0 0 1.86.7.75.75 0 0 0 .73-.73.73.73 0 0 0-.73-.72h-.08a.79.79 0 0 1-.22-.05s-.26-.1-.09 0l-.2-.1-.15-.09c-.06 0-.06 0 0 0l-.09-.07-.16-.16-.07-.08a2.46 2.46 0 0 1-.22-.34l-.02-.08c0-.08 0-.15-.07-.23s0-.28 0-.09V35.2a.73.73 0 0 0-.72-.72.74.74 0 0 0-.73.72Zm-3.59-4.07-.09.2.51-.5a9.32 9.32 0 0 1-2.8.06H10.21a9.32 9.32 0 0 1-2.8-.06l.51.51a5.88 5.88 0 0 1-.06-1.79V9.31c0-.46-.25-1.64.28-1.9a2.57 2.57 0 0 1 .83 0h13.41a9.51 9.51 0 0 1 2.88.06L24.75 7a7.66 7.66 0 0 1 .06 2.4v22a.73.73 0 0 0 1.45 0V7.78c0-.83 0-1.66-1-1.82a23.72 23.72 0 0 0-3 0H10.35a8.89 8.89 0 0 0-2.82.12c-1.17.42-1.12 1.57-1.12 2.57v21.29c0 .72-.2 1.82.53 2.25s1.93.15 2.65.15h11.89c1.18 0 2.42.1 3.6 0a1.18 1.18 0 0 0 1.16-.83c.35-.86-1.05-1.23-1.4-.38Z" class="cls-1"/>
  <path d="M24.81 10v16.16a7.78 7.78 0 0 1-.06 2.37l.51-.5a5.69 5.69 0 0 1-1.76.06H9.67A7.37 7.37 0 0 1 7.41 28l.51.5a6.09 6.09 0 0 1-.06-1.87V10a.73.73 0 0 0-1.45 0v18c0 .65 0 1.35.82 1.53a5.81 5.81 0 0 0 1.25 0h14.46c1.06 0 3.14.42 3.32-1.06a38.54 38.54 0 0 0 0-4.56V10a.73.73 0 0 0-1.45 0Z" class="cls-1"/>
  <path d="M10.74 13.64v-3.2l-.73.72h12.65l-.72-.72v3.2l.72-.72H10a.73.73 0 0 0 0 1.45h12.66a.74.74 0 0 0 .73-.73v-3.2a.75.75 0 0 0-.73-.73H10a.74.74 0 0 0-.72.73v3.2a.73.73 0 0 0 1.46 0Zm-.74 4h1.7a.75.75 0 0 0 .51-.21.72.72 0 0 0-.51-1.23H10a.75.75 0 0 0-.51.21.69.69 0 0 0-.21.51.73.73 0 0 0 .72.72Zm3.51 0h1.7a.75.75 0 0 0 .51-.21.69.69 0 0 0 .21-.51.73.73 0 0 0-.72-.72h-1.7a.75.75 0 0 0-.51.21.72.72 0 0 0 .51 1.23Zm3.95 0h1.7a.75.75 0 0 0 .51-.21.69.69 0 0 0 .21-.51.74.74 0 0 0-.72-.72h-1.7a.75.75 0 0 0-.51.21.72.72 0 0 0 .51 1.23Zm3.54 0h1.69a.74.74 0 0 0 .51-.21.71.71 0 0 0-.51-1.23H21a.74.74 0 0 0-.51.21.71.71 0 0 0 .51 1.23Zm-11 2.87h1.7a.72.72 0 0 0 .51-.22.72.72 0 0 0-.51-1.23H10a.75.75 0 0 0-.51.21.71.71 0 0 0-.21.51.73.73 0 0 0 .72.73Zm3.51 0h1.7a.72.72 0 0 0 .51-.22.69.69 0 0 0 .21-.51.73.73 0 0 0-.72-.72h-1.7a.72.72 0 0 0-.72.72.74.74 0 0 0 .72.73Zm3.95 0h1.7a.72.72 0 0 0 .51-.22.69.69 0 0 0 .21-.51.74.74 0 0 0-.72-.72h-1.7a.72.72 0 0 0-.72.72.74.74 0 0 0 .72.73Zm3.54 0h1.69a.7.7 0 0 0 .51-.22.71.71 0 0 0-.51-1.23H21a.74.74 0 0 0-.51.21.76.76 0 0 0-.22.51.74.74 0 0 0 .73.73Zm-11 2.86h1.7a.72.72 0 0 0 .72-.72.74.74 0 0 0-.72-.73H10a.75.75 0 0 0-.51.21.73.73 0 0 0 .51 1.24Zm3.51 0h1.7a.75.75 0 0 0 .51-.21.71.71 0 0 0 .21-.51.73.73 0 0 0-.72-.73h-1.7a.75.75 0 0 0-.51.21.78.78 0 0 0-.21.52.74.74 0 0 0 .72.72Zm3.95 0h1.7a.75.75 0 0 0 .51-.21.71.71 0 0 0 .21-.51.74.74 0 0 0-.72-.73h-1.7a.75.75 0 0 0-.51.21.78.78 0 0 0-.21.52.74.74 0 0 0 .72.72Zm3.54 0h1.69a.74.74 0 0 0 .51-.21.76.76 0 0 0 .22-.51.74.74 0 0 0-.73-.73H21a.74.74 0 0 0-.51.21.79.79 0 0 0-.22.52.74.74 0 0 0 .73.72Zm-11 2.86h1.7a.75.75 0 0 0 .51-.21.72.72 0 0 0-.51-1.23H10a.75.75 0 0 0-.5.21.69.69 0 0 0-.21.51.73.73 0 0 0 .72.72Zm3.51 0h1.7a.75.75 0 0 0 .51-.21.69.69 0 0 0 .21-.51.73.73 0 0 0-.72-.72h-1.7A.75.75 0 0 0 13 25a.72.72 0 0 0 .51 1.23Zm3.95 0h1.7a.75.75 0 0 0 .51-.21.69.69 0 0 0 .21-.51.74.74 0 0 0-.72-.72h-1.7A.75.75 0 0 0 17 25a.72.72 0 0 0 .51 1.23Zm3.54 0h1.69a.74.74 0 0 0 .51-.21.71.71 0 0 0-.51-1.23H21a.74.74 0 0 0-.51.21.71.71 0 0 0 .51 1.23Zm17.14-2.02a4.82 4.82 0 1 1-4-4.74 4.87 4.87 0 0 1 4 4.74.73.73 0 0 0 1.45 0 6.27 6.27 0 1 0-5.09 6.16 6.36 6.36 0 0 0 5.09-6.16.73.73 0 0 0-1.45 0Z" class="cls-1"/>
  <path d="M27.05 24.21a20.86 20.86 0 0 0 .09 3.26 6.26 6.26 0 0 0 3.1 4.43 6.34 6.34 0 0 0 9.12-3.77 14.68 14.68 0 0 0 .23-3.92.73.73 0 0 0-1.45 0v2.54a4.83 4.83 0 0 1-2.27 3.79 4.88 4.88 0 0 1-7.29-3.23 16.87 16.87 0 0 1-.07-3.1.73.73 0 0 0-1.45 0Z" />
  <path d="M34 26.44v-5.11a.73.73 0 0 0-1.23-.52L31 22.64a.73.73 0 0 0 0 1 .72.72 0 0 0 1 0l1.76-1.82-1.23-.51v5.11a.72.72 0 1 0 1.44 0Z" />
  <path d="M32.1 27.15h2.39a.73.73 0 0 0 0-1.45H32.1a.72.72 0 0 0-.72.72.74.74 0 0 0 .72.73Z" class="cls-1"/>
</svg>
