<svg xmlns="http://www.w3.org/2000/svg" viewBox="0 0 46 46" fill="#fff">
  <path d="M1.86 18.34v-7c0-1.13-.09-2.29 0-3.41a1.27 1.27 0 0 1 1.33-1.3c1.39-.1 2.83 0 4.22 0h33.35c1.08 0 3.19-.4 3.38 1.09a33.8 33.8 0 0 1 0 4.15v17.89a37.53 37.53 0 0 1 0 4.5c-.14 1.48-2.07 1.12-3.14 1.12H15.78c-4.14 0-8.35.2-12.49 0-.73 0-1.33-.27-1.43-1.15a24.29 24.29 0 0 1 0-2.56V20.92a.73.73 0 0 0-1.45 0v11.51a11.15 11.15 0 0 0 .06 2.38c.44 2 2.35 2 4 2h26.21c4.09 0 8.22.18 12.3 0 2.23-.11 2.61-1.89 2.61-3.68V8.46c0-1.78-.75-3.23-2.76-3.28H4.06c-1.75 0-3.54.38-3.65 2.57-.13 2.7 0 5.43 0 8.13v2.46a.73.73 0 0 0 1.45 0Z" class="cls-1"/>
  <path d="M44.87 31.92H1.13a.73.73 0 0 0 0 1.45h43.74a.73.73 0 0 0 0-1.45ZM20.34 36.1v4l.73-.72h-6.35a.73.73 0 0 0 0 1.45h6.35a.73.73 0 0 0 .72-.73v-4a.73.73 0 0 0-1.45 0Zm4.15 0v4a.74.74 0 0 0 .73.73h6.34a.73.73 0 0 0 0-1.45h-6.34l.72.72v-4a.73.73 0 0 0-1.45 0Zm2.72-9.87c0-.16.1 0 0-.07s-.19 0-.24 0h-8.23c.05 0 0 .12.06 0a2.53 2.53 0 0 0 0-.55v-.76a2 2 0 0 0 0-.6c0-.14.06 0-.06 0h8.53c-.09 0 0-.13-.06 0a2.36 2.36 0 0 0 0 .65v1.31a.73.73 0 0 0 1.45 0v-1.29a2.48 2.48 0 0 0-.27-1.54c-.51-.71-1.42-.58-2.18-.58h-6.47c-.81 0-1.73-.12-2.2.7a3 3 0 0 0-.18 1.5 12.34 12.34 0 0 0 0 1.36 1.39 1.39 0 0 0 1.4 1.24h8.44a1.44 1.44 0 0 0 1.45-1.38.73.73 0 0 0-.73-.72.74.74 0 0 0-.71.73Zm0-11.15c0-.16.1 0 0-.07S27 15 27 15h-8.26c.05 0 0 .12.06 0a2.53 2.53 0 0 0 0-.55v-.76a2.08 2.08 0 0 0 0-.61c0-.13.06 0-.06 0h6.68c.6 0 1.25-.06 1.85 0-.09 0 0-.12-.06 0a2.43 2.43 0 0 0 0 .66v1.31a.73.73 0 0 0 1.45 0v-1.28a2.5 2.5 0 0 0-.27-1.55c-.51-.71-1.42-.57-2.18-.57h-6.47c-.81 0-1.73-.12-2.2.7a3 3 0 0 0-.18 1.51 12.14 12.14 0 0 0 0 1.35 1.4 1.4 0 0 0 1.4 1.25h8.44a1.43 1.43 0 0 0 1.45-1.38.73.73 0 0 0-.73-.72.74.74 0 0 0-.71.72Z" class="cls-1"/>
  <path d="M20.28 23.15v-6.91a.73.73 0 0 0-1.45 0v6.91a.73.73 0 0 0 1.45 0Zm6.9 0v-6.91a.73.73 0 0 0-1.45 0v6.91a.73.73 0 0 0 1.45 0Z" class="cls-1"/>
  <path d="M1.13 21.65h18.43a.73.73 0 0 0 .72-.73v-2.58a.74.74 0 0 0-.72-.73H1.13a.73.73 0 0 0 0 1.45h18.43l-.73-.72v2.58l.73-.72H1.13a.73.73 0 0 0 0 1.45Z" class="cls-1"/>
  <path d="M13 20.86V18.4a.74.74 0 0 0-.72-.73.75.75 0 0 0-.73.73v2.46a.75.75 0 0 0 .73.73.74.74 0 0 0 .72-.73Zm10.59.48v-3.42a.73.73 0 0 0-1.45 0v3.42a.72.72 0 0 0 .72.72.73.73 0 0 0 .73-.72Zm8.71 9.52 3.32-1.13.47-.16a.75.75 0 0 0 .51-.89.74.74 0 0 0-.89-.51l-3.33 1.14-.47.16a.73.73 0 0 0-.5.89.72.72 0 0 0 .89.5ZM31.08 28l2.19-2.74.31-.38a.78.78 0 0 0 .21-.52.75.75 0 0 0-.21-.51.73.73 0 0 0-1 0l-2.2 2.74-.31.39a.83.83 0 0 0-.21.51.74.74 0 0 0 .21.51.73.73 0 0 0 1 0Zm-16.75 1.47L11 28.33l-.47-.16a.73.73 0 0 0-.89.51.74.74 0 0 0 .5.89l3.33 1.13.47.16a.73.73 0 0 0 .89-.5.74.74 0 0 0-.51-.89ZM16.19 27 14 24.28l-.31-.39a.74.74 0 0 0-1 0 .76.76 0 0 0 0 1l2.2 2.74.31.38a.72.72 0 0 0 1 0 .73.73 0 0 0 0-1ZM1.86 9.93C2 8.24 5.6 8.84 6.7 8.84h35.24c.88 0 2.09-.18 2.2 1.09.08.92 1.53.93 1.45 0-.26-2.94-3.1-2.54-5.22-2.54H6.55C4.28 7.39.7 6.74.41 9.93c-.08.92 1.37.92 1.45 0Z" class="cls-1"/>
</svg>
