<svg xmlns="http://www.w3.org/2000/svg" viewBox="0 0 46 46" fill="#fff">
  <path d="M13.86 7.18A4.38 4.38 0 0 0 12.73 11a.68.68 0 0 0 .51.5A4.28 4.28 0 0 0 17 10.25a4.33 4.33 0 0 0 1.14-3.77.71.71 0 0 0-.53-.48 4.37 4.37 0 0 0-3.75 1.21.73.73 0 0 0 1 1 3.71 3.71 0 0 1 .29-.27c-.1.09.06 0 .07-.05l.16-.11a3.65 3.65 0 0 1 .34-.18c.18-.09-.13 0 .06 0l.22-.09a2.24 2.24 0 0 1 .37-.1h.87l-.51-.51v.25a2.41 2.41 0 0 1 0 .38v.24c0 .06-.05.25-.08.37l-.06.18v.07l-.17.34-.22.33c.09-.12 0 .05 0 .06l-.2.11-.3.27-.06.05-.16.1-.34.19c-.14.07.09 0-.06 0l-.18.06-.37.1h-.21a2.42 2.42 0 0 1-.38 0h-.28l.51.5v-.87l.09-.36a2.9 2.9 0 0 1 .67-1.13.73.73 0 0 0-1-1Zm-6.14 5.17a4.25 4.25 0 0 0 2 3.26.74.74 0 0 0 .88-.11A4.15 4.15 0 0 0 12 12a4.23 4.23 0 0 0-2-3.13.76.76 0 0 0-.88.11 4.21 4.21 0 0 0-1.37 3.41.75.75 0 0 0 .73.73.73.73 0 0 0 .72-.73 2.75 2.75 0 0 1 .92-2.39l-.88.11a2.7 2.7 0 0 1 .37 4.4l.88-.12a2.77 2.77 0 0 1-1.32-2 .74.74 0 0 0-.72-.72.73.73 0 0 0-.73.68ZM4.9 20.06a4.28 4.28 0 0 0 3.26 2 .71.71 0 0 0 .63-.36 4.15 4.15 0 0 0-3.43-5.89.7.7 0 0 0-.63.36 4.28 4.28 0 0 0 .17 3.85.75.75 0 0 0 1 .26.73.73 0 0 0 .25-1 3.06 3.06 0 0 1-.36-1.2 2 2 0 0 1 0-.35v-.23a1.87 1.87 0 0 1 .08-.34.83.83 0 0 1 0-.15s.08-.21 0-.12l-.62.36c.21 0-.08 0 0 0h.17l.34.09.16.06.31.16.26.18c.06 0-.05-.05 0 0l.14.12.24.25s.11.14 0 0 .07.1.1.16a2.43 2.43 0 0 1 .3.57 2.85 2.85 0 0 1 .11.39 1.29 1.29 0 0 1 0 .19v.75c0 .24 0 .22-.08.34l-.06.18s-.08.21 0 .12l.63-.36h-.22l-.36-.1-.17-.06c.12 0 0 0 0 0a2.68 2.68 0 0 1-.12-.05l-.15-.1s-.12-.09 0 0l-.26-.24a1.07 1.07 0 0 1-.14-.16l-.08-.09c0 .05-.08-.11-.08-.1l-.12-.19a.72.72 0 0 0-1.25.73Zm.72 8.14a4.18 4.18 0 0 0 3.65.49.76.76 0 0 0 .54-.7 4.26 4.26 0 0 0-1.72-3.29 4.13 4.13 0 0 0-3.77-.57.74.74 0 0 0-.53.7 4.23 4.23 0 0 0 1.83 3.37.72.72 0 0 0 1-.26.74.74 0 0 0-.26-1s-.17-.14-.08-.06l-.14-.12-.27-.27-.07-.09c0 .06-.06-.08-.07-.1a3.37 3.37 0 0 1-.2-.3l-.07-.15c-.06-.12 0 0 0-.05a2.06 2.06 0 0 1-.12-.35c0-.11-.05-.22-.07-.33v-.08a1.41 1.41 0 0 1 0-.2l-.53.7a2.4 2.4 0 0 1 .38-.12h.23a3.22 3.22 0 0 1 .76 0h.06l.18.05a2.91 2.91 0 0 1 .39.12h.07l.17.09.35.22c.11.08 0 0 0 .05l.14.11.24.26.06.07.1.14a2.75 2.75 0 0 1 .17.29c0 .05 0 .11.08.16s0-.13 0 .08a3 3 0 0 1 .1.32c0 .11.05.22.07.33v.28l.53-.7-.35.1-.21.05a3.22 3.22 0 0 1-.76 0h-.19L7 27.28s-.16-.07-.06 0l-.17-.08a2.77 2.77 0 0 1-.42-.2.73.73 0 0 0-1 .26.75.75 0 0 0 .27.94Zm3.92 7.03a4.29 4.29 0 0 0 3.68-1.12.74.74 0 0 0 .12-.88 4.15 4.15 0 0 0-6.62-1.08.75.75 0 0 0-.11.88 4.2 4.2 0 0 0 2.93 2.2.74.74 0 0 0 .89-.51.73.73 0 0 0-.5-.89 2.62 2.62 0 0 1-1.29-.55.86.86 0 0 1-.14-.13 1.88 1.88 0 0 1-.24-.25 3.35 3.35 0 0 1-.36-.57l-.11.88a2.72 2.72 0 0 1 2.47-.71 3.29 3.29 0 0 1 .56.19l.31.17.13.09.07.05a2.67 2.67 0 0 1 .8 1l.11-.88a2.72 2.72 0 0 1-2.27.75.74.74 0 0 0-.89.51.72.72 0 0 0 .46.85Zm6.72 4.71a4.21 4.21 0 0 0 2.81-2.61.68.68 0 0 0-.19-.7 4.21 4.21 0 0 0-3.95-.77 4.25 4.25 0 0 0-2.61 2.55.69.69 0 0 0 .18.71 4.25 4.25 0 0 0 3.76.82.72.72 0 1 0-.38-1.39 2.76 2.76 0 0 1-2.35-.45l.18.7a2.72 2.72 0 0 1 4.15-1.15l-.19-.7a1.35 1.35 0 0 1-.11.24 2.75 2.75 0 0 1-.17.29 2.38 2.38 0 0 1-.41.46 2 2 0 0 1-.47.34 2.22 2.22 0 0 1-.63.27.74.74 0 0 0-.51.89.73.73 0 0 0 .89.5Z" class="cls-1"/>
  <path d="M21.14 36.15a14.37 14.37 0 0 1-11-9.44 14.36 14.36 0 0 1 4.17-15.25c.69-.62-.33-1.65-1-1a15.62 15.62 0 0 0 7.53 27.12c.91.17 1.3-1.23.38-1.4Zm9.97-27.94.14.15.05.06a2.7 2.7 0 0 1 .22.33 3.65 3.65 0 0 1 .18.34c-.07-.14 0 .05 0 .06l.06.19.09.37s0 .22 0 0v.73a.28.28 0 0 1 0 .09c0-.09 0-.09 0 0l.51-.5h-.85l-.37-.1-.14-.06c-.19-.08.13.06-.06 0l-.34-.19-.16-.1-.06-.05-.38-.3a2.9 2.9 0 0 1-.67-1.13c0-.12-.06-.24-.08-.37s0-.19 0-.09v-.12a2.41 2.41 0 0 1 0-.38 1.21 1.21 0 0 1 0-.19.28.28 0 0 1 0-.09l-.51.51H29a2.41 2.41 0 0 1 .38 0s.22 0 .06 0h.18a2.24 2.24 0 0 1 .37.1l.18.06c.14 0-.09-.05.06 0l.34.18.16.11s.15.12.09.06l.1.1a1.29 1.29 0 0 1 .17.16.74.74 0 0 0 1 0 .76.76 0 0 0 0-1A4.37 4.37 0 0 0 28.39 6a.71.71 0 0 0-.51.51 4.24 4.24 0 0 0 4.88 5 .68.68 0 0 0 .51-.5 4.38 4.38 0 0 0-1.13-3.78.73.73 0 0 0-1 1Zm5.72 4.14a2.77 2.77 0 0 1-1.32 2l.88.12a2.77 2.77 0 0 1-.94-2.43 2.81 2.81 0 0 1 1.31-2l-.88-.04a2.75 2.75 0 0 1 .95 2.38.73.73 0 0 0 .72.73.74.74 0 0 0 .73-.73A4.17 4.17 0 0 0 36.91 9a.74.74 0 0 0-.91-.17A4.23 4.23 0 0 0 34 12a4.15 4.15 0 0 0 1.36 3.54.74.74 0 0 0 .88.11 4.25 4.25 0 0 0 2-3.26.73.73 0 0 0-1.45 0Zm3.02 6.98c-.07.1-.13.21-.21.31.07-.1-.06.07-.07.07a1.49 1.49 0 0 1-.12.14l-.26.24-.17.12-.3.17-.11.05h-.1l-.37.1h-.25l.63.36v-.08l-.06-.19c0-.12-.06-.25-.09-.37s0 0 0-.08v-.59c0-.13 0-.12 0 0v-.19c0-.06.06-.26.1-.39a2.76 2.76 0 0 1 .32-.61c0-.06.07-.11.1-.16a3.07 3.07 0 0 1 .25-.26l.13-.12s.12-.1 0 0l.3-.2.3-.16.19-.07.3-.08h.26l-.62-.4v.23a2.14 2.14 0 0 1 .09.34v.27a2 2 0 0 1 0 .35 3.06 3.06 0 0 1-.36 1.2.73.73 0 0 0 .26 1 .74.74 0 0 0 1-.26 4.28 4.28 0 0 0 .17-3.85.7.7 0 0 0-.62-.36 4.26 4.26 0 0 0-3.16 1.88 4.21 4.21 0 0 0-.27 4 .69.69 0 0 0 .62.36 4.28 4.28 0 0 0 3.26-2 .74.74 0 0 0-.26-1 .73.73 0 0 0-.88.23Zm-.2 7.67-.33.2-.21.1c.07 0 0 0 0 0l-.35.11-.22.05h-.06a2.89 2.89 0 0 1-.72 0h-.24l-.38-.11.53.7v-.58a3.58 3.58 0 0 1 .11-.35c0-.13 0 0 0 0l.07-.15a2.14 2.14 0 0 1 .17-.3l.12-.17c-.06.08 0 0 0 0a2 2 0 0 1 .24-.26l.13-.12.08-.06a2.2 2.2 0 0 1 .41-.36l.17-.09h.07a1.71 1.71 0 0 1 .38-.13l.18-.05h.46a2.17 2.17 0 0 1 .36 0h.24a2.77 2.77 0 0 1 .41.12l-.53-.7a2.84 2.84 0 0 1-.27 1.15 2.38 2.38 0 0 1-.18.3l-.09.14c.07-.11-.06.06-.06.07a3 3 0 0 1-.25.25 1.07 1.07 0 0 1-.16.14l-.08.06a.73.73 0 0 0-.26 1 .72.72 0 0 0 1 .26 4.23 4.23 0 0 0 1.83-3.37.74.74 0 0 0-.53-.7 4.13 4.13 0 0 0-3.77.57A4.26 4.26 0 0 0 36.19 28a.76.76 0 0 0 .54.7 4.18 4.18 0 0 0 3.65-.49.72.72 0 1 0-.73-1.21Zm-3.58 6.83a2.72 2.72 0 0 1-2.27-.75l.11.88a2.7 2.7 0 0 1 4.34-.79l-.11-.88a3.72 3.72 0 0 1-.19.34 1.41 1.41 0 0 1-.14.2 2 2 0 0 1-.24.26l-.14.13-.07.06a2.62 2.62 0 0 1-1.29.55.73.73 0 0 0 .39 1.4A4.2 4.2 0 0 0 39.39 33a.75.75 0 0 0-.11-.88 4.15 4.15 0 0 0-6.62 1.08.74.74 0 0 0 .12.88 4.29 4.29 0 0 0 3.68 1.12.73.73 0 0 0-.39-1.4Zm-5.95 4.72a2.3 2.3 0 0 1-.6-.25 2.82 2.82 0 0 1-.29-.18 2.08 2.08 0 0 1-.21-.18l-.24-.24s-.11-.14-.06-.06l-.08-.13a3.45 3.45 0 0 1-.2-.32s-.05-.09-.07-.14 0 .11 0-.1l-.19.7a2.73 2.73 0 0 1 2.54-.39 2.64 2.64 0 0 1 1 .6 2.73 2.73 0 0 1 .23.25c.08.1 0-.07 0 0l.09.13a2.75 2.75 0 0 1 .17.29l.09.17c.06.12-.06-.15 0 .07l.18-.7a2.76 2.76 0 0 1-2.35.45.74.74 0 0 0-.89.5.73.73 0 0 0 .51.89 4.26 4.26 0 0 0 3.76-.82.68.68 0 0 0 .18-.7 4.13 4.13 0 0 0-6.56-1.79.68.68 0 0 0-.19.7 4.21 4.21 0 0 0 2.81 2.61.72.72 0 1 0 .38-1.39Z" class="cls-1"/>
  <path d="M25.24 37.55a15.62 15.62 0 0 0 7.53-27.12c-.7-.61-1.72.41-1 1a14.36 14.36 0 0 1 4.17 15.25 14.37 14.37 0 0 1-11 9.44c-.91.17-.53 1.57.38 1.4Z" class="cls-1"/>
  <path d="M26.29 30a8.13 8.13 0 1 0-6.9 0c.84.39 1.57-.85.73-1.26a6.7 6.7 0 1 1 5.44 0c-.84.41-.11 1.65.73 1.26Z" class="cls-1"/>
  <path d="M19.68 30.31h6.18a.72.72 0 0 1 .29 0 .31.31 0 0 1 0 .53c-.19.12-.59.05-.81.05h-5.51a.54.54 0 0 1-.33-.06.3.3 0 0 1 .18-.55c.92 0 .93-1.5 0-1.45a1.77 1.77 0 0 0-1.34 2.87 2.08 2.08 0 0 0 1.78.63h5.86A1.77 1.77 0 0 0 27.64 30a1.87 1.87 0 0 0-1.91-1.14h-6.05a.73.73 0 0 0 0 1.45Z" class="cls-1"/>
  <path d="M24.84 30.92h-3.88A1.79 1.79 0 0 0 19.24 32a1.76 1.76 0 0 0 1.17 2.37 4.68 4.68 0 0 0 1.12.06h3.09a1.84 1.84 0 0 0 1.82-1.07 1.76 1.76 0 0 0-1.6-2.43.72.72 0 1 0 0 1.44.3.3 0 0 1 .29.25s0-.2 0 .06v.13c0-.1-.07.1 0 0a.39.39 0 0 1-.16.14c.08-.06-.12 0 0 0h-4.25c.09 0-.1-.07 0 0s-.14-.18-.09-.1a.29.29 0 0 1 0-.39c.14-.14-.07 0 .1-.07-.08 0 .13 0 0 0h4.08a.72.72 0 0 0 .03-1.47Zm.58-1.33.31-3.4.05-.48a.74.74 0 0 0-.73-.73h-4.42a.73.73 0 0 0-.72.73l.31 3.39v.49a.75.75 0 0 0 .73.72.73.73 0 0 0 .72-.72l-.31-3.4v-.48l-.73.72h4.42l-.72-.72L24 29.1l-.05.49a.73.73 0 0 0 .73.72.74.74 0 0 0 .72-.72ZM29.22 15l1-1.24.14-.18a.51.51 0 0 0 .15-.23.46.46 0 0 0 .06-.28.74.74 0 0 0-.21-.51.71.71 0 0 0-.51-.21.68.68 0 0 0-.51.21l-1 1.24-.14.18a.51.51 0 0 0-.15.23.67.67 0 0 0-.06.28.74.74 0 0 0 .21.51.71.71 0 0 0 .51.21.68.68 0 0 0 .52-.21Zm-5.65-2.24v-2.07a.73.73 0 0 0-1.45 0v2.07a.73.73 0 0 0 .72.72.75.75 0 0 0 .73-.72ZM17.49 14l-1-1.24-.14-.18a.72.72 0 0 0-.52-.21.72.72 0 0 0-.72.72v.19a.64.64 0 0 0 .18.32l1 1.25.14.17a.69.69 0 0 0 .51.21.74.74 0 0 0 .51-.21.71.71 0 0 0 .21-.51v-.19a.74.74 0 0 0-.19-.32Z" class="cls-1"/>
</svg>
