<svg xmlns="http://www.w3.org/2000/svg" viewBox="0 0 46 46" fill="#fff">
  <path d="m26.62 9.44-2.12 4.24.62-.36h-4.24l.62.36-2.12-4.24c-.41-.83-1.66-.1-1.25.73l2.12 4.24a.73.73 0 0 0 .63.36h4.24a.73.73 0 0 0 .63-.36l2.12-4.24c.41-.83-.84-1.57-1.25-.73Z" class="cls-1"/>
  <path d="m20 13.84-1.79 14.42-.21 2.09a.7.7 0 0 0 .36.63c.65.34 1.31.64 2 .91a9.3 9.3 0 0 0 2.61.9 6.77 6.77 0 0 0 2.42-.79 23.56 23.56 0 0 0 2.3-1 .68.68 0 0 0 .36-.63l-1.84-14.46-.21-2.07c-.11-.91-1.56-.92-1.45 0l1.84 14.49.26 2.07.36-.62a21 21 0 0 1-1.95.86 6 6 0 0 1-2.14.64 7.8 7.8 0 0 1-2.06-.73 20.2 20.2 0 0 1-1.77-.82l.36.62 1.82-14.42.27-2.09c.12-.92-1.33-.91-1.45 0Z" class="cls-1"/>
  <path d="M22.17 40c-5.77-1.7-11.66-4.7-13.68-10.8a21.45 21.45 0 0 1-.82-6.9V9.35l-.53.7L21.2 6.24a16 16 0 0 0 1.95-.52c-.15.06-.48-.12-.12 0a7.8 7.8 0 0 0 1.08.29l8.16 2.2L38.86 10l-.53-.7v13a20 20 0 0 1-1.14 7.71 15.17 15.17 0 0 1-6.85 7.3 28.05 28.05 0 0 1-4.88 2.1c-.67.22-1.35.43-2 .62l-.42.13c-.38.1.3.07 0 0s-.59-.18-.89-.26a.72.72 0 0 0-.38 1.39 3.63 3.63 0 0 0 1.4.3 9.54 9.54 0 0 0 1.71-.5 36.45 36.45 0 0 0 4.5-1.7 18.57 18.57 0 0 0 7.71-6.21c3.37-5 2.66-11.25 2.66-17v-7a.73.73 0 0 0-.53-.7L25 4.8a13.11 13.11 0 0 0-1.81-.49 4.31 4.31 0 0 0-1.5.3l-8.23 2.23-6.7 1.81a.73.73 0 0 0-.53.7v12.87A23.37 23.37 0 0 0 7 29.43a15.68 15.68 0 0 0 5.6 7.73 28.49 28.49 0 0 0 9.15 4.23.72.72 0 0 0 .42-1.39Z" class="cls-1"/>
  <path d="M23.13 36.72c-3.91-1.16-8.21-2.87-10.44-6.51a13.55 13.55 0 0 1-1.6-7.34V12l-.54.7 11-3a12.62 12.62 0 0 0 1.63-.44c-.19.08-.45-.13-.13.05a3.84 3.84 0 0 0 .84.22l6.34 1.72 5.25 1.42-.54-.7v9.82c0 3.92-.29 7.67-3.33 10.54A15.18 15.18 0 0 1 28 34.78a23.43 23.43 0 0 1-2.52 1.1c-.47.17-.94.34-1.42.49l-.56.18c-.3.09-.78 0-.32.17a.73.73 0 0 0-.38 1.4 3.09 3.09 0 0 0 1.64-.35c.88-.28 1.74-.6 2.59-1a20.54 20.54 0 0 0 3.95-2.11A12.31 12.31 0 0 0 35.52 29c1.36-3.62.84-8 .84-11.81V12a.73.73 0 0 0-.53-.7l-11.21-3A4.27 4.27 0 0 0 22 8.07l-6.47 1.74-5.36 1.45a.73.73 0 0 0-.53.7v9.21c0 4.27.18 8.45 3.32 11.74 2.59 2.72 6.26 4.16 9.79 5.21a.73.73 0 0 0 .38-1.4Z" class="cls-1"/>
</svg>
