<svg xmlns="http://www.w3.org/2000/svg" viewBox="0 0 46 46" fill="#fff"><path d="M40.4 17.16v-.42a.73.73 0 0 0-1.45 0v.15a.73.73 0 0 0 1.45 0c0-1.56 0-3.27-1.67-4a10.45 10.45 0 0 0-3.63-.74 14.19 14.19 0 0 0-3.68.23 4.22 4.22 0 0 0-2.88 1.4 4.92 4.92 0 0 0-.62 3.2v11.17a.72.72 0 0 0 1.44 0c.05-3.76 0-7.52 0-11.27a4.66 4.66 0 0 1 .15-1.9 1.87 1.87 0 0 1 1.5-1 12.81 12.81 0 0 1 4.09-.37 12.64 12.64 0 0 1 2.2.37 1.93 1.93 0 0 1 1.4.8 4.08 4.08 0 0 1 .3 2.11.73.73 0 0 0 1.45 0v-.15a.73.73 0 0 0-1.45 0v.42a.73.73 0 0 0 1.45 0Zm-17.46-5.58v.18c0 .06 0 0 0 0s0 .19-.07.29a1.09 1.09 0 0 1-.05.17s.06-.13 0 0-.12.2-.18.3.07-.05 0 0a1 1 0 0 0-.1.11s-.25.22-.11.11l-.24.16-.11.06c-.11.06.11 0-.06 0l-.29.08s-.17 0 0 0h-.16a1.51 1.51 0 0 1-.3 0c-.12 0 .16 0 0 0h-.17l-.22-.04s-.11-.06 0 0l-.25-.14a1.25 1.25 0 0 1-.12-.08c-.1-.05.11.11 0 0l-.25-.25-.09-.14s-.17-.39-.07-.18a1.8 1.8 0 0 1-.09-.28v-.2a1.22 1.22 0 0 1 0-.27v-.17a2.29 2.29 0 0 1 .09-.28c.05-.18-.08.12 0 0l.09-.15a.83.83 0 0 1 .08-.12s.11-.13 0 0a2 2 0 0 1 .2-.21s.14-.13.06-.06.06 0 .07 0a1.78 1.78 0 0 1 .3-.17s-.14.05 0 0h.76c.16 0-.11 0 0 0l.34.09c.17.06-.06 0 0 0s.12.06.18.1l.09.06.1.06c-.07 0-.08 0 0 0l.2.2c.13.13-.07-.12 0 0l.09.14.09.15c.07.13 0-.11 0 0l.09.34s0 .14 0 0v.25a.72.72 0 0 0 1.44 0 3 3 0 0 0-1.94-2.76 2.93 2.93 0 0 0-3.22.86 2.93 2.93 0 1 0 5.16 1.9.72.72 0 1 0-1.44 0ZM7.16 17.56A3.5 3.5 0 0 1 8 16.18a3.47 3.47 0 0 1 1.6-.67 5.42 5.42 0 0 1 3.23.3 3.07 3.07 0 0 1 1.66 2.55l1.61 7.58.5 2.32c.19.91 1.59.53 1.39-.38L16.55 21l-.74-3.47a4.07 4.07 0 0 0-.47-1.24 4.22 4.22 0 0 0-2.86-2.1 6.71 6.71 0 0 0-4 .16 4.32 4.32 0 0 0-2.73 2.85c-.3.88 1.09 1.26 1.4.38Z" class="cls-1"/><path d="M36.45 9.73a2.3 2.3 0 0 1-4.1 1.42 2.34 2.34 0 0 1-.16-2.6 2.29 2.29 0 0 1 4.26 1.18.73.73 0 0 0 1.45 0 3.81 3.81 0 0 0-2.47-3.52 3.75 3.75 0 0 0-4.13 1.1 3.74 3.74 0 1 0 6.6 2.42.73.73 0 0 0-1.45 0Zm-23.56 1.85a2.16 2.16 0 0 1-1.38 2 2.19 2.19 0 0 1-.64.14 2 2 0 0 1-.7-.08 2.11 2.11 0 0 1-1.11-.74c.06.07 0 0 0 0l-.12-.19-.08-.13-.05-.1a2.53 2.53 0 0 1-.12-.36 1.5 1.5 0 0 1-.05-.31 2.43 2.43 0 0 1 0-.63 1.85 1.85 0 0 1 .27-.67.86.86 0 0 1 .1-.16s.11-.14 0-.06a2.23 2.23 0 0 1 .31-.29 2.49 2.49 0 0 1 .6-.39l.22-.07h.98a2.11 2.11 0 0 1 1.28.73c.16.18-.06-.1.07.09a1.27 1.27 0 0 1 .13.19c0 .06.07.13.1.2l.05.1a3.6 3.6 0 0 1 .12.44s0 .14 0 0a1.72 1.72 0 0 1 0 .32.73.73 0 0 0 1.45 0A3.64 3.64 0 0 0 12 8.21a3.58 3.58 0 0 0-4 1 3.59 3.59 0 1 0 6.32 2.32.73.73 0 0 0-1.43.05ZM17 23.4l1.23-3.85c.37-1.18.57-3 2.06-3.21.75-.1 1.51-.13 2.27-.2a1.88 1.88 0 0 1 2.16 1c.54 1.12 1 2.27 1.51 3.39l1.77 4c.37.85 1.62.11 1.25-.73L27.56 20c-.55-1.25-1-2.58-1.68-3.77-1.14-2.08-3.55-1.53-5.47-1.34a3.23 3.23 0 0 0-2.72 1.67 12.21 12.21 0 0 0-.58 1.67L15.58 23c-.28.89 1.12 1.28 1.4.39Zm-5.21 6.28v-4.47a3.84 3.84 0 0 0-.92-2.28 2.36 2.36 0 0 0-1.55-.77h-.87a.72.72 0 0 0 0 1.44h.4c.38.05.72-.37.72-.73a.74.74 0 0 0-.72-.72 2.67 2.67 0 0 0-.4 0v1.45h.67a.87.87 0 0 1 .7.33 2.35 2.35 0 0 1 .45.94c0 .12.06.25.08.37s0-.14 0-.09v4.53a.73.73 0 0 0 1.45 0Z" class="cls-1"/><path d="M12.22 38.63 7.79 31.2l-1.18-2a5 5 0 0 0-.55-.91c.13 0 0 .55.09.15a7.48 7.48 0 0 0 0-.82V25.1l-.05-4.64-.72.73a1.8 1.8 0 0 1 2 .83 2.91 2.91 0 0 1 .27 1.59 31.23 31.23 0 0 0 0 3.62c.06.51.47.81.81 1.17l1.1 1.16c.73.75 1.48 1.48 2.22 2.22l2.62 2.63 1-1-2.47-2.45c-.39-.4-.79-.69-.78-1.32 0-.82.63-1.32 1.19-1.83h-1l5.37 5.37-.22-.52c.14 2.19.25 4.35.25 6.54a.73.73 0 0 0 1.45 0v-3.25l-.15-2.38a2.52 2.52 0 0 0-.29-1.44 32 32 0 0 0-2.73-2.73l-2.61-2.61a.74.74 0 0 0-1 0C10.9 28 9.9 29.9 11.39 31.5a67 67 0 0 0 2.92 2.92.73.73 0 0 0 1-1c-2.2-2.2-4.41-4.38-6.54-6.64l.21.52v-4.31a3.27 3.27 0 0 0-3.67-3.21.73.73 0 0 0-.72.72v3.9a35.62 35.62 0 0 0 0 4.26 8.16 8.16 0 0 0 1.39 2.53L9 36.06l2 3.3a.72.72 0 0 0 1.25-.73Z" class="cls-1"/><path d="M20.59 38.57H9.79a.73.73 0 0 0 0 1.45h10.8a.73.73 0 0 0 0-1.45Zm15.07-8.89v-4.67a2.44 2.44 0 0 1 .21-.53 1.72 1.72 0 0 1 .76-.79 2.13 2.13 0 0 1 .88-.09.72.72 0 0 0 0-1.44 4.29 4.29 0 0 0-1 .06 2.67 2.67 0 0 0-1.3.75 3.51 3.51 0 0 0-1 2.23v4.48a.73.73 0 0 0 1.45 0Z" class="cls-1"/><path d="m35 39.36 4.55-7.65A24.73 24.73 0 0 0 41.2 29a3.56 3.56 0 0 0 .11-1.26v-2.55l.05-4.73a.74.74 0 0 0-.72-.72A3.27 3.27 0 0 0 37 23v4.31l.21-.52c-1 1-1.92 2-2.91 3a46.68 46.68 0 0 0-3.65 3.66c-.56.71.35 1.7 1 1 1-1 2-1.9 2.93-2.91 1.49-1.61.47-3.47-.84-4.76a.74.74 0 0 0-1 0l-2.61 2.61a32 32 0 0 0-2.73 2.73 2.52 2.52 0 0 0-.29 1.44l-.15 2.38c-.07 1.08 0 2.17 0 3.25a.73.73 0 0 0 1.45 0c0-2.19.11-4.35.25-6.54l-.22.52 5.37-5.37h-1a2.84 2.84 0 0 1 1.17 1.86c0 .62-.38.92-.78 1.31l-2.47 2.46 1 1a26.43 26.43 0 0 1 2.05-2c.91-.91 1.82-1.8 2.71-2.71a12.41 12.41 0 0 0 1.86-2 2.29 2.29 0 0 0 .16-1.25v-2.28a9.5 9.5 0 0 1 0-1.51c.21-1.2 1.14-1.55 2.2-1.48l-.72-.73v6.6a5.56 5.56 0 0 0 0 1.52c-.05 0 .25-.44 0-.2a2.43 2.43 0 0 0-.28.47l-1 1.7-3.01 4.85-1.92 3.22a.72.72 0 0 0 1.25.73Z" class="cls-1"/><path d="M5.34 40h35.32a.73.73 0 0 0 0-1.45H5.34a.73.73 0 0 0 0 1.45Zm28.14-25.53v3.36a.72.72 0 1 0 1.44 0v-3.36a.72.72 0 0 0-.72-.72.74.74 0 0 0-.72.72Zm-12.54 2.66v3.36a.72.72 0 0 0 .72.72.73.73 0 0 0 .73-.72v-3.36a.75.75 0 0 0-.73-.73.74.74 0 0 0-.72.73ZM9.83 16.4v3.37a.73.73 0 0 0 1.45 0V16.4a.72.72 0 0 0-.72-.72.75.75 0 0 0-.73.72Z" class="cls-1"/></svg>
