<svg xmlns="http://www.w3.org/2000/svg" viewBox="0 0 46 46" fill="#fff">
  <path d="M36.41 7.68h.65c-.07 0 .09 0 .12.06l.17.1s.19.14.09.06l.16.15.14.15c0 .06 0 0 0 0l.06.07a2.71 2.71 0 0 1 .21.37c-.05-.11 0 0 0 .08a1.33 1.33 0 0 1 .05.19s0 .2 0 .08V12l.72-.73H36a.74.74 0 0 0-.72.73.73.73 0 0 0 .72.72h2.8a.73.73 0 0 0 .72-.72V9.92a7.63 7.63 0 0 0 0-.83 3.13 3.13 0 0 0-3.12-2.86.73.73 0 0 0 0 1.45Z" class="cls-1"/>
  <path d="M12.35 33.42V9.76a1.88 1.88 0 0 1 2-2.09h21.79l-.2-1.43c-2.17.41-2.66 2.23-2.66 4.11v25.9l.73-.72a.73.73 0 0 0-.72.72c0 2-1.31 2.07-2.77 2.07h-21a.73.73 0 0 0 0 1.45h21.67a3.3 3.3 0 0 0 3.57-3.52L34 37a.73.73 0 0 0 .72-.73V11.94c0-1.56-.45-3.89 1.6-4.27.81-.15.61-1.42-.19-1.42H14.5c-1.71 0-3.3.8-3.58 2.68a18.09 18.09 0 0 0 0 2.55v21.94a.73.73 0 0 0 1.45 0Z" class="cls-1"/>
  <path d="M28.84 35.45c0 2 .39 3.87 2.66 4.29l.19-1.42h-21a9.26 9.26 0 0 1-1.29 0c-1.53-.21-1.49-1.69-1.49-2.87l-.72.72h22.38a.73.73 0 0 0 0-1.45H7.18a.74.74 0 0 0-.72.73 4.86 4.86 0 0 0 .61 3.06 3.15 3.15 0 0 0 2.38 1.26c1.3.07 2.62 0 3.92 0h18.32c.8 0 1-1.27.2-1.42-1.64-.31-1.6-1.59-1.6-2.9a.73.73 0 0 0-1.45 0Zm5.89-26.09a.71.71 0 0 1 0-.14v-.17a1.24 1.24 0 0 1 0-.16s.09-.26 0-.13a2.44 2.44 0 0 1 .27-.28s.16-.22.07-.12l.18-.19.11-.11h.06l.16-.1.12-.06h.28c.05 0 .28-.05.13 0h.49l.28.07h.13c.11 0-.15-.08 0 0l.26.14.13.09.19.18s.17.21.09.1a1.78 1.78 0 0 1 .17.27s.05.09.07.14 0-.1 0 0a2.29 2.29 0 0 1 .08.28v.13s0-.14 0 0a1.48 1.48 0 0 0 0 .21v2.48a.72.72 0 0 0 1.44 0V9.16a3.13 3.13 0 0 0-6.26.2.75.75 0 0 0 .73.73.73.73 0 0 0 .72-.73Z" class="cls-1"/>
  <path d="M28.84 35.68a5.56 5.56 0 0 0 .2 2 3.14 3.14 0 0 0 2.79 2.06.73.73 0 1 0 0-1.45s-.16 0-.18 0-.32-.11-.33-.1.16.07 0 0l-.16-.08L31 38c.09.06.1.07 0 0a2.55 2.55 0 0 1-.24-.23s-.13-.11-.12-.14l.05.07a.22.22 0 0 1-.05-.08 1.61 1.61 0 0 1-.17-.28l-.05-.09c0-.07 0-.06 0 0s-.05-.14-.06-.15a2.61 2.61 0 0 0-.08-.35s0 .18 0 0a.71.71 0 0 1 0-.14v-1a.73.73 0 0 0-.72-.73.75.75 0 0 0-.73.73Zm-.46-6.84v3.65l.92-.7-1.5-.61a.89.89 0 0 0-.7 0l-.86.35-.72.29.92.7v-3.68a.73.73 0 0 0-.72-.73.74.74 0 0 0-.73.73v3.65a.73.73 0 0 0 .92.7l1.69-.69h-.38l1.69.69a.73.73 0 0 0 .92-.7v-3.65a.73.73 0 0 0-.72-.73.74.74 0 0 0-.73.73Z" class="cls-1"/>
  <path d="M29 27.23a1.21 1.21 0 0 1 0 .19c0 .15 0 0 0 0a1.55 1.55 0 0 1-.07.31l-.06.18s.06-.12 0 0l-.19.32c-.11.16.06-.07 0 0l-.1.11-.09.09s-.17.14 0 0l-.26.17-.11.05c-.07 0-.07 0 0 0h-.09l-.3.08s-.18 0 0 0h-.49c-.12 0 .17 0 0 0h-.18l-.18-.06-.27-.15-.12-.08c-.1-.07.11.11 0 0l-.26-.26c.09.1 0 0 0 0l-.1-.16L26 28s-.09-.21 0-.05a1.71 1.71 0 0 1-.09-.3v-.13c0-.08 0-.08 0 0a.34.34 0 0 1 0-.1 1.41 1.41 0 0 1 0-.29v-.19c0-.04.06-.2.09-.3s-.07.11 0-.05a1.4 1.4 0 0 0 .09-.17l.09-.12s.11-.14 0 0l.21-.22.01-.08c-.08.07.07-.05.07-.05a2.58 2.58 0 0 1 .32-.18l.18-.06h.7l.36.1c.17.06-.06-.05 0 0a1.14 1.14 0 0 0 .19.1l.1.07.1.07c-.07-.05-.07-.05 0 0l.22.22c.14.13-.07-.12 0 0l.1.15.09.17c.07.13 0-.11 0 .05s.07.24.1.36 0 .14 0 0v.26a.73.73 0 0 0 .72.72.74.74 0 0 0 .73-.72 3.12 3.12 0 0 0-2-2.89 3.07 3.07 0 0 0-3.36.9 3.06 3.06 0 1 0 5.4 2 .73.73 0 1 0-1.45 0ZM15.05 12.55h11.61a.73.73 0 0 0 0-1.45H15.05a.73.73 0 0 0 0 1.45Zm0 3.37h14.57a.72.72 0 0 0 0-1.44H15.05a.72.72 0 0 0 0 1.44Zm0 3.32h14.57a.72.72 0 0 0 0-1.44H15.05a.72.72 0 0 0 0 1.44Zm0 3.32h14.57a.72.72 0 0 0 0-1.44H15.05a.72.72 0 0 0 0 1.44Zm0 3.32H23a.72.72 0 0 0 0-1.44h-7.95a.72.72 0 0 0 0 1.44Zm0 3.33h7.28a.73.73 0 0 0 0-1.45h-7.28a.73.73 0 0 0 0 1.45Z" class="cls-1"/>
</svg>
