<svg xmlns="http://www.w3.org/2000/svg" viewBox="0 0 46 46" fill="#ffffff">
  <path d="m7 38.66 14.73-14.73 2.09-2.1a.72.72 0 0 0-1-1L8.06 35.54 6 37.64a.72.72 0 0 0 1 1Z" />
  <path
    d="m7.6 37 2.53 2.53.36.36a.72.72 0 0 0 1-1L9 36.37 8.62 36a.72.72 0 0 0-1 0 .73.73 0 0 0 0 1Zm4.02-4 2.53 2.53.36.36a.72.72 0 0 0 1-1L13 32.35l-.36-.35a.72.72 0 0 0-1 0 .73.73 0 0 0 0 1Zm-2.01 2 1.54 1.54.22.22a.72.72 0 0 0 1-1l-1.54-1.54-.2-.22a.72.72 0 0 0-1 1Zm13.98-14.71a2.6 2.6 0 0 1-.74.53h-.26a3 3 0 0 1-.49.13H22c.13 0 0 0 0 0h-.24a1.76 1.76 0 0 1-.23 0h-.15a3.29 3.29 0 0 1-.48.05l-.23-.07h-.09c-.07 0 .07 0 0 0a3.42 3.42 0 0 1-.42-.23l-.17-.12-.1-.1a3.06 3.06 0 0 1-.35-.37c.07.09-.06-.08-.07-.11a1.82 1.82 0 0 1-.15-.23c0-.07-.07-.15-.11-.22s0 .05 0-.08a4 4 0 0 1-.15-.49v-.84s0-.12 0 0v-.31a4 4 0 0 1 .15-.45c-.05.12 0-.08.06-.11a2.12 2.12 0 0 1 .11-.21 1.43 1.43 0 0 1 .14-.2l.06-.09v-.05a2.57 2.57 0 0 1 .33-.33l.11-.09s-.07 0 0 0 .16-.11.24-.15l.21-.12.12-.07s.11 0 0 0l.17-.07.26-.07h.33s-.11 0 0 0a4.17 4.17 0 0 1 .5 0H22s.12 0 0 0h.14a3 3 0 0 1 .49.14h.09s-.09-.05 0 0l.21.11c.12.06.34.21.4.25a3.42 3.42 0 0 1 .58.63 4.67 4.67 0 0 1 .27.49c-.05-.11 0 .08 0 .11l.08.26a2.56 2.56 0 0 1 .05.27s0 .16 0 .07v.07a4.86 4.86 0 0 1 0 .54v.14a2.56 2.56 0 0 1-.05.27c0 .08 0 .17-.08.26l-.05.12c0 .11 0-.09 0 0a2.82 2.82 0 0 1-.27.48l-.06.09c-.12.18.05-.05 0 .05l-.21.24a.72.72 0 0 0 1 1 4.19 4.19 0 1 0-5.29.53 4.23 4.23 0 0 0 5.29-.53.72.72 0 1 0-1-1Z" />
  <path
    d="M28.6 25.31a2.39 2.39 0 0 1-.73.52l-.1.05h-.16a4.54 4.54 0 0 1-.5.12h-.1c.14 0 0 0 0 0h-.61a3 3 0 0 1-.43-.09l-.23-.07h-.1a3.62 3.62 0 0 1-.43-.24l-.21-.08c.09.07 0 0 0 0l-.11-.09a3.92 3.92 0 0 1-.34-.37l-.08-.11c0-.08-.1-.16-.14-.24a2.12 2.12 0 0 1-.11-.21c-.06-.12 0 0 0-.08a2.75 2.75 0 0 1-.14-.49 2.23 2.23 0 0 1 0-.23v-.11a4.34 4.34 0 0 1 0-.51s0-.12 0 0v-.3a3.39 3.39 0 0 1 .15-.45c-.05.12 0-.08.05-.11l.12-.21.13-.21.06-.08c-.06.07 0 0 .05-.05a3.51 3.51 0 0 1 .33-.34l.11-.09s-.08.06 0 0l.23-.16.21-.12.13-.06.17-.06.26-.08h.33s-.11 0 0 0a2.9 2.9 0 0 1 .51 0H27s.12 0 0 0h.13l.49.14h.1s-.09 0 0 0l.22.1.39.25a2.86 2.86 0 0 1 .85 1.12c-.05-.1 0 .08 0 .12a2 2 0 0 1 .08.26l.06.26v.14a4.86 4.86 0 0 1 0 .54v.15l-.06.26a2 2 0 0 1-.08.26v.13c0 .11 0-.09 0 0a4.53 4.53 0 0 1-.27.48l-.06.09c-.13.18 0-.05 0 .05l-.22.24a.72.72 0 0 0 1 1 4.26 4.26 0 0 0 .81-4.78 4.2 4.2 0 0 0-7.85.79 4.2 4.2 0 0 0 7 4 .72.72 0 1 0-1-1Z" />
  <path
    d="M30.56 18.33a2.41 2.41 0 0 1-.73.53h-.26a2.8 2.8 0 0 1-.5.12h-.1c.14 0 0 0 0 0h-.62a3.29 3.29 0 0 1-.43-.09l-.27.11h-.09c-.07 0 .07 0 0 0a2.86 2.86 0 0 1-.42-.24.94.94 0 0 1-.18-.12c.09.07 0 0 0 0l-.1-.09a4 4 0 0 1-.35-.37l-.15-.18a1.88 1.88 0 0 1-.14-.24 2.12 2.12 0 0 1-.11-.21c-.06-.12 0 0 0-.08s-.1-.32-.14-.49a1.85 1.85 0 0 1 0-.23v-.11a4.34 4.34 0 0 1 0-.51s0-.12 0 0v-.07c0-.07 0-.15.05-.23a4 4 0 0 1 .15-.45v-.11l.12-.21.13-.21.07-.08a2.57 2.57 0 0 1 .33-.33l.11-.1s-.07.06 0 0l.24-.16.21-.12.12-.06.17-.06.26-.07.2-.05h.13s-.11 0 0 0a4.1 4.1 0 0 1 .5 0h.14s.12 0 0 0h.13a2.75 2.75 0 0 1 .49.14h.1s-.09 0 0 0l.22.11a3.38 3.38 0 0 1 .39.25 3.16 3.16 0 0 1 .59.63 3.84 3.84 0 0 1 .27.49c-.05-.11 0 .07 0 .11a2 2 0 0 1 .07.26 1.38 1.38 0 0 1 .06.26s0 .16 0 .08v.07a4.86 4.86 0 0 1 0 .54v.14a1.1 1.1 0 0 1-.06.26 2 2 0 0 1-.07.26 1.12 1.12 0 0 0-.05.13c0 .11 0-.09 0 0a3.72 3.72 0 0 1-.27.48l-.06.09c-.12.18 0-.05 0 .05l-.22.24a.72.72 0 0 0 1 1 4.26 4.26 0 0 0 .81-4.78 4.19 4.19 0 0 0-7.84.79 4.19 4.19 0 0 0 7 4 .72.72 0 1 0-1-1Z" />
  <path fill="none" stroke="#fff" stroke-dasharray="2.9 4.59" stroke-linecap="round" stroke-width="1.69"
    d="M14.16 38a17.41 17.41 0 1 0-6.05-6" />
</svg>
