<svg xmlns="http://www.w3.org/2000/svg" viewBox="0 0 46 46" fill="#fff">
  <path d="M15.59 35.87V33a2.64 2.64 0 0 0-.27-1.17 2.22 2.22 0 0 0-2-1.36.73.73 0 0 0 0 1.45h.06l.18.05h.07l.07.05c-.05 0 0 0 0 0l.13.13c-.08-.08 0 0 0 .06l.1.17v.09c0 .1 0-.1 0 0a1.87 1.87 0 0 1 .07.22s0 .07 0 .1v-.1.05a2.81 2.81 0 0 0 0 .29v2.8a.72.72 0 1 0 1.44 0Z" class="cls-1"/>
  <path d="m15.86 42-3.08-5.18-.78-1.39c-.08-.14-.24-.56-.38-.63.21.11.07.53.1.2s0-.38 0-.57V29.5l-.73.72c.53 0 .95 0 1.2.55a1.82 1.82 0 0 1 .12.91 23.54 23.54 0 0 0 0 2.52c.07.67.95 1.3 1.39 1.76s1.06 1.06 1.58 1.58L17 39.31l1-1-1.71-1.7c-.23-.23-.48-.39-.48-.75s.43-.81.76-1.12h-1l3.72 3.72-.29-.53.17 4.21c0 .93 1.49.93 1.45 0l-.11-2.61c0-.63.13-1.67-.33-2.17-1.16-1.27-2.45-2.44-3.66-3.66a.75.75 0 0 0-1 0 3.18 3.18 0 0 0-1.11 1.61 2.11 2.11 0 0 0 .52 2c.64.7 1.35 1.35 2 2a.73.73 0 0 0 1-1c-1.53-1.52-3-3-4.53-4.6l.21.51v-3a2.47 2.47 0 0 0-2.77-2.44.74.74 0 0 0-.72.72v2.7c0 1-.07 2 0 2.94a5.66 5.66 0 0 0 1 1.85l2 3.41 1.37 2.29a.72.72 0 0 0 1.37-.69Z" class="cls-1"/>
  <path d="M21.46 41.81H14a.73.73 0 0 0 0 1.45h7.47a.73.73 0 0 0 0-1.45Zm10.67-5.94v-3.12s0 .21 0 0a2.41 2.41 0 0 1 .08-.25c0-.08 0 0 0 0a.67.67 0 0 1 .06-.12 1.18 1.18 0 0 1 .11-.19l.06-.08.11-.12c-.05.04 0 0 0 0a.91.91 0 0 0 .13-.08c0-.05 0 0 0 0h.2a.73.73 0 0 0 .72-.73.72.72 0 0 0-.72-.72 2.43 2.43 0 0 0-2.22 2.43v3a.74.74 0 0 0 .72.73.75.75 0 0 0 .73-.73Z" class="cls-1"/>
  <path d="m31.66 42.69 3.15-5.28a18.79 18.79 0 0 0 1.12-1.89 2.59 2.59 0 0 0 .11-1V29.5a.72.72 0 0 0-.72-.72 2.48 2.48 0 0 0-2.77 2.44v3l.22-.51-2 2.1a30 30 0 0 0-2.52 2.52c-.56.71.35 1.7 1 1s1.38-1.32 2-2a2.11 2.11 0 0 0 .52-2 3.49 3.49 0 0 0-1.1-1.63.75.75 0 0 0-1 0c-1.21 1.22-2.5 2.39-3.65 3.66-.47.5-.31 1.54-.34 2.17l-.11 2.61c0 .93 1.41.93 1.45 0l.17-4.21-.21.51 3.72-3.72h-1c.32.32.74.65.75 1.13s-.25.53-.48.76l-1.71 1.7 1 1A18 18 0 0 1 30.67 38l1.91-1.9a17.55 17.55 0 0 0 1.26-1.33 1.56 1.56 0 0 0 .21-1.08v-1.56a9.08 9.08 0 0 1 0-1.05c.13-.73.67-.9 1.31-.86l-.73-.72v4.55a3.5 3.5 0 0 0 0 1.07s.22-.4.06-.27a1.25 1.25 0 0 0-.19.34l-.72 1.2-2 3.38L30.41 42a.72.72 0 0 0 1.25.73Z" class="cls-1"/>
  <path d="M24.81 43.26h7.47a.73.73 0 0 0 0-1.45h-7.47a.73.73 0 0 0 0 1.45Zm-2.46-11.12c-4.78-1.42-9.64-3.91-11.23-9-1.11-3.55-.6-7.82-.6-11.49V7l-.54.7 11.54-3.08c.54-.15 1.11-.25 1.64-.44-.19.06-.47-.13-.15 0a4.84 4.84 0 0 0 .87.24l6.72 1.85L36 7.74 35.48 7v10.69a16.31 16.31 0 0 1-.94 6.39A12.36 12.36 0 0 1 29 30a22.76 22.76 0 0 1-4 1.73c-.53.17-1.07.31-1.6.49a2.63 2.63 0 0 0-.3.09c-.41.14.22.07 0 0l-.7-.2a.72.72 0 0 0-.4 1.42 3.71 3.71 0 0 0 2.52-.13 32 32 0 0 0 3.62-1.4 15.47 15.47 0 0 0 6.56-5.22c2.8-4.09 2.23-9.24 2.23-13.95V7a.73.73 0 0 0-.53-.7L24.71 3.18A4.48 4.48 0 0 0 21.94 3l-6.81 1.84-5.53 1.5a.73.73 0 0 0-.53.7v10.57a19.06 19.06 0 0 0 .7 6.06 13 13 0 0 0 4.6 6.33A23.35 23.35 0 0 0 22 33.53a.72.72 0 0 0 .35-1.39Z" class="cls-1"/>
  <path d="M23.14 29.44c-3.18-1-6.69-2.33-8.51-5.29a11.26 11.26 0 0 1-1.31-6.09V9.19l-.53.7 9-2.44a5.94 5.94 0 0 0 1.33-.36c-.14.08-.44-.15-.18 0a2.68 2.68 0 0 0 .7.19l5.25 1.42 4.29 1.16-.53-.7v9.67a9.49 9.49 0 0 1-2.05 6.37 11.11 11.11 0 0 1-3.17 2.44 17.51 17.51 0 0 1-2.16 1c-.44.17-.89.33-1.34.48l-.71.22c-.46.1-.48.14-.08.11a.73.73 0 0 0-.38 1.4 2.24 2.24 0 0 0 1.24-.23c.73-.23 1.45-.49 2.15-.78a17.48 17.48 0 0 0 3.4-1.78 10.36 10.36 0 0 0 3.83-4.65c1.19-3 .77-6.64.77-9.81V9.19a.73.73 0 0 0-.53-.7L24.33 6a3.58 3.58 0 0 0-2.19-.13L16.81 7.3l-4.4 1.19a.73.73 0 0 0-.53.7v9.46A11.21 11.21 0 0 0 14 25.73c2.14 2.76 5.54 4.14 8.79 5.11a.73.73 0 0 0 .35-1.4Z" class="cls-1"/>
  <path d="m16.41 18 3.75 3.76a.74.74 0 0 0 .88.11l8.19-5.5 1.19-.8c.77-.51 0-1.77-.73-1.25l-8.19 5.5-1.19.8.87.11L17.43 17a.72.72 0 0 0-1 1Z" class="cls-1"/>
</svg>
