<svg xmlns="http://www.w3.org/2000/svg" viewBox="0 0 46 46" fill="#fff">
  <path d="M36.56 28.1A12 12 0 1 0 17 15.76 12 12 0 0 0 36.56 28.1c.69-.62-.33-1.64-1-1A10.55 10.55 0 0 1 18 17.69a10.55 10.55 0 1 1 17.51 9.39c-.66.63.36 1.66 1.05 1.02Z" class="cls-1"/>
  <path d="M14.43 16.79a14.83 14.83 0 0 0-.19 3.21.73.73 0 0 0 .72.72.72.72 0 0 0 .72-.72 14.42 14.42 0 0 1 0-1.47q0-.36.06-.72a1.1 1.1 0 0 1 0-.18c0-.14 0-.27.06-.4a.83.83 0 0 0-.07-.56.71.71 0 0 0-.43-.33.74.74 0 0 0-.9.5ZM24.54 5.56a14.39 14.39 0 0 0-9 7.66.74.74 0 0 0 .26 1 .73.73 0 0 0 1-.26 13 13 0 0 1 8.11-7 .73.73 0 0 0-.38-1.4Zm10.24 20.6a9.36 9.36 0 1 0-11.87.64 9.46 9.46 0 0 0 11.87-.64c.7-.63-.33-1.65-1-1a7.92 7.92 0 1 1 1.49-9.94 8 8 0 0 1-1.49 9.94c-.7.61.32 1.63 1 1Z" class="cls-1"/>
  <path d="M35 24.94c0-1.39.15-2.81-.81-4a4.32 4.32 0 0 0-2.55-1.22 15.43 15.43 0 0 0-3.52-.38 15.9 15.9 0 0 0-3.51.43 4 4 0 0 0-2.4 1.25c-.89 1.12-.75 2.49-.75 3.83a.73.73 0 0 0 1.45 0 5.26 5.26 0 0 1 .3-2.74c.44-.71 1.24-.82 2-1a13 13 0 0 1 2.91-.33 13.15 13.15 0 0 1 2.8.26 3.52 3.52 0 0 1 2.24.91c.6.79.4 2 .4 2.94a.72.72 0 0 0 1.44 0Z" class="cls-1"/>
  <path d="M32.5 26.63v-2a.73.73 0 1 0-1.45 0v2a.73.73 0 0 0 .72.73.75.75 0 0 0 .73-.73ZM24 24.67V27a.74.74 0 0 0 .72.73.75.75 0 0 0 .73-.73v-2.3a.73.73 0 1 0-1.45 0Zm6.84-8.9a2.59 2.59 0 1 1-2.15-2.55 2.62 2.62 0 0 1 2.15 2.55.72.72 0 0 0 1.44 0A4.09 4.09 0 0 0 29.63 12a4 4 0 0 0-4.85 5.85 4 4 0 0 0 7.5-2.06.72.72 0 0 0-1.44-.02Z" class="cls-1"/>
  <path d="M30.49 20A2.59 2.59 0 0 1 26 20a.72.72 0 0 0-1.25.73 4 4 0 0 0 7 0 .72.72 0 0 0-1.26-.73ZM7.65 38.15a2.62 2.62 0 0 1 .28-3.71C8.45 34 9 33.47 9.52 33l5.53-5 1.47-1.34h-1L20 31.52v-1l-8.48 7.72a2.65 2.65 0 0 1-3.82-.06c-.65-.67-1.67.35-1 1a4.08 4.08 0 0 0 5.34.51c.53-.39 1-.88 1.5-1.32L19.31 33 21 31.52a.75.75 0 0 0 0-1l-4.48-4.92a.75.75 0 0 0-1 0c-2.88 2.62-5.83 5.19-8.65 7.87a4.09 4.09 0 0 0-.22 5.7c.6.69 1.62-.33 1-1.02Z" class="cls-1"/>
  <path d="m7.93 33.51 3.89 4.28.56.61a.72.72 0 0 0 1-1l-3.87-4.3-.51-.62a.72.72 0 0 0-1 1Zm11.68-7.18L18 27.83l-.24.22a.72.72 0 0 0 0 1 .73.73 0 0 0 1 0l1.66-1.5.23-.22a.72.72 0 0 0 0-1 .72.72 0 0 0-1 0Z" class="cls-1"/>
</svg>
