<svg xmlns="http://www.w3.org/2000/svg" fill="#ffffff" viewBox="0 0 140.07 158.31">
  <path d="m22.36 41 6.56-.92 6.66 47.68-6.58.94Zm18.3 10.87 4.83 34.53-5.9.82-6.66-47.67 8.22-1.15L51.87 66l-4-28.54 5.84-.81 6.67 47.67-6.73.94Zm23.2-17 10.37-1.45c3.3-.47 5.89.19 7.78 2s3.1 4.59 3.64 8.45L89 67.94q.81 5.79-1.19 9.12c-1.32 2.22-3.64 3.57-6.93 4l-10.35 1.48Zm7.51 5.89 4.76 34.05 3.69-.52a3.09 3.09 0 0 0 2.3-1.36 5.6 5.6 0 0 0 .39-3.73l-3.46-24.79a5.62 5.62 0 0 0-1.4-3.49 3.13 3.13 0 0 0-2.59-.68ZM115.16 77l-6.62.92-2.34-8.49-8 1.13.08 8.8-6 .85V31.62l9.59-1.34ZM98.09 64l6.31-.88-6.53-23.68ZM28 149.68h-7.4l-7.84-55.44 7.37-1 3.59 25.62 8.38-1.17L28.52 92 36 91l8.21 58.7h-7.8l-3.11-23.5-8.39 1.18Zm13.68-47.51Q40.89 96.5 43 93.1t7-4.1q4.83-.68 7.81 2c2 1.79 3.26 4.57 3.78 8.35L65 123.67q.8 5.67-1.34 9.07t-7 4.07q-4.83.67-7.81-2t-3.78-8.35ZM51.7 126a5.42 5.42 0 0 0 1.42 3.44 3.51 3.51 0 0 0 5-.69 5.39 5.39 0 0 0 .42-3.7L55 99.83a5.42 5.42 0 0 0-1.42-3.44 3.5 3.5 0 0 0-4.94.69 5.46 5.46 0 0 0-.43 3.7ZM70 86.47l5 36a5.3 5.3 0 0 0 1.42 3.41 3.6 3.6 0 0 0 4.94-.69 5.24 5.24 0 0 0 .43-3.67l-5-36 6.2-.87 5 35.57q.78 5.67-1.26 9.05t-6.87 4.06q-4.83.67-7.73-2t-3.7-8.33l-5-35.56Zm18.59 7.61q-.77-5.53 1.11-8.81t6.46-3.92c3-.43 5.48.24 7.28 2s3 4.49 3.48 8.17l.2 1.44-5.88.82-.24-1.9a5.64 5.64 0 0 0-1.3-3.36 3.13 3.13 0 0 0-4.58.64 5.6 5.6 0 0 0-.34 3.59 9.06 9.06 0 0 0 1.49 4A17.46 17.46 0 0 0 99 99.82q1.57 1.41 3.36 2.78a29.65 29.65 0 0 1 3.4 3.08 18.59 18.59 0 0 1 2.86 4 16.13 16.13 0 0 1 1.7 5.54q.78 5.52-1.16 8.81t-6.52 3.93q-4.58.65-7.34-2t-3.53-8.16l-.4-2.8 5.89-.82.45 3.25a5.29 5.29 0 0 0 1.29 3.31 3.34 3.34 0 0 0 4.7-.66 5.27 5.27 0 0 0 .39-3.57 9.13 9.13 0 0 0-1.48-4 17.19 17.19 0 0 0-2.74-3.07c-1-.94-2.17-1.86-3.36-2.78a32.39 32.39 0 0 1-3.4-3.07 18.66 18.66 0 0 1-2.86-4 16.29 16.29 0 0 1-1.66-5.51ZM118.93 99l8.07-1.11.9 6.45-8.08 1.13 1.21 8.68 10.18-1.42.63 3.35L116.5 124l-6.12-43.17 16.07-2.24.9 6.44-10.18 1.43Z" class="cls-1"/>
  <path d="M69.54 0 0 43.59v114.72h70.65l11.14-5.7h45.44l7.17-7.38v-19.56l5.63-2.88v-80Zm56.78 140.72a5.44 5.44 0 0 1-.89 1.46c-.26.3-.53.59-.81.86s-.86.79-1.3 1.18l-1.71 1.5-1.77 1.62-.17-.16-1.42-1.3-2-1.74c-.67-.59-1-.9-1.49-1.37a6.52 6.52 0 0 1-1.11-1.4 5 5 0 0 1-.5-1.17 5.26 5.26 0 0 1-.17-.88v-1.01a3.47 3.47 0 0 1 .13-1 3.4 3.4 0 0 1 1-1.7 3.44 3.44 0 0 1 1.56-.81 3.66 3.66 0 0 1 3.26.81 4.82 4.82 0 0 1 .9 1.06v.05a4.67 4.67 0 0 1 .78-1 3.79 3.79 0 0 1 1.83-1 3.64 3.64 0 0 1 .93-.06 3.5 3.5 0 0 1 2.41 1.1 3.24 3.24 0 0 1 .78 1.37 4.19 4.19 0 0 1 .13.69 6.76 6.76 0 0 1 0 .9 5.89 5.89 0 0 1-.37 2Zm8.11-21.37L69.5 152.61H5.64V46.71l64-40.08L134.43 46Z" class="cls-1"/>
</svg>
