<svg xmlns="http://www.w3.org/2000/svg" fill="#ffffff" viewBox="0 0 190.87 140.88">
  <path d="M6 117.52c2.18 1.45 2.78 3.53 4.06 5.37a9.11 9.11 0 0 1-1.47.28 2.65 2.65 0 0 1-2.35-1.24c-.71-1.14-1.59-3.34-3.3-4.1v5.37s-3 0-3-1.34v-11.55h4.4c2.8 0 4.83.81 4.83 3.33v.52A3.12 3.12 0 0 1 6 117.52Zm-3-5.07v3.16h1.5c1.26 0 1.71-.56 1.71-1.71s-.6-1.45-1.85-1.45Zm32.93 6.43c0 2.73-1.77 4.36-5.52 4.36s-5.55-1.63-5.55-4.36v-4.42c0-2.71 1.74-4.36 5.55-4.36s5.52 1.65 5.52 4.36Zm-3-4.19c0-1.56-.41-2.45-2.56-2.45s-2.56.89-2.56 2.45v4c0 1.56.42 2.47 2.56 2.47s2.56-.91 2.56-2.47Zm28.58 2.65a12.09 12.09 0 0 1 .22-2L59.1 121a3.36 3.36 0 0 1-2.63-1.31l-1.85-4.23a11.75 11.75 0 0 1 .19 1.85v5.86s-3 0-3-1.34v-11.52h1.83a2.1 2.1 0 0 1 1.94 1.17l2.54 5.71 3.19-6.88c.65 0 3.14 0 3.14 1.35v11.54s-3 0-3-1.34Zm27.86-1.82 1.53 4.66a11 11 0 0 0 1 2.67 5.87 5.87 0 0 1-1.37.3c-1.83 0-2.25-1.29-2.69-2.62l-.26-.77h-3.83l-.26.77c-.45 1.33-.86 2.62-2.7 2.62a6 6 0 0 1-1.35-.3 11 11 0 0 0 1-2.67l1.56-4.66a11.75 11.75 0 0 1 3.69-5.68 11.8 11.8 0 0 1 3.68 5.68Zm-4.56.46-.45 1.64H87l-.43-1.62c-.26-1-.88-2.64-.88-2.64s-.62 1.64-.88 2.64Zm26.84-5.88c2.82 0 4.83.6 4.83 2.28a4.28 4.28 0 0 1-.71 2.06 1.1 1.1 0 0 0 0-.25c0-1.55-2.5-1.87-4.12-1.87-1.28 0-2.2.23-2.2 1.3 0 2.55 7.42-.19 7.42 5.58 0 2.67-2.28 4-5.52 4-2.26 0-4.67-.72-4.67-2.34a3 3 0 0 1 .78-1.81c0 1.6 2.44 1.93 3.89 1.93 1.68 0 2.44-.56 2.44-1.59 0-2.89-7.42-.14-7.42-5.46.02-2.93 2.39-3.83 5.28-3.83Zm25.81 2.35v10.75s-3 0-3-1.34v-9.41h-1.66c-1.71 0-2-1.21-2-2.42a7.7 7.7 0 0 0 2.25.28h5.81a7.47 7.47 0 0 0 2.23-.28c0 1.21-.22 2.42-1.95 2.42Zm21.65 4.96v3.5h6.18c0 .12 0 2.12-1.61 2.12h-5.31s-2.23 0-2.23-1.35v-11.37h9.15s0 2.14-1.61 2.14h-4.57v2.83h3.25a5.48 5.48 0 0 0 2.24-.28c0 1.21-.25 2.41-2 2.41Zm27.69.11c2.18 1.45 2.79 3.53 4.07 5.37a9.35 9.35 0 0 1-1.47.28 2.64 2.64 0 0 1-2.35-1.24c-.71-1.14-1.59-3.34-3.31-4.1v5.37s-3 0-3-1.34v-11.55h4.34c2.8 0 4.83.81 4.83 3.33v.52a3.12 3.12 0 0 1-3.11 3.36Zm-3.06-5.07v3.16h1.51c1.26 0 1.71-.56 1.71-1.71s-.61-1.45-1.85-1.45ZM71.28 136.19h-5.44v4.69s-.78 0-.78-.59v-9.12s.78 0 .78.6v3.67h5.44v-4.27s.78 0 .78.6v9.11s-.78 0-.78-.59Zm13.83-4.88h2.61c1.73 0 3 .57 3 2.23v.46a2.07 2.07 0 0 1-1.21 2 2.2 2.2 0 0 1 1.34 2v.44c0 1.59-1.28 2.3-3.13 2.3h-1.66s-1 0-1-.6Zm.78.74v3.55h1.94c1.56 0 2.11-.65 2.11-1.83s-.73-1.72-2.22-1.72Zm0 4.28V140h1.83c1.63 0 2.35-.54 2.35-1.77s-.7-1.91-2.24-1.91Zm18.71 4.42s-1 0-1-.6v-9s.78 0 .78.6V140h3.53a2.07 2.07 0 0 0 1-.13c0 .27-.21.87-.63.87Zm19.84-5.57c.8 0 1-.19 1-.19a.88.88 0 0 1-.9.93h-2.84v5s-.78 0-.78-.59v-9h5.19s0 .73-.5.73h-3.91v3.14Zm-15.8-116.55C102.09 29 100.37 31.39 97.28 31.4S92.47 29 85.91 18.63C80.22 9.68 66.93 0 66.93 0c.69 1.38 5.3 6 7.83 13.34S81.14 25.79 86 29.45a88.44 88.44 0 0 0 11.22 6.88 88.25 88.25 0 0 0 11.23-6.88c4.88-3.66 8.74-8.74 11.27-16.11s7.13-12 7.82-13.34c.08 0-13.21 9.68-18.9 18.63ZM97.28 26c2.48 0 4.48-2.84 4.48-6.33s-2-6.33-4.48-6.33-4.49 2.84-4.49 6.33S94.8 26 97.28 26ZM85.91 73.39c6.56-10.31 8.28-12.76 11.37-12.77s4.81 2.46 11.36 12.77c5.69 9 19 18.63 19 18.63-.69-1.38-5.29-6-7.82-13.34s-6.39-12.44-11.27-16.11A86.4 86.4 0 0 0 97.3 55.7 85.87 85.87 0 0 0 86 62.57c-4.89 3.67-8.74 8.75-11.27 16.11s-7.14 12-7.83 13.34c.03-.02 13.32-9.68 19.01-18.63ZM97.28 66c-2.48 0-4.49 2.83-4.49 6.32s2 6.33 4.49 6.33 4.48-2.83 4.48-6.33S99.75 66 97.28 66Zm27.37-8.62C114.34 50.82 111.9 49.1 111.89 46s2.45-4.81 12.76-11.36c9-5.7 18.64-19 18.64-19-1.38.69-6 5.29-13.34 7.82s-12.45 6.39-16.11 11.27A88.25 88.25 0 0 0 107 46a86.78 86.78 0 0 0 6.88 11.23c3.62 4.91 8.7 8.77 16.12 11.3s12 7.14 13.34 7.82c-.05 0-9.73-13.28-18.69-18.97ZM117.29 46c0 2.48 2.83 4.49 6.33 4.49s6.38-2 6.38-4.49-2.84-4.48-6.33-4.48-6.38 2.01-6.38 4.48ZM69.9 34.65C80.21 41.2 82.65 42.92 82.67 46s-2.46 4.82-12.77 11.38c-9 5.69-18.63 19-18.63 19 1.38-.68 6-5.29 13.34-7.82s12.44-6.39 16.1-11.27A85.05 85.05 0 0 0 87.59 46a85.75 85.75 0 0 0-6.88-11.23C77.05 29.88 72 26 64.61 23.49s-12-7.13-13.34-7.82c0 0 9.73 13.33 18.63 18.98ZM77.26 46c0-2.48-2.83-4.49-6.32-4.49s-6.33 2-6.33 4.49 2.83 4.49 6.33 4.49 6.32-2 6.32-4.49Z" class="cls-1"/>
</svg>
