<svg xmlns="http://www.w3.org/2000/svg" fill="none" viewBox="0 0 147 52"><path fill="#fff" fill-rule="evenodd" d="M0 12.94C0 5.8 5.8 0 12.94 0v25.89C5.8 25.89 0 20.09 0 12.94Zm12.94 38.83V25.89a12.94 12.94 0 1 1 0 25.88ZM50.88 11.6v17.93c0 .51.21.88.64 1.09.42.21 1.14.37 2.15.49.24 0 .37.18.37.53 0 .16-.03.35-.07.57a109.97 109.97 0 0 0-4.67-.16 58.44 58.44 0 0 0-4.7.16 2.96 2.96 0 0 1-.07-.57c0-.31.11-.49.34-.53 1-.14 1.73-.3 2.18-.5.45-.2.67-.57.67-1.08V11.6h-3.46a6 6 0 0 0-1.7.2 3.42 3.42 0 0 0-2.06 1.64c-.24.43-.5.92-.77 1.48a.41.41 0 0 1-.22.24.7.7 0 0 1-.28.06 1 1 0 0 1-.64-.2c.22-.8.4-1.52.5-2.15l.3-1.56c.1-.41.2-.73.3-.96.1-.22.25-.33.48-.33a95.37 95.37 0 0 0 3.53.2h11.2l.91-.03a418.62 418.62 0 0 0 2.62-.17c.23 0 .39.11.5.35.1.24.19.57.28 1 .09.42.18.94.28 1.57a14 14 0 0 0 .52 2.08l-.32.14a.85.85 0 0 1-.65 0 .4.4 0 0 1-.24-.24c-.24-.56-.49-1.05-.74-1.48a3.25 3.25 0 0 0-2.03-1.65 6.12 6.12 0 0 0-1.7-.2h-3.45Zm24.58-3.4c-.51 0-.96-.18-1.34-.55a1.82 1.82 0 0 1-.57-1.36c0-.54.19-1 .57-1.38a1.84 1.84 0 0 1 2.65 0c.36.38.54.84.54 1.38a1.88 1.88 0 0 1-1.85 1.91Zm-6.78 0c-.54 0-.99-.18-1.36-.55a1.85 1.85 0 0 1-.55-1.36c0-.54.18-1 .55-1.38.37-.38.82-.57 1.36-.57.52 0 .95.19 1.31.57.36.38.54.84.54 1.38a1.88 1.88 0 0 1-1.85 1.91Zm3.86 22.63a6.8 6.8 0 0 0 5.14-2.28A7.73 7.73 0 0 0 79.14 26a9.6 9.6 0 0 0 .52-3.23c0-1.6-.17-3.1-.5-4.48a11.14 11.14 0 0 0-1.53-3.6 7.48 7.48 0 0 0-2.59-2.4 7.35 7.35 0 0 0-3.64-.87 6.84 6.84 0 0 0-4.85 2.04 7.35 7.35 0 0 0-1.53 2.43 9 9 0 0 0-.57 3.33c0 1.65.18 3.2.54 4.61.35 1.42.87 2.66 1.56 3.7a7.5 7.5 0 0 0 2.53 2.43c1.01.58 2.16.88 3.46.88ZM61 21.14a11.71 11.71 0 0 1 3.12-7.96 11.01 11.01 0 0 1 3.36-2.45 9.3 9.3 0 0 1 4.03-.9c1.95 0 3.65.3 5.1.92 1.46.61 2.66 1.44 3.62 2.48a10.22 10.22 0 0 1 2.13 3.61c.47 1.37.7 2.8.7 4.3 0 1.77-.29 3.35-.87 4.75a10.36 10.36 0 0 1-2.4 3.56 10.41 10.41 0 0 1-3.6 2.23 12.5 12.5 0 0 1-4.41.78c-1.59 0-3.05-.27-4.37-.8a9.7 9.7 0 0 1-3.4-2.31c-.96-1-1.7-2.19-2.22-3.58a12.99 12.99 0 0 1-.79-4.63Zm32.83-.28c1.57 0 2.78-.33 3.63-.99.85-.66 1.28-1.82 1.28-3.48 0-.69-.1-1.33-.27-1.91a3.9 3.9 0 0 0-.86-1.51c-.39-.43-.9-.76-1.54-1a6.5 6.5 0 0 0-2.34-.38h-1.68v9.27h1.78Zm.7 1.38h-2.48v7.39c0 .49.23.82.7 1a9.1 9.1 0 0 0 2.1.44c.26.04.4.23.4.57 0 .16-.03.35-.07.57a63.47 63.47 0 0 0-8.9 0c-.05-.22-.07-.4-.07-.54 0-.3.12-.49.37-.53.85-.14 1.45-.3 1.8-.49.34-.19.52-.5.52-.96V12.6c0-.42-.17-.73-.49-.95a4.92 4.92 0 0 0-1.9-.48c-.22-.03-.33-.22-.33-.58 0-.13.02-.3.06-.53a104.04 104.04 0 0 0 4.13.16h4.54c2.42 0 4.24.54 5.47 1.6a5.41 5.41 0 0 1 1.85 4.32c0 .49-.08 1-.25 1.54a6.06 6.06 0 0 1-2.12 3c-.55.44-1.19.8-1.93 1.06l5.6 7.8c.43.58.9.98 1.42 1.2.52.23 1 .4 1.44.5.2.05.3.2.3.48 0 .18-.02.38-.06.6a46.36 46.36 0 0 0-3.93-.17c-.47 0-.95-.2-1.43-.6a7.7 7.7 0 0 1-1.36-1.54l-5.37-7.76ZM121.4 8.2c-.51 0-.96-.18-1.34-.55a1.82 1.82 0 0 1-.57-1.36c0-.54.2-1 .57-1.38a1.84 1.84 0 0 1 2.66 0c.35.38.53.84.53 1.38a1.88 1.88 0 0 1-1.84 1.91Zm-6.78 0c-.54 0-.99-.18-1.36-.55a1.85 1.85 0 0 1-.55-1.36c0-.54.18-1 .55-1.38.37-.38.82-.57 1.36-.57.52 0 .95.19 1.31.57.36.38.54.84.54 1.38a1.88 1.88 0 0 1-1.85 1.91Zm3.86 22.63a6.81 6.81 0 0 0 5.14-2.28 7.73 7.73 0 0 0 1.46-2.55 9.6 9.6 0 0 0 .52-3.23c0-1.6-.16-3.1-.5-4.48a11.16 11.16 0 0 0-1.53-3.6 7.5 7.5 0 0 0-2.58-2.4 7.35 7.35 0 0 0-3.65-.87 6.84 6.84 0 0 0-4.85 2.04 7.34 7.34 0 0 0-1.53 2.43 9 9 0 0 0-.57 3.33c0 1.65.18 3.2.54 4.61.35 1.42.88 2.66 1.56 3.7a7.5 7.5 0 0 0 2.54 2.43c1 .58 2.16.88 3.45.88Zm-11.55-9.7a11.7 11.7 0 0 1 3.12-7.96 11.03 11.03 0 0 1 3.36-2.45 9.3 9.3 0 0 1 4.03-.9c1.95 0 3.65.3 5.1.92a10.1 10.1 0 0 1 3.62 2.48 10.21 10.21 0 0 1 2.13 3.61c.47 1.37.7 2.8.7 4.3 0 1.77-.29 3.35-.87 4.75a10.36 10.36 0 0 1-2.4 3.56 10.42 10.42 0 0 1-3.6 2.23 12.3 12.3 0 0 1-4.4.78c-1.6 0-3.05-.27-4.38-.8a9.7 9.7 0 0 1-3.4-2.31c-.95-1-1.7-2.19-2.22-3.58a12.99 12.99 0 0 1-.79-4.63Zm39.19-5.65c-.22.05-.39.07-.5.07-.3 0-.5-.05-.64-.17a1.16 1.16 0 0 1-.3-.37 6.85 6.85 0 0 0-2.09-2.78c-.8-.59-1.9-.88-3.29-.88-.53 0-1.04.08-1.53.22-.48.15-.9.36-1.26.64-.35.28-.64.62-.85 1.02a3.1 3.1 0 0 0 1 3.93c.9.67 2.2 1.36 3.92 2.05 2.15.85 3.73 1.8 4.75 2.84a5.29 5.29 0 0 1 1.53 3.85 7.7 7.7 0 0 1-.42 2.56 5.6 5.6 0 0 1-1.3 2.09 6.32 6.32 0 0 1-2.3 1.39c-.95.34-2.08.5-3.4.5-1.4 0-2.65-.14-3.78-.43a10.8 10.8 0 0 1-2.87-1.14 33.3 33.3 0 0 0-.3-2.72c-.14-.88-.3-1.75-.48-2.62.16-.07.35-.1.58-.1.26 0 .47.06.62.18.14.12.27.32.38.59a8.09 8.09 0 0 0 2.17 3.56c.88.76 2.12 1.14 3.71 1.14.72 0 1.34-.1 1.88-.3a3.7 3.7 0 0 0 2.15-2.05c.18-.45.27-.93.27-1.45a3.4 3.4 0 0 0-1.2-2.75 11 11 0 0 0-3.4-1.81c-.96-.36-1.84-.74-2.62-1.13a8.65 8.65 0 0 1-2.02-1.36 5.38 5.38 0 0 1-1.74-4.23c0-.83.15-1.6.45-2.33.3-.73.74-1.36 1.31-1.9a6.32 6.32 0 0 1 2.07-1.28c.8-.31 1.7-.47 2.72-.47 1.05 0 2.06.1 3.02.3.96.2 2.05.54 3.26 1.01.04.67.1 1.4.18 2.17.08.77.19 1.5.32 2.16ZM91.78 37.57a.57.57 0 0 1-.41-.17.56.56 0 0 1-.18-.42c0-.17.06-.3.18-.43a.57.57 0 0 1 .82 0 .6.6 0 0 1 .16.43.58.58 0 0 1-.57.59Zm-2.09 0a.57.57 0 0 1-.42-.17.57.57 0 0 1-.17-.42c0-.17.06-.3.17-.43a.56.56 0 0 1 .42-.17c.16 0 .3.06.4.17a.6.6 0 0 1 .17.43.58.58 0 0 1-.57.59Zm3.62 4.83c0 .4-.05.75-.14 1.08-.09.32-.24.6-.45.83-.2.23-.49.41-.83.54-.35.13-.78.2-1.3.2-.59 0-1.07-.08-1.44-.23a2.06 2.06 0 0 1-.84-.58c-.2-.25-.33-.52-.4-.84-.06-.31-.1-.63-.1-.96v-3.52c0-.13-.04-.23-.14-.3-.1-.06-.28-.1-.55-.14-.06 0-.1-.07-.1-.18 0-.04 0-.1.02-.16a31.88 31.88 0 0 0 1.27.05 14.9 14.9 0 0 0 1.3-.05l.02.16c0 .11-.03.17-.1.18-.27.03-.45.08-.57.14a.32.32 0 0 0-.17.3v3.3c0 .71.15 1.27.43 1.65.29.38.77.57 1.46.57.38 0 .71-.04.98-.13.27-.08.49-.22.66-.4.18-.17.3-.4.38-.7.07-.28.1-.62.1-1.02v-3.27c0-.13-.04-.23-.15-.3-.1-.06-.29-.1-.55-.14-.08 0-.12-.07-.12-.18 0-.04 0-.1.02-.16a37.6 37.6 0 0 0 1.08.05 8.16 8.16 0 0 0 1-.05.9.9 0 0 1 .02.16c0 .04 0 .07-.03.11a.13.13 0 0 1-.08.07 1.3 1.3 0 0 0-.53.14c-.1.06-.15.17-.15.3v3.48Zm3.13.6a.8.8 0 0 0 .61-.25c.16-.17.23-.4.23-.69 0-.15-.01-.3-.04-.45a1.23 1.23 0 0 0-.16-.4.9.9 0 0 0-.31-.3.93.93 0 0 0-.48-.11.73.73 0 0 0-.58.24.95.95 0 0 0-.2.65 1.87 1.87 0 0 0 .19.89.83.83 0 0 0 .74.41Zm-1.17 1.83a.9.9 0 0 0-.28.6v.34a1.13 1.13 0 0 0 .4.82c.14.1.3.2.5.27.19.06.41.1.67.1.47 0 .82-.1 1.04-.32.22-.2.32-.47.32-.78a.8.8 0 0 0-.08-.36.71.71 0 0 0-.28-.29c-.13-.07-.3-.14-.52-.18a3.96 3.96 0 0 0-.8-.07c-.17 0-.35-.01-.52-.03a1.99 1.99 0 0 1-.45-.1Zm-.24-.13a.82.82 0 0 1-.45-.74c0-.35.23-.63.68-.85a1.3 1.3 0 0 1-.63-1.2c0-.2.05-.38.14-.56.1-.18.22-.34.38-.48a1.84 1.84 0 0 1 1.19-.44c.35 0 .62.04.83.12.2.08.39.19.54.31l1.02-.45c.08.05.13.12.17.2.03.08.05.15.05.22 0 .15-.05.23-.16.23l-.37-.01c-.13 0-.29.02-.47.06.16.21.24.48.24.79 0 .21-.04.4-.14.59-.1.18-.23.33-.4.46-.16.12-.36.22-.59.3a3.17 3.17 0 0 1-1.14.08 1.85 1.85 0 0 1-.37-.09c-.18.09-.3.17-.37.25a.38.38 0 0 0-.1.24c0 .05.01.1.05.16.03.05.1.1.19.13.1.04.22.07.4.1.16.02.38.03.64.03.31 0 .6.03.88.08.28.04.52.12.73.23.21.11.38.26.5.44s.18.4.18.65A1.7 1.7 0 0 1 98 46.9c-.2.16-.45.29-.73.38-.29.08-.6.12-.94.12a2.8 2.8 0 0 1-1.52-.35c-.37-.23-.55-.6-.55-1.13 0-.15.02-.29.07-.42.05-.12.11-.24.18-.34a1.63 1.63 0 0 1 .52-.46Z" clip-rule="evenodd"/><path fill="#fff" fill-rule="evenodd" d="M101.56 43.79a22.01 22.01 0 0 1 .7-1.6l.26-.68c.06-.2.1-.35.1-.44a.15.15 0 0 0-.08-.14 1.26 1.26 0 0 0-.18-.09 3.54 3.54 0 0 1-.19-.07.12.12 0 0 1-.08-.12l.01-.06.02-.07a11.06 11.06 0 0 0 1.6 0 .1.1 0 0 1 .03.07v.06c0 .08-.04.13-.13.15l-.24.06a.41.41 0 0 0-.14.08.55.55 0 0 0-.1.14.96.96 0 0 0-.12.23l-2.12 5.01c-.14.33-.34.6-.62.79-.28.2-.57.29-.9.29-.05 0-.09-.02-.11-.05a.17.17 0 0 1-.04-.1l.03-.25.09-.24a.63.63 0 0 1 .12-.17.17.17 0 0 1 .14-.07c.05 0 .1 0 .15.02l.15.01c.18 0 .32-.04.41-.1a.9.9 0 0 0 .24-.35l.53-1.24-1.6-3.55a3.9 3.9 0 0 0-.12-.23.64.64 0 0 0-.12-.14.38.38 0 0 0-.14-.09 1.51 1.51 0 0 0-.22-.04c-.09-.02-.13-.08-.13-.16v-.06a.1.1 0 0 1 .03-.07 5.3 5.3 0 0 0 .9.03h.3a18.81 18.81 0 0 0 .9-.03l.03.07v.06c0 .09-.04.13-.13.14a1.2 1.2 0 0 0-.33.08c-.05.04-.08.08-.08.13l.06.26.21.52.91 2Zm4.98.01c.33-.83.58-1.46.74-1.9.16-.45.25-.72.25-.83a.24.24 0 0 0-.07-.17c-.05-.05-.16-.09-.33-.11-.09 0-.13-.05-.13-.14v-.06l.03-.07a11.13 11.13 0 0 0 1.63 0l.03.13c0 .04-.02.07-.04.09l-.1.07-.36.2a.56.56 0 0 0-.26.3l-1.5 3.72a.5.5 0 0 1-.16.02.17.17 0 0 1-.16-.1l-.15-.34-1.42-3.3-.12-.24a.51.51 0 0 0-.11-.14.4.4 0 0 0-.16-.08 1.95 1.95 0 0 0-.23-.04c-.1 0-.14-.06-.14-.16a.4.4 0 0 1 .03-.13 7.99 7.99 0 0 0 1.02.03 27.34 27.34 0 0 0 1.1-.03.3.3 0 0 1 .04.13c0 .09-.05.13-.14.14a.72.72 0 0 0-.32.09.14.14 0 0 0-.08.12l.06.26.2.52.85 2.01Zm4.67-5.84c.2 0 .36.06.49.17.12.1.18.22.18.34 0 .11-.05.2-.14.25a10.29 10.29 0 0 0-1.4 1.1c-.12-.06-.18-.13-.18-.2 0-.04.02-.08.06-.13l.99-1.53Zm-.38 2.84a.93.93 0 0 0-.8.4c-.2.27-.3.62-.3 1.06l1.96-.1c.1 0 .15-.04.15-.13a1.49 1.49 0 0 0-.25-.81 1.04 1.04 0 0 0-.31-.3.83.83 0 0 0-.45-.12Zm1.68 3.16c.05-.05.1-.08.16-.08.07 0 .14.06.2.18-.1.12-.2.25-.31.36-.12.12-.26.23-.42.32a2.8 2.8 0 0 1-2.05.17 1.82 1.82 0 0 1-.67-.41c-.2-.2-.35-.42-.46-.7a2.4 2.4 0 0 1-.17-.97 2.48 2.48 0 0 1 1.43-2.23c.26-.12.51-.17.75-.17.64 0 1.11.18 1.4.56.3.37.44.85.44 1.46 0 .04-.02.06-.06.06l-2.99.13a2.08 2.08 0 0 0 .43 1.34 1.46 1.46 0 0 0 1.17.53c.23 0 .44-.06.64-.16s.38-.23.51-.4Zm4.52-2.58a2.07 2.07 0 0 0-.57-.43c-.2-.1-.44-.15-.7-.15a1 1 0 0 0-.91.5c-.2.33-.3.75-.3 1.27 0 .26.02.51.08.75s.15.45.26.63c.11.18.25.32.42.42a1 1 0 0 0 .54.16.8.8 0 0 0 .41-.13 1.63 1.63 0 0 0 .66-.75c.07-.16.1-.32.1-.48v-1.8Zm.87 2.62c0 .08 0 .15.02.21.01.06.04.1.08.15.04.04.1.08.17.1l.29.06c.09.01.13.05.13.13a.6.6 0 0 1-.02.15 5.33 5.33 0 0 0-1.4.18c-.1 0-.14-.05-.14-.15v-.79l-.3.38a1.62 1.62 0 0 1-1.38.63 1.62 1.62 0 0 1-1.23-.58c-.17-.2-.3-.42-.4-.7a2.76 2.76 0 0 1 .07-1.96 2.49 2.49 0 0 1 1.24-1.22c.25-.11.48-.16.7-.16a3.02 3.02 0 0 1 1.3.27v-1.95c0-.2-.04-.36-.11-.44-.07-.09-.23-.14-.47-.16-.09-.02-.14-.06-.14-.15l.03-.14a6.42 6.42 0 0 0 1.47-.19c.1 0 .15.05.15.16s0 .25-.03.4c-.02.15-.03.34-.03.56v5.2Zm1.83-5.3c0-.17.06-.31.17-.43a.56.56 0 0 1 .43-.18c.17 0 .3.06.42.18.1.12.16.26.16.43 0 .18-.05.32-.16.43a.56.56 0 0 1-.42.17.58.58 0 0 1-.6-.6Zm.6 6.22a12.27 12.27 0 0 0-1.1.05l-.02-.07a.6.6 0 0 1 0-.1c0-.06.03-.1.09-.12.18-.03.32-.07.43-.12.11-.05.17-.13.17-.24V41.5c0-.2-.04-.35-.11-.44-.07-.1-.23-.15-.47-.17-.1-.01-.14-.06-.14-.14 0-.04 0-.08.02-.14a6.53 6.53 0 0 0 1.48-.18c.1 0 .15.05.15.15l-.03.35a3.7 3.7 0 0 0-.03.53v2.86c0 .11.05.19.16.24.1.05.25.09.45.12.05.02.08.06.08.13v.09c0 .04-.01.06-.02.07h-.14a8.24 8.24 0 0 0-.96-.05Zm5.77-.72c0 .13.05.23.14.28.1.05.28.1.54.16.07.02.1.07.1.17 0 .04 0 .1-.02.16a35.4 35.4 0 0 0-1.25-.05 13.36 13.36 0 0 0-1.25.05.88.88 0 0 1-.02-.16c0-.1.03-.15.1-.17.26-.05.44-.1.54-.15.1-.06.14-.16.14-.3v-5.27c0-.14-.04-.23-.14-.3a2 2 0 0 0-.54-.14c-.04-.01-.07-.03-.08-.07a.3.3 0 0 1-.02-.1c0-.05 0-.1.02-.18a29.64 29.64 0 0 0 1.25.06 13 13 0 0 0 1.25-.06c.02.07.02.13.02.17 0 .1-.03.16-.1.18-.26.04-.44.09-.54.15-.1.06-.14.15-.14.3v5.27Zm4.6-3.77c.2 0 .35.05.45.15.1.1.15.2.15.32a.3.3 0 0 1-.03.11.27.27 0 0 1-.1.11c-.04.04-.12.08-.21.14l-.39.19a.96.96 0 0 0-.22-.2.56.56 0 0 0-.6.02.85.85 0 0 0-.25.27 1.76 1.76 0 0 0-.22.85v1.78c0 .16.08.27.24.34.16.07.38.13.68.17.07.02.1.06.1.13 0 .04 0 .1-.02.16a5 5 0 0 0-.64-.03 11.78 11.78 0 0 0-1.9.03.95.95 0 0 1-.02-.16c0-.07.03-.11.1-.13.15-.02.29-.07.41-.12.12-.06.18-.14.18-.24v-2.63c0-.15 0-.27-.02-.37a.58.58 0 0 0-.1-.23.36.36 0 0 0-.17-.13 1.43 1.43 0 0 0-.3-.06c-.1-.01-.14-.06-.14-.14 0-.04 0-.09.02-.14a6.35 6.35 0 0 0 1.43-.19c.1 0 .15.05.15.16v.7c.22-.25.44-.45.67-.61.22-.17.47-.25.76-.25Zm1.68 1.97a3.6 3.6 0 0 0 .34 1.51c.12.22.26.4.44.54s.4.21.65.21c.4 0 .7-.14.92-.41.22-.28.33-.64.33-1.07 0-.26-.03-.52-.08-.8a2.94 2.94 0 0 0-.25-.77 1.73 1.73 0 0 0-.44-.57 1 1 0 0 0-.68-.23c-.37 0-.67.12-.89.38-.22.25-.34.65-.34 1.2Zm-.97.33a2.27 2.27 0 0 1 .68-1.63 2.32 2.32 0 0 1 1.63-.67c.34 0 .65.05.93.17a2.1 2.1 0 0 1 1.2 1.2 2.51 2.51 0 0 1 0 1.84 2.33 2.33 0 0 1-1.22 1.22 2.47 2.47 0 0 1-1.84.01 2.1 2.1 0 0 1-1.2-1.2 2.5 2.5 0 0 1-.18-.94Zm8.8-1.35a2.08 2.08 0 0 0-.57-.43c-.2-.1-.44-.15-.7-.15a1 1 0 0 0-.9.5c-.21.33-.31.75-.31 1.27 0 .26.03.51.09.75.05.24.14.45.25.63.12.18.26.32.42.42a1 1 0 0 0 .54.16.8.8 0 0 0 .42-.13 1.62 1.62 0 0 0 .65-.75c.08-.16.11-.32.11-.48v-1.8Zm.87 2.62c0 .08 0 .15.02.21s.05.1.09.15c.04.04.1.08.17.1l.28.06c.1.01.14.05.14.13l-.02.15a5.33 5.33 0 0 0-1.4.18c-.1 0-.15-.05-.15-.15v-.79l-.29.38a1.59 1.59 0 0 1-.78.54 1.91 1.91 0 0 1-1.27-.06c-.21-.1-.4-.24-.57-.43-.16-.2-.3-.42-.4-.7a2.73 2.73 0 0 1 .07-1.96c.15-.3.33-.55.54-.76a2.23 2.23 0 0 1 1.4-.62 2.96 2.96 0 0 1 1.3.27v-1.95c0-.2-.03-.36-.1-.44-.08-.09-.24-.14-.48-.16-.09-.02-.13-.06-.13-.15 0-.04 0-.09.02-.14a6.42 6.42 0 0 0 1.48-.19c.1 0 .15.05.15.16s-.02.25-.04.4c-.02.15-.03.34-.03.56v5.2Zm4.08-1.38-.33.05-.53.13c-.17.05-.32.11-.45.2-.13.09-.24.2-.32.33a.92.92 0 0 0-.12.48c0 .26.07.46.2.6.14.14.3.2.51.2.13 0 .26-.02.4-.08a.98.98 0 0 0 .32-.25 1.32 1.32 0 0 0 .32-.85v-.8Zm1.58 2.02c.07 0 .11.07.12.22-.18.12-.4.18-.68.18-.16 0-.29-.02-.4-.06a.84.84 0 0 1-.46-.44 1.1 1.1 0 0 1-.08-.3c-.18.3-.38.52-.62.63a1.8 1.8 0 0 1-.82.17 2.9 2.9 0 0 1-.44-.03c-.16-.03-.3-.08-.44-.15a.93.93 0 0 1-.35-.32 1 1 0 0 1-.13-.55c0-.26.06-.47.18-.65.12-.18.28-.32.47-.43.19-.12.4-.21.62-.28a9.67 9.67 0 0 1 1.23-.32c.1-.03.16-.07.19-.11a1.56 1.56 0 0 0-.15-1.08c-.13-.22-.35-.32-.67-.32a.96.96 0 0 0-.3.04.5.5 0 0 0-.2.13.77.77 0 0 0-.15.23l-.12.34a.25.25 0 0 1-.14.17 2.47 2.47 0 0 1-.68.19c-.07 0-.1-.08-.1-.22 0-.15.05-.3.17-.46.12-.15.27-.28.45-.4.19-.12.38-.21.6-.29.21-.07.41-.1.6-.1.25 0 .47.02.66.06.2.04.36.11.5.23.14.1.25.25.32.44.08.19.11.43.11.73v1.78c0 .24.01.41.03.52.01.1.04.2.08.25.04.1.1.16.16.2.05.03.12.04.18.04.07 0 .13 0 .16-.02a.24.24 0 0 1 .1-.02Z" clip-rule="evenodd"/></svg>