<svg xmlns="http://www.w3.org/2000/svg" fill="none" viewBox="0 0 180 64"><path fill="#3CC" fill-rule="evenodd" d="M0 15.86C0 7.1 7.103 0 15.866 0v31.721C7.103 31.721 0 24.621 0 15.861Z" clip-rule="evenodd"/><path fill="#066" fill-rule="evenodd" d="M15.866 63.452v-31.73c8.757 0 15.855 7.102 15.855 15.865 0 8.762-7.098 15.865-15.855 15.865Z" clip-rule="evenodd"/><path fill="#00000B" fill-rule="evenodd" d="M62.361 14.21v21.98c0 .632.26 1.077.782 1.337.521.261 1.4.46 2.635.597.301 0 .452.22.452.659 0 .192-.027.426-.082.7-.879-.056-1.805-.103-2.778-.145a69.66 69.66 0 0 0-5.887 0 130.09 130.09 0 0 0-2.82.144 3.62 3.62 0 0 1-.081-.7c0-.383.136-.602.411-.658 1.235-.164 2.127-.37 2.675-.617.55-.247.824-.685.824-1.317V14.21h-4.24c-.823 0-1.516.082-2.079.247a4.196 4.196 0 0 0-1.46.74c-.412.33-.77.756-1.07 1.277a26.395 26.395 0 0 0-.947 1.81.506.506 0 0 1-.268.288.855.855 0 0 1-.35.083c-.302 0-.563-.082-.782-.247.274-.988.48-1.865.617-2.634.138-.768.26-1.406.37-1.914.11-.507.227-.898.35-1.173.124-.274.323-.412.597-.412.192 0 .467.015.824.042a250.09 250.09 0 0 0 2.346.165c.412.027.796.04 1.152.04H67.3c.33 0 .7-.013 1.112-.04l1.235-.083c.411-.027.788-.055 1.132-.082a11.2 11.2 0 0 1 .844-.041c.274 0 .473.144.596.432.124.288.24.693.35 1.214.11.521.227 1.167.35 1.934.124.769.335 1.62.638 2.552-.138.056-.267.11-.391.165a1.044 1.044 0 0 1-.432.082.995.995 0 0 1-.37-.082.492.492 0 0 1-.289-.289 18.805 18.805 0 0 0-.905-1.81 4.693 4.693 0 0 0-1.05-1.276 3.987 3.987 0 0 0-1.44-.741c-.563-.165-1.256-.247-2.08-.247h-4.239Zm30.132-4.16c-.632 0-1.18-.226-1.647-.679a2.231 2.231 0 0 1-.7-1.667 2.3 2.3 0 0 1 .7-1.687c.467-.466 1.015-.7 1.647-.7.63 0 1.166.234 1.605.7.439.467.659 1.029.659 1.687 0 .659-.22 1.215-.66 1.667-.438.453-.974.68-1.604.68Zm-8.315 0c-.658 0-1.214-.226-1.667-.679-.452-.452-.679-1.008-.679-1.667 0-.658.227-1.22.68-1.687a2.234 2.234 0 0 1 1.666-.7c.631 0 1.166.234 1.605.7.44.467.66 1.029.66 1.687 0 .659-.22 1.215-.66 1.667a2.15 2.15 0 0 1-1.605.68Zm4.734 27.743c1.29 0 2.47-.247 3.54-.74a8.166 8.166 0 0 0 2.757-2.059c.768-.878 1.365-1.92 1.79-3.128.426-1.207.64-2.524.64-3.951 0-1.976-.207-3.808-.618-5.496-.412-1.687-1.037-3.155-1.873-4.404a9.175 9.175 0 0 0-3.17-2.943c-1.275-.713-2.764-1.07-4.466-1.07a8.384 8.384 0 0 0-3.231.638 7.993 7.993 0 0 0-2.717 1.852c-.781.81-1.406 1.805-1.872 2.984-.467 1.18-.7 2.539-.7 4.075 0 2.031.22 3.918.658 5.66.44 1.743 1.077 3.252 1.914 4.528.837 1.276 1.873 2.27 3.108 2.984s2.648 1.07 4.24 1.07Zm-14.16-11.895c0-1.894.343-3.677 1.03-5.351a14.355 14.355 0 0 1 2.798-4.405 13.497 13.497 0 0 1 4.116-3.004 11.402 11.402 0 0 1 4.94-1.112c2.387 0 4.472.378 6.256 1.132 1.784.755 3.259 1.77 4.425 3.046a12.545 12.545 0 0 1 2.614 4.425 16.08 16.08 0 0 1 .864 5.268c0 2.169-.357 4.11-1.07 5.825-.714 1.715-1.695 3.17-2.943 4.363-1.25 1.194-2.716 2.106-4.404 2.737-1.688.631-3.493.947-5.413.947-1.949 0-3.732-.33-5.35-.988a11.891 11.891 0 0 1-4.179-2.82c-1.167-1.22-2.072-2.681-2.717-4.383-.644-1.701-.967-3.595-.967-5.68Zm40.255-.33c1.921 0 3.402-.404 4.446-1.214 1.042-.81 1.564-2.229 1.564-4.26a8 8 0 0 0-.329-2.346 4.772 4.772 0 0 0-1.05-1.853c-.481-.52-1.112-.932-1.893-1.234-.783-.302-1.736-.453-2.861-.453h-2.058v11.36h2.181Zm.865 1.688h-3.046v9.055c0 .604.281 1.016.844 1.235.562.22 1.419.398 2.572.535.33.055.494.288.494.7 0 .193-.028.426-.082.7a77.808 77.808 0 0 0-2.696-.144 80.011 80.011 0 0 0-3.108-.062c-.714 0-1.537.02-2.47.062-.933.04-1.811.089-2.634.144a3.52 3.52 0 0 1-.082-.659c0-.384.15-.603.452-.658 1.043-.165 1.777-.364 2.202-.597.426-.233.639-.624.639-1.173V15.443c0-.521-.2-.912-.597-1.173-.398-.26-1.173-.46-2.326-.597-.275-.027-.411-.26-.411-.7 0-.165.027-.384.082-.659.823.056 1.673.103 2.552.145a53.65 53.65 0 0 0 2.51.061h5.557c2.964 0 5.2.653 6.71 1.955 1.508 1.304 2.263 3.067 2.263 5.29 0 .604-.102 1.234-.308 1.893a7.435 7.435 0 0 1-.947 1.934 7.877 7.877 0 0 1-1.646 1.75c-.673.535-1.462.967-2.367 1.297l6.874 9.549c.521.714 1.097 1.208 1.728 1.482s1.221.48 1.77.617c.248.056.371.247.371.576 0 .22-.028.467-.082.741a56.74 56.74 0 0 0-2.305-.144 55.557 55.557 0 0 0-2.511-.062c-.577 0-1.16-.247-1.75-.74-.59-.495-1.146-1.125-1.666-1.894l-6.586-9.508ZM148.8 10.05c-.632 0-1.18-.226-1.647-.679a2.234 2.234 0 0 1-.699-1.667c0-.658.233-1.22.699-1.687.467-.466 1.015-.7 1.647-.7.631 0 1.166.234 1.605.7.439.467.658 1.029.658 1.687 0 .659-.219 1.215-.658 1.667a2.15 2.15 0 0 1-1.605.68Zm-8.315 0c-.658 0-1.214-.226-1.667-.679-.453-.452-.679-1.008-.679-1.667 0-.658.226-1.22.679-1.687a2.235 2.235 0 0 1 1.667-.7c.631 0 1.166.234 1.605.7.439.467.659 1.029.659 1.687 0 .659-.22 1.215-.659 1.667a2.15 2.15 0 0 1-1.605.68Zm4.734 27.743c1.289 0 2.469-.247 3.54-.74a8.178 8.178 0 0 0 2.758-2.059c.767-.878 1.364-1.92 1.79-3.128.425-1.207.638-2.524.638-3.951 0-1.976-.206-3.808-.617-5.496-.412-1.687-1.036-3.155-1.873-4.404a9.167 9.167 0 0 0-3.17-2.943c-1.276-.713-2.765-1.07-4.466-1.07a8.383 8.383 0 0 0-3.231.638 8.003 8.003 0 0 0-2.717 1.852c-.781.81-1.406 1.805-1.872 2.984-.467 1.18-.7 2.539-.7 4.075 0 2.031.219 3.918.658 5.66.439 1.743 1.077 3.252 1.914 4.528.837 1.276 1.873 2.27 3.108 2.984s2.648 1.07 4.24 1.07ZM131.06 25.898c0-1.894.342-3.677 1.028-5.351a14.364 14.364 0 0 1 2.799-4.405 13.512 13.512 0 0 1 4.116-3.004 11.405 11.405 0 0 1 4.94-1.112c2.387 0 4.472.378 6.256 1.132 1.784.755 3.259 1.77 4.425 3.046a12.526 12.526 0 0 1 2.614 4.425 16.08 16.08 0 0 1 .864 5.268c0 2.169-.357 4.11-1.07 5.825-.714 1.715-1.695 3.17-2.943 4.363-1.249 1.194-2.717 2.106-4.404 2.737-1.688.631-3.493.947-5.413.947-1.949 0-3.732-.33-5.351-.988a11.896 11.896 0 0 1-4.178-2.82c-1.167-1.22-2.072-2.681-2.716-4.383-.646-1.701-.967-3.595-.967-5.68Zm48.034-6.918a3.416 3.416 0 0 1-.618.082c-.357 0-.617-.067-.782-.205a1.436 1.436 0 0 1-.371-.453c-.713-1.564-1.564-2.703-2.552-3.417-.988-.713-2.333-1.07-4.034-1.07-.659 0-1.284.09-1.873.268a4.68 4.68 0 0 0-1.544.782 3.86 3.86 0 0 0-1.05 1.255 3.472 3.472 0 0 0-.391 1.647c0 1.29.542 2.346 1.626 3.17 1.084.823 2.682 1.66 4.796 2.51 2.635 1.043 4.576 2.203 5.826 3.479 1.248 1.276 1.873 2.847 1.873 4.713a9.41 9.41 0 0 1-.515 3.149 6.732 6.732 0 0 1-1.606 2.552c-.727.727-1.667 1.296-2.82 1.708-1.152.412-2.539.617-4.158.617-1.702 0-3.245-.178-4.631-.535-1.386-.356-2.56-.823-3.52-1.4a40.968 40.968 0 0 0-.371-3.333 65.523 65.523 0 0 0-.576-3.211c.192-.082.425-.123.7-.123.33 0 .583.075.761.226.179.151.336.39.474.72.686 1.976 1.571 3.43 2.656 4.364 1.083.933 2.599 1.399 4.549 1.399.878 0 1.646-.123 2.305-.37.659-.247 1.207-.59 1.646-1.03a4.39 4.39 0 0 0 .989-1.481 4.73 4.73 0 0 0 .329-1.77c0-1.427-.488-2.552-1.462-3.376-.974-.823-2.366-1.564-4.178-2.223a32.48 32.48 0 0 1-3.211-1.378c-.961-.48-1.784-1.036-2.47-1.668a6.593 6.593 0 0 1-1.585-2.201c-.371-.837-.556-1.833-.556-2.985 0-1.015.185-1.969.556-2.861a6.678 6.678 0 0 1 1.605-2.326c.7-.658 1.544-1.18 2.532-1.564.988-.384 2.1-.576 3.335-.576 1.29 0 2.524.123 3.705.37 1.18.247 2.511.659 3.993 1.235.055.823.13 1.708.226 2.655.097.947.227 1.832.392 2.655Zm-66.598 27.065a.705.705 0 0 1-.508-.21.687.687 0 0 1-.216-.513c0-.204.072-.377.216-.52a.695.695 0 0 1 .508-.216c.194 0 .359.072.494.215a.73.73 0 0 1 .204.52.707.707 0 0 1-.204.514.66.66 0 0 1-.494.21Zm-2.564 0a.7.7 0 0 1-.514-.21.696.696 0 0 1-.209-.513c0-.204.069-.377.209-.52a.69.69 0 0 1 .514-.216c.194 0 .36.072.495.215a.733.733 0 0 1 .203.52.71.71 0 0 1-.203.514.663.663 0 0 1-.495.21Zm4.429 5.927c0 .482-.055.92-.165 1.313-.11.394-.294.735-.552 1.022-.258.288-.599.51-1.022.666-.423.157-.951.235-1.586.235-.728 0-1.316-.09-1.764-.273-.449-.182-.793-.42-1.034-.717a2.366 2.366 0 0 1-.483-1.022 5.752 5.752 0 0 1-.12-1.173v-4.315c0-.17-.059-.292-.177-.368-.119-.076-.344-.136-.673-.178-.085-.008-.128-.08-.128-.216 0-.05.009-.118.026-.203.254.017.514.032.78.045a16.048 16.048 0 0 0 1.543 0c.296-.013.571-.028.825-.045.016.085.025.152.025.203 0 .136-.043.208-.127.216-.322.042-.552.102-.692.178a.39.39 0 0 0-.209.368v4.035c0 .88.176 1.555.526 2.025.351.47.946.704 1.784.704.474 0 .876-.053 1.205-.159.331-.105.601-.268.813-.488a1.92 1.92 0 0 0 .457-.857 4.98 4.98 0 0 0 .139-1.263v-3.997c0-.17-.064-.292-.19-.368-.128-.076-.355-.136-.685-.178-.094-.008-.14-.08-.14-.216 0-.05.008-.118.025-.203.246.017.484.032.717.045a9.962 9.962 0 0 0 1.218 0c.208-.013.413-.028.616-.045.017.085.025.152.025.203a.27.27 0 0 1-.038.133c-.025.047-.059.075-.101.083-.313.034-.531.091-.654.171-.122.08-.184.206-.184.375v4.264Zm3.845.723c.313 0 .563-.102.749-.304.186-.203.28-.483.28-.838 0-.186-.02-.37-.057-.552a1.503 1.503 0 0 0-.197-.495 1.101 1.101 0 0 0-.375-.362 1.136 1.136 0 0 0-.59-.14c-.296 0-.531.098-.704.293-.174.194-.261.461-.261.8 0 .194.02.386.058.577.038.19.101.361.19.514.089.152.207.275.355.368.148.093.332.14.552.14Zm-1.433 2.247c-.203.194-.318.44-.343.736a1.532 1.532 0 0 0-.013.203v.216c.008.177.055.355.14.533.084.177.207.334.368.47.161.134.359.244.596.33.237.084.512.126.825.126.584 0 1.009-.13 1.276-.387a1.28 1.28 0 0 0 .399-.958.98.98 0 0 0-.101-.445.87.87 0 0 0-.343-.348 2.032 2.032 0 0 0-.634-.228 4.857 4.857 0 0 0-.978-.083 5.33 5.33 0 0 1-.64-.038 2.444 2.444 0 0 1-.552-.127Zm-.305-.153c-.364-.21-.546-.515-.546-.913 0-.424.279-.77.838-1.041a1.599 1.599 0 0 1-.565-.578c-.14-.24-.21-.539-.21-.894 0-.237.057-.465.172-.686a1.97 1.97 0 0 1 .463-.583 2.25 2.25 0 0 1 .667-.4 2.16 2.16 0 0 1 .792-.147c.424 0 .762.052 1.015.153.254.102.475.229.66.38l1.257-.545c.094.06.161.138.203.235a.696.696 0 0 1 .064.273c0 .186-.064.28-.19.28l-.457-.014a2.75 2.75 0 0 0-.584.077c.203.262.305.583.305.964 0 .262-.06.504-.178.724a1.78 1.78 0 0 1-.482.564c-.203.157-.445.28-.724.368a2.913 2.913 0 0 1-.889.134c-.177 0-.346-.011-.507-.032a2.272 2.272 0 0 1-.457-.108c-.22.101-.373.203-.457.304a.467.467 0 0 0-.126.292c0 .068.02.134.062.197a.497.497 0 0 0 .236.165c.113.047.274.085.482.114.207.03.471.045.793.045.381 0 .74.03 1.079.089.338.059.636.156.895.292.258.135.461.312.609.533.148.22.221.486.221.8 0 .346-.069.659-.209.938-.14.28-.334.519-.584.717-.249.199-.55.351-.901.457a3.954 3.954 0 0 1-1.148.159c-.795 0-1.417-.144-1.866-.432-.448-.287-.672-.748-.672-1.383 0-.186.029-.357.089-.514a1.94 1.94 0 0 1 .221-.425c.09-.127.191-.237.305-.33.114-.093.222-.17.324-.229Z" clip-rule="evenodd"/><path fill="#00000B" fill-rule="evenodd" d="M124.473 53.675c.127-.322.267-.654.419-.996.152-.343.294-.667.425-.972.131-.304.239-.58.324-.825.084-.245.126-.427.126-.546a.184.184 0 0 0-.101-.17 1.524 1.524 0 0 0-.222-.102c-.08-.03-.154-.06-.222-.089-.068-.03-.102-.078-.102-.146a.32.32 0 0 1 .013-.076 1.28 1.28 0 0 1 .026-.09c.33.026.68.04 1.053.04.195 0 .363-.003.508-.007.144-.004.279-.015.406-.032a.232.232 0 0 1 .032.089.73.73 0 0 1 .006.076c0 .093-.056.152-.165.178-.127.025-.226.05-.298.076a.5.5 0 0 0-.178.101.637.637 0 0 0-.127.165 2.693 2.693 0 0 0-.133.292l-2.602 6.143a2.163 2.163 0 0 1-.761.965 1.87 1.87 0 0 1-1.092.355c-.067 0-.116-.02-.145-.057a.208.208 0 0 1-.045-.133 1.465 1.465 0 0 1 .139-.59.806.806 0 0 1 .146-.216c.056-.055.113-.083.172-.083.068 0 .129.006.184.02a.856.856 0 0 0 .184.018c.228 0 .397-.044.507-.133.111-.089.207-.23.292-.425l.648-1.51-1.955-4.354a4.976 4.976 0 0 0-.152-.285.775.775 0 0 0-.139-.178.472.472 0 0 0-.179-.101 1.827 1.827 0 0 0-.266-.058c-.11-.025-.165-.088-.165-.19 0-.017.002-.042.007-.076a.203.203 0 0 1 .031-.09c.17.018.341.029.514.033s.37.006.59.006h.369c.203 0 .393-.002.57-.006.178-.004.356-.015.534-.032a.216.216 0 0 1 .031.089.73.73 0 0 1 .006.076c0 .102-.055.157-.164.165-.195.034-.326.07-.394.108-.067.038-.102.09-.102.159 0 .042.026.147.077.317.051.17.135.38.254.634l1.116 2.463Zm6.105-.003a85.9 85.9 0 0 0 .907-2.322c.199-.54.298-.878.298-1.014a.283.283 0 0 0-.082-.21c-.055-.054-.188-.098-.399-.133-.111-.007-.166-.063-.166-.164 0-.017.005-.042.013-.076.008-.034.017-.064.025-.09a15.255 15.255 0 0 0 1.568.032 4.08 4.08 0 0 0 .426-.031.511.511 0 0 1 .038.165c0 .05-.015.087-.045.108-.029.02-.069.049-.12.082a9.056 9.056 0 0 1-.444.254.683.683 0 0 0-.318.368l-1.841 4.54a.616.616 0 0 1-.191.025c-.093 0-.158-.04-.196-.12a14.5 14.5 0 0 1-.184-.412l-1.74-4.033a2.114 2.114 0 0 0-.14-.299.51.51 0 0 0-.329-.266 2.376 2.376 0 0 0-.293-.057c-.109-.008-.165-.071-.165-.19a.49.49 0 0 1 .039-.165c.211.017.41.028.596.032a33.65 33.65 0 0 0 1.365 0c.208-.004.421-.015.641-.032a.358.358 0 0 1 .039.165c0 .101-.056.157-.166.164-.203.035-.336.07-.4.108a.178.178 0 0 0-.095.16c0 .042.026.145.076.31.051.165.131.378.242.64l1.041 2.46Zm5.726-7.145c.246 0 .445.068.597.203.152.136.228.275.228.42a.33.33 0 0 1-.177.304c-.17.11-.322.214-.457.31a8.822 8.822 0 0 0-.4.305 23.417 23.417 0 0 0-.857.73c-.144-.067-.216-.148-.216-.241 0-.042.022-.093.064-.153l1.218-1.878Zm-.463 3.478c-.422 0-.75.165-.985.495-.236.33-.354.761-.354 1.294l2.387-.114c.127 0 .19-.055.19-.165 0-.16-.026-.33-.076-.508a1.709 1.709 0 0 0-.227-.488 1.296 1.296 0 0 0-.386-.368 1.015 1.015 0 0 0-.549-.146Zm2.062 3.87a.27.27 0 0 1 .191-.088c.084 0 .165.072.241.215-.11.153-.237.301-.381.445a2.431 2.431 0 0 1-.514.387 2.825 2.825 0 0 1-.679.273 3.413 3.413 0 0 1-.876.101c-.338 0-.66-.055-.965-.165a2.23 2.23 0 0 1-.809-.508 2.51 2.51 0 0 1-.565-.85c-.141-.338-.211-.736-.211-1.193 0-.431.082-.83.247-1.193a3.07 3.07 0 0 1 .641-.933c.262-.258.552-.459.869-.603.318-.143.624-.215.921-.215.786 0 1.36.228 1.719.685.359.457.54 1.054.54 1.79 0 .05-.026.076-.077.076l-3.668.165c0 .33.047.634.14.914.093.279.224.52.394.723.168.203.374.362.615.476.241.114.514.171.819.171.27 0 .531-.063.78-.19.25-.127.459-.288.628-.482Zm5.534-3.159a2.553 2.553 0 0 0-.698-.52 1.903 1.903 0 0 0-.863-.191c-.491 0-.861.203-1.111.61-.249.405-.374.926-.374 1.56 0 .322.036.629.108.92.072.292.178.548.318.768.139.22.308.393.507.52s.421.19.666.19c.17 0 .338-.05.508-.152a2.026 2.026 0 0 0 .806-.92 1.43 1.43 0 0 0 .133-.59v-2.195Zm1.066 3.21c0 .102.009.189.025.26a.37.37 0 0 0 .103.185c.05.05.12.091.208.12.089.03.205.053.349.07.11.017.166.072.166.165 0 .05-.009.11-.026.178-.11 0-.256.006-.438.019a7.661 7.661 0 0 0-.463.044c-.189.034-.353.07-.495.108a1.362 1.362 0 0 1-.314.057c-.121 0-.181-.063-.181-.19v-.965c-.118.16-.237.316-.355.463-.119.149-.256.28-.413.394a1.958 1.958 0 0 1-.539.273 2.351 2.351 0 0 1-.736.1 1.982 1.982 0 0 1-1.523-.703 2.664 2.664 0 0 1-.489-.857 3.369 3.369 0 0 1-.184-1.155c0-.465.089-.882.267-1.25a3.15 3.15 0 0 1 .66-.926c.262-.25.547-.44.856-.571.309-.131.595-.197.857-.197.322 0 .607.032.857.095.249.063.497.146.742.248v-2.399c0-.254-.044-.434-.133-.54-.089-.105-.282-.17-.578-.196-.109-.017-.164-.076-.164-.178 0-.05.008-.11.025-.177.11 0 .264-.007.463-.02.199-.012.362-.027.49-.044a3.92 3.92 0 0 0 .526-.101c.153-.043.265-.064.334-.064.12 0 .179.064.179.19 0 .144-.012.31-.038.495a5.261 5.261 0 0 0-.038.686v6.383Zm2.246-6.498a.74.74 0 0 1 .21-.526.691.691 0 0 1 .526-.222.66.66 0 0 1 .508.222.755.755 0 0 1 .203.526.72.72 0 0 1-.203.533.69.69 0 0 1-.508.203.707.707 0 0 1-.736-.736Zm.743 7.628a14.734 14.734 0 0 0-.857.025 9.902 9.902 0 0 0-.33.026 2.782 2.782 0 0 1-.178.012c0-.008-.004-.038-.012-.088a.71.71 0 0 1-.013-.115c0-.084.038-.135.114-.152.22-.043.398-.093.533-.152.135-.06.203-.157.203-.292v-3.452c0-.254-.044-.436-.133-.546-.089-.11-.282-.178-.578-.203-.11-.017-.164-.076-.164-.178a.66.66 0 0 1 .025-.165c.11 0 .264-.006.463-.019.199-.012.362-.027.49-.044a7.75 7.75 0 0 0 .526-.108c.154-.038.266-.057.334-.057.12 0 .179.063.179.19 0 .119-.012.26-.038.425a4.538 4.538 0 0 0-.038.654v3.503c0 .135.066.232.197.292.131.06.315.11.552.152.068.017.102.068.102.152 0 .026-.003.063-.007.115-.004.05-.011.08-.019.088-.025 0-.082-.004-.171-.012a10.651 10.651 0 0 0-.738-.045c-.15-.004-.297-.006-.442-.006Zm7.06-.888c0 .169.059.285.178.349.119.063.338.128.66.196.085.017.128.085.128.203 0 .05-.009.119-.026.203a43.73 43.73 0 0 0-.787-.044 15.713 15.713 0 0 0-1.505 0c-.276.012-.536.027-.781.044a1.093 1.093 0 0 1-.026-.203c0-.118.043-.186.127-.203.322-.06.542-.122.66-.19.119-.068.178-.186.178-.355V47.71c0-.17-.059-.29-.178-.362-.118-.072-.338-.133-.66-.184-.051-.008-.084-.033-.101-.076a.37.37 0 0 1-.026-.14c0-.05.009-.118.026-.203.254.018.518.032.794.045.275.013.522.019.742.019.212 0 .456-.006.731-.019.274-.013.543-.027.806-.044.017.084.025.152.025.203 0 .126-.042.198-.127.215-.322.05-.541.112-.66.184s-.178.193-.178.362v6.457Zm5.646-4.607c.245 0 .427.06.546.178.118.119.177.25.177.393a.37.37 0 0 1-.026.14.333.333 0 0 1-.12.133 2.731 2.731 0 0 1-.266.165 6.924 6.924 0 0 1-.475.235 1.179 1.179 0 0 0-.272-.242.64.64 0 0 0-.349-.1.688.688 0 0 0-.393.12 1.03 1.03 0 0 0-.303.33c-.085.14-.151.3-.197.482-.046.182-.069.37-.069.564v2.183c0 .186.097.323.291.412.194.089.473.159.836.21.084.017.126.067.126.152 0 .05-.008.119-.024.203a6.043 6.043 0 0 0-.349-.02c-.139-.004-.285-.01-.437-.018a16.525 16.525 0 0 0-.918-.025c-.231 0-.469.006-.715.019a24.59 24.59 0 0 0-.698.044 1.076 1.076 0 0 1-.025-.203c0-.084.037-.135.114-.152.194-.034.365-.085.513-.153.147-.067.221-.165.221-.291v-3.223c0-.178-.01-.326-.031-.444a.703.703 0 0 0-.108-.286.44.44 0 0 0-.221-.159 1.785 1.785 0 0 0-.374-.076c-.11-.017-.165-.071-.165-.165 0-.05.008-.11.026-.177.109 0 .263-.007.462-.02a7.1 7.1 0 0 0 .489-.044c.188-.034.352-.07.493-.108.141-.038.245-.057.314-.057.119 0 .18.064.18.19v.85c.27-.295.542-.543.817-.741.274-.2.584-.299.93-.299Zm2.06 2.399c0 .313.033.633.102.964.067.33.17.628.311.895a2 2 0 0 0 .539.66c.219.173.486.26.799.26.482 0 .857-.17 1.124-.508.266-.339.399-.774.399-1.307 0-.313-.032-.641-.095-.984a3.634 3.634 0 0 0-.304-.939 2.129 2.129 0 0 0-.547-.704c-.224-.186-.5-.28-.831-.28-.448 0-.81.155-1.084.463-.276.31-.413.803-.413 1.48Zm-1.193.418a2.83 2.83 0 0 1 .825-2.005c.253-.254.552-.455.894-.603a2.776 2.776 0 0 1 1.111-.222c.414 0 .795.07 1.142.21a2.7 2.7 0 0 1 .895.576c.25.246.444.544.584.896.139.35.209.733.209 1.148 0 .398-.074.768-.222 1.11a2.835 2.835 0 0 1-.603.895 2.85 2.85 0 0 1-.895.603 2.765 2.765 0 0 1-1.11.222c-.415 0-.796-.07-1.142-.21a2.695 2.695 0 0 1-.895-.577 2.589 2.589 0 0 1-.584-.888 3.058 3.058 0 0 1-.209-1.155Zm10.788-1.662a2.557 2.557 0 0 0-.699-.52 1.9 1.9 0 0 0-.863-.191c-.49 0-.861.203-1.11.61-.25.405-.375.926-.375 1.56 0 .322.037.629.108.92.072.292.178.548.318.768.139.22.309.393.507.52.199.127.421.19.666.19a.981.981 0 0 0 .508-.152 2.047 2.047 0 0 0 .806-.92c.089-.198.134-.395.134-.59v-2.195Zm1.065 3.21c0 .102.009.189.026.26a.382.382 0 0 0 .101.185.53.53 0 0 0 .21.12c.089.03.205.053.349.07.11.017.165.072.165.165 0 .05-.009.11-.026.178-.11 0-.256.006-.437.019a7.623 7.623 0 0 0-.464.044c-.188.034-.354.07-.495.108a1.378 1.378 0 0 1-.315.057c-.12 0-.179-.063-.179-.19v-.965c-.119.16-.238.316-.356.463-.119.149-.256.28-.413.394a1.958 1.958 0 0 1-.539.273 2.347 2.347 0 0 1-.736.1 1.982 1.982 0 0 1-1.523-.703 2.682 2.682 0 0 1-.489-.857 3.393 3.393 0 0 1-.184-1.155c0-.465.089-.882.267-1.25.178-.368.398-.677.66-.926.262-.25.548-.44.856-.571.309-.131.595-.197.857-.197.321 0 .607.032.857.095.249.063.497.146.743.248v-2.399c0-.254-.045-.434-.134-.54-.089-.105-.281-.17-.577-.196-.111-.017-.166-.076-.166-.178 0-.05.009-.11.026-.177.11 0 .264-.007.463-.02.199-.012.362-.027.49-.044a3.89 3.89 0 0 0 .526-.101c.154-.043.265-.064.334-.064.119 0 .18.064.18.19 0 .144-.013.31-.038.495a5.07 5.07 0 0 0-.039.686v6.383Zm5-1.687-.408.063a7.574 7.574 0 0 0-.645.152c-.208.06-.394.142-.555.248a1.248 1.248 0 0 0-.39.4c-.098.16-.146.36-.146.596 0 .322.083.567.248.736.167.17.373.254.62.254a1.2 1.2 0 0 0 .887-.412c.115-.132.208-.286.281-.464a1.54 1.54 0 0 0 .108-.584v-.99Zm1.93 2.474c.093 0 .143.09.152.267-.22.152-.499.228-.838.228-.187 0-.349-.027-.486-.082a1.012 1.012 0 0 1-.565-.54 1.363 1.363 0 0 1-.104-.368c-.211.381-.462.641-.755.78-.292.14-.628.21-1.009.21a3.56 3.56 0 0 1-.539-.044 1.622 1.622 0 0 1-.539-.184 1.147 1.147 0 0 1-.419-.394c-.111-.169-.165-.393-.165-.672 0-.313.074-.578.222-.793a1.79 1.79 0 0 1 .571-.533c.232-.14.486-.252.761-.337.275-.085.54-.157.794-.216a6.18 6.18 0 0 0 .399-.082 3.06 3.06 0 0 0 .324-.095c.118-.034.193-.08.222-.14.03-.059.044-.173.044-.343 0-.397-.075-.725-.228-.983-.152-.258-.423-.387-.812-.387-.144 0-.267.017-.368.05a.606.606 0 0 0-.254.16.972.972 0 0 0-.178.285 4.63 4.63 0 0 0-.152.419.303.303 0 0 1-.172.202 3.038 3.038 0 0 1-.45.153 2.011 2.011 0 0 1-.19.05.91.91 0 0 1-.191.026c-.084 0-.127-.089-.127-.266 0-.186.072-.373.216-.559.144-.186.328-.35.552-.495a3.35 3.35 0 0 1 .73-.349c.262-.089.512-.133.749-.133.296 0 .563.025.801.076.238.05.443.144.614.28.171.135.302.316.391.545.09.228.136.525.136.888v2.183c0 .297.01.51.031.641a.97.97 0 0 0 .095.311.512.512 0 0 0 .197.235.473.473 0 0 0 .222.057.538.538 0 0 0 .197-.025.295.295 0 0 1 .121-.026Z" clip-rule="evenodd"/></svg>