<svg xmlns="http://www.w3.org/2000/svg" fill="#ffffff" viewBox="0 0 193.91 97">
  <path d="M62.27 21.93H77v49.34H62l.19-3.67c-.72.79-1.18 1.36-1.69 1.86-3.36 3.26-7.37 3.57-11.6 2.34-4-1.16-5.69-4.23-6.15-8.14a28.57 28.57 0 0 1-.24-3.45V23.15c0-.34 0-.68.06-1.14h14.8v36.72c0 1 .1 2.07.18 3.11.12 1.53 1 2 2.48 2S62 63 62 61.71c.08-2.3.24-4.61.25-6.92V23.97ZM192 71.38h-14c-.28 0-.56 0-1-.07l.17-3.53c-.39.35-.65.53-.85.76a11.43 11.43 0 0 1-13.85 2.74 8.55 8.55 0 0 1-4.61-6.72 28.23 28.23 0 0 1-.35-4.3V23.02c0-.28 0-.57.05-1h14.8v37.03c0 .86.07 1.72.14 2.58a2.08 2.08 0 0 0 2.5 2.18c1.48-.07 2-.87 2-2.25 0-1.84.24-3.68.24-5.53V22H192Zm-76.2-30.57h-14.41v-6.26a7.63 7.63 0 0 0-.41-3 3.48 3.48 0 0 0-2.13-1.59 1.71 1.71 0 0 0-2.07 1.61 18.47 18.47 0 0 0-.24 2.57v24.94a6.69 6.69 0 0 0 .7 3.31 3.18 3.18 0 0 0 2.43 1.34 2.79 2.79 0 0 0 1.92-1.77 34.44 34.44 0 0 0 .49-5.67c.07-1.55 0-3.1 0-4.78h13.61c-.32 3.46-.19 6.94-1 10.17-1.47 5.64-5.37 9.18-11.16 10.34A25.11 25.11 0 0 1 92 71.64c-5.37-1.43-8.82-4.91-9.61-10.4-1.36-9.52-1-19.1-.27-28.66.29-3.69 2.41-6.34 5.48-8.37 6.17-4.05 16.3-3.93 22.11.36a11.3 11.3 0 0 1 4.9 7.47c.47 2.84.79 5.69 1.19 8.77Zm37.73.02h-14.35V36.4c0-1.43-.15-3.11-.33-4.65a2.2 2.2 0 0 0-4.36 0 15.27 15.27 0 0 0-.19 2.24V59.1a10.59 10.59 0 0 0 .6 3.18 2 2 0 0 0 2.57 1.47 3.19 3.19 0 0 0 1.9-1.87 41.4 41.4 0 0 0 .48-6c.06-1.44 0-2.87 0-4.41h13.34c.08 6.5.23 13-5.56 17.65a14.57 14.57 0 0 1-9.14 3.21 38.59 38.59 0 0 1-8.25-.6c-5.59-1.14-9.2-4.71-10-10.33-1.44-9.51-1-19.11-.32-28.66.33-4.43 3-7.47 6.9-9.27 7.08-3.28 14.09-3.18 20.74 1.19a10.71 10.71 0 0 1 4.93 7.62c.38 2.72.67 5.55 1.04 8.55Z" class="cls-1"/>
  <text fill="#fff" font-family="Roboto-Regular,Roboto" font-size="7.65" transform="translate(41.8 81.94)">ROMA INFORMÁLIS OK<tspan x="79.64" y="0" letter-spacing="-.04em">T</tspan><tspan x="83.91" y="0" letter-spacing="-.06em">A</tspan><tspan x="88.42" y="0">TÁSI A</tspan><tspan x="111.48" y="0" letter-spacing=".01em">L</tspan><tspan x="115.67" y="0" letter-spacing="0">APÍ</tspan><tspan x="127.57" y="0" letter-spacing=".01em">T</tspan><tspan x="132.2" y="0">VÁNY</tspan></text>
  <path d="M0 0h5.54v97H0zm8.31 0h5.54v97H8.31zm8.32 0h5.54v97h-5.54zm8.31 0h5.54v97h-5.54z" class="cls-1"/>
</svg>
